<?xml version="1.0" encoding="UTF-8"?>
<svg width="48px" height="48px" viewBox="0 0 48 48" version="1.1" xmlns="http://www.w3.org/2000/svg" xmlns:xlink="http://www.w3.org/1999/xlink">
    <!-- Generator: Sketch 62 (91390) - https://sketch.com -->
    <title>instagram-white</title>
    <desc>Created with Sketch.</desc>
    <g id="BSD-Pages" stroke="none" stroke-width="1" fill="none" fill-rule="evenodd">
        <g id="BSD-Assets" transform="translate(-318.000000, -1522.000000)">
            <g id="instagram-white" transform="translate(318.000000, 1522.000000)">
                <circle id="Oval" fill="#000046" cx="24" cy="24" r="24"></circle>
                <g id="Group" transform="translate(15.000000, 15.000000)" fill="#FFFFFF" fill-rule="nonzero">
                    <path d="M9.11710476,1.64413333 C11.5516381,1.64413333 11.8397143,1.65354286 12.8012952,1.69733333 C13.6901333,1.73786667 14.1729143,1.88624762 14.4942857,2.01110476 C14.8907717,2.1570928 15.2494299,2.39022063 15.5438095,2.69329524 C15.8468841,2.98767491 16.080012,3.3463331 16.226,3.74281905 C16.3508571,4.06419048 16.4992381,4.54697143 16.5397714,5.43580952 C16.5835619,6.39739048 16.5929714,6.68546667 16.5929714,9.12 C16.5929714,11.5545333 16.5835619,11.8426095 16.5397714,12.8041905 C16.4992381,13.6930286 16.3508571,14.1758095 16.226,14.497181 C15.9189594,15.2920706 15.290623,15.9204071 14.4957333,16.2274476 C14.1743619,16.3523048 13.691581,16.5006857 12.8027429,16.541219 C11.8415238,16.5850095 11.5530857,16.594419 9.11855238,16.594419 C6.68401905,16.594419 6.39558095,16.5850095 5.4343619,16.541219 C4.54552381,16.5006857 4.06274286,16.3523048 3.74137143,16.2274476 C3.34488548,16.0814596 2.98622729,15.8483318 2.69184762,15.5452571 C2.38877301,15.2508775 2.15564518,14.8922193 2.00965714,14.4957333 C1.8848,14.1743619 1.73641905,13.691581 1.69588571,12.8027429 C1.65209524,11.8411619 1.64268571,11.5530857 1.64268571,9.11855238 C1.64268571,6.68401905 1.65209524,6.39594286 1.69588571,5.4343619 C1.73641905,4.54552381 1.8848,4.06274286 2.00965714,3.74137143 C2.15564518,3.34488548 2.38877301,2.98622729 2.69184762,2.69184762 C2.98622729,2.38877301 3.34488548,2.15564518 3.74137143,2.00965714 C4.06274286,1.8848 4.54552381,1.73641905 5.4343619,1.69588571 C6.39594286,1.65209524 6.68401905,1.64268571 9.11855238,1.64268571 M9.11855238,0 C6.6424,0 6.33188571,0.0104952381 5.35944762,0.0550095238 C4.38700952,0.0995238095 3.72508571,0.254780952 3.14495238,0.480247619 C2.53665213,0.709134388 1.98557838,1.06791279 1.53013333,1.53158095 C1.06711837,1.98720426 0.708966209,2.53826459 0.480609524,3.1464 C0.253333333,3.72653333 0.0991619048,4.38918095 0.0550095238,5.35944762 C0.0108571429,6.32971429 -2.0250468e-13,6.6424 -2.0250468e-13,9.11855238 C-2.0250468e-13,11.5947048 0.0104952381,11.905219 0.0550095238,12.8776571 C0.0995238095,13.8500952 0.253333333,14.5105714 0.4788,15.0907048 C0.707686769,15.699005 1.06646517,16.2500788 1.53013333,16.7055238 C1.98566094,17.1691781 2.53670348,17.5280597 3.14495238,17.757219 C3.724,17.9823238 4.38773333,18.1364952 5.358,18.1810095 C6.32826667,18.2255238 6.64095238,18.2356571 9.11710476,18.2356571 C11.5932571,18.2356571 11.9037714,18.2251619 12.8762095,18.1810095 C13.8486476,18.1368571 14.5091238,17.9823238 15.0892571,17.757219 C16.3138775,17.2834486 17.282001,16.3153251 17.7557714,15.0907048 C17.9808762,14.5116571 18.1350476,13.8479238 18.1795619,12.8776571 C18.2240762,11.9073905 18.2342095,11.5947048 18.2342095,9.11855238 C18.2342095,6.6424 18.2237143,6.33188571 18.1795619,5.35944762 C18.1354095,4.38700952 17.9808762,3.72653333 17.7557714,3.1464 C17.5266121,2.5381511 17.1677305,1.98710856 16.7040762,1.53158095 C16.2484529,1.06856599 15.6973926,0.710413828 15.0892571,0.482057143 C14.5091238,0.254780952 13.8464762,0.100609524 12.8762095,0.0564571429 C11.9059429,0.0123047619 11.5932571,0.00144761905 9.11710476,0.00144761905 L9.11855238,0 Z" id="Shape"></path>
                    <path d="M9.11710476,4.43695232 C7.22339501,4.43695232 5.51615891,5.57771494 4.79150137,7.32728863 C4.06684384,9.07686232 4.46747896,11.090686 5.80658572,12.4296893 C7.14569249,13.7686925 9.15954713,14.169172 10.9090648,13.4443792 C12.6585825,12.7195864 13.799213,11.0122621 13.7990667,9.11855238 C13.7991627,7.87682272 13.3059052,6.68592881 12.4278358,5.80792728 C11.5497664,4.92992576 10.3588344,4.43676038 9.11710476,4.43695232 Z M9.11710476,12.1574667 C7.43815912,12.1574667 6.07710476,10.7964123 6.07710476,9.11746667 C6.07710476,7.43852103 7.43815912,6.07746667 9.11710476,6.07746667 C10.7960504,6.07746667 12.1571048,7.43852103 12.1571048,9.11746667 C12.1571048,10.7964123 10.7960504,12.1574667 9.11710476,12.1574667 L9.11710476,12.1574667 Z" id="Shape"></path>
                    <circle id="Oval" cx="13.984" cy="4.25165714" r="1.0940381"></circle>
                </g>
            </g>
        </g>
    </g>
</svg>