<?xml version="1.0" encoding="UTF-8"?>
<svg width="48px" height="48px" viewBox="0 0 48 48" version="1.1" xmlns="http://www.w3.org/2000/svg" xmlns:xlink="http://www.w3.org/1999/xlink">
    <!-- Generator: Sketch 62 (91390) - https://sketch.com -->
    <title>twitter-mid-blue</title>
    <desc>Created with Sketch.</desc>
    <g id="BSD-Pages" stroke="none" stroke-width="1" fill="none" fill-rule="evenodd">
        <g id="BSD-Assets" transform="translate(-754.000000, -1522.000000)">
            <g id="twitter-mid-blue" transform="translate(754.000000, 1522.000000)">
                <circle id="Oval" fill="#00C3F2" cx="24" cy="24" r="24"></circle>
                <rect id="Rectangle" fill="#D8D8D8" x="23" y="23" width="2" height="2"></rect>
                <g id="twitter" transform="translate(15.000000, 16.000000)" fill="#FFFFFF" fill-rule="nonzero">
                    <path d="M6.21131176,16.0510188 C13.6646595,16.0510188 17.7405145,9.87629885 17.7405145,4.5221881 C17.7405145,4.34611982 17.7366158,4.17143493 17.7288185,3.99813343 C18.5219035,3.4245096 19.2064393,2.71416644 19.750334,1.9004056 C19.0108481,2.22803952 18.226425,2.44296739 17.4232143,2.53802431 C18.2689108,2.03144811 18.901767,1.23488061 19.2040192,0.296549295 C18.4086043,0.76858968 17.5383769,1.10124113 16.630907,1.28014219 C15.374894,-0.055042383 13.3793881,-0.381682031 11.7632248,0.483362776 C10.1470614,1.34840758 9.31211247,3.1900366 9.72651504,4.9756897 C6.4682505,4.81221956 3.43250045,3.2734315 1.37446448,0.742127816 C0.299103243,2.59376062 0.848384484,4.96236045 2.628951,6.15170007 C1.98496052,6.13220995 1.35507466,5.95830555 0.792307277,5.64462341 C0.792307277,5.66160143 0.792307277,5.67857944 0.792307277,5.69631203 C0.792693558,7.62525148 2.15230541,9.2867363 4.04303085,9.6687898 C3.44642493,9.83162638 2.820407,9.85537634 2.21317833,9.73821101 C2.74390315,11.3890409 4.26516306,12.5200553 5.99889795,12.5527883 C4.56354628,13.6795009 2.79098683,14.2907742 0.966237588,14.2883185 C0.643308759,14.2882918 0.320664858,14.2691423 0,14.2309706 C1.85281677,15.4212779 4.00909532,16.0531122 6.21131176,16.0510188" id="Path"></path>
                </g>
            </g>
        </g>
    </g>
</svg>