<?xml version="1.0" encoding="UTF-8"?>
<svg width="48px" height="48px" viewBox="0 0 48 48" version="1.1" xmlns="http://www.w3.org/2000/svg" xmlns:xlink="http://www.w3.org/1999/xlink">
    <!-- Generator: Sketch 62 (91390) - https://sketch.com -->
    <title>youtube-mid-blue</title>
    <desc>Created with Sketch.</desc>
    <g id="BSD-Pages" stroke="none" stroke-width="1" fill="none" fill-rule="evenodd">
        <g id="BSD-Assets" transform="translate(-812.000000, -1522.000000)">
            <g id="youtube-mid-blue" transform="translate(812.000000, 1522.000000)">
                <circle id="Oval" fill="#00C3F2" cx="24" cy="24" r="24"></circle>
                <g id="youtube" transform="translate(15.000000, 17.000000)" fill="#FFFFFF" fill-rule="nonzero">
                    <path d="M18.6030292,2.07698755 C18.3827311,1.25756745 17.742762,0.617453838 16.9233916,0.396970785 C15.4416707,-1.86517468e-14 9.5,-1.86517468e-14 9.5,-1.86517468e-14 C9.5,-1.86517468e-14 3.55870849,-1.86517468e-14 2.07698755,0.396970785 C1.25751163,0.617406603 0.617406603,1.25751163 0.396970785,2.07698755 C0,3.55870849 0,6.64992417 0,6.64992417 C0,6.64992417 0,9.741519 0.396970785,11.2228608 C0.617546132,12.0422561 1.25759228,12.6823022 2.07698755,12.9028776 C3.55870849,13.2998483 9.5,13.2998483 9.5,13.2998483 C9.5,13.2998483 15.4416707,13.2998483 16.9233916,12.9028776 C17.7427216,12.6823247 18.3826613,12.0422406 18.6030292,11.2228608 C19,9.74113985 19,6.64954502 19,6.64954502 C19,6.64954502 19,3.55870849 18.6030292,2.07698755 Z M7.60007583,9.5 L7.60007583,3.79984834 L12.5362388,6.65030332 L7.60007583,9.5 Z" id="Shape"></path>
                </g>
            </g>
        </g>
    </g>
</svg>