<?xml version="1.0" encoding="utf-8"?><svg width="204" height="170" viewBox="0 0 204 170" xmlns="http://www.w3.org/2000/svg" xmlns:xlink="http://www.w3.org/1999/xlink"><view id="avatar" viewBox="34 0 34 34"/><svg viewBox="-32.19 -32.19 547.29 547.29" width="34" height="34" x="34" xmlns="http://www.w3.org/2000/svg"><g fill="#fff"><path d="M239.7 260.2h3.2c29.3-.5 53-10.8 70.5-30.5 38.5-43.4 32.1-117.8 31.4-124.9-2.5-53.3-27.7-78.8-48.5-90.7C280.8 5.2 262.7.4 242.5 0h-1.7c-11.1 0-32.9 1.8-53.8 13.7-21 11.9-46.6 37.4-49.1 91.1-.7 7.1-7.1 81.5 31.4 124.9 17.4 19.7 41.1 30 70.4 30.5zm-75.1-152.9c0-.3.1-.6.1-.8 3.3-71.7 54.2-79.4 76-79.4h1.2c27 .6 72.9 11.6 76 79.4 0 .3 0 .6.1.8.1.7 7.1 68.7-24.7 104.5-12.6 14.2-29.4 21.2-51.5 21.4h-1c-22-.2-38.9-7.2-51.4-21.4-31.7-35.6-24.9-103.9-24.8-104.5z"/><path d="M446.8 383.6v-.3c0-.8-.1-1.6-.1-2.5-.6-19.8-1.9-66.1-45.3-80.9-.3-.1-.7-.2-1-.3-45.1-11.5-82.6-37.5-83-37.8-6.1-4.3-14.5-2.8-18.8 3.3-4.3 6.1-2.8 14.5 3.3 18.8 1.7 1.2 41.5 28.9 91.3 41.7 23.3 8.3 25.9 33.2 26.6 56 0 .9 0 1.7.1 2.5.1 9-.5 22.9-2.1 30.9-16.2 9.2-79.7 41-176.3 41-96.2 0-160.1-31.9-176.4-41.1-1.6-8-2.3-21.9-2.1-30.9 0-.8.1-1.6.1-2.5.7-22.8 3.3-47.7 26.6-56 49.8-12.8 89.6-40.6 91.3-41.7 6.1-4.3 7.6-12.7 3.3-18.8-4.3-6.1-12.7-7.6-18.8-3.3-.4.3-37.7 26.3-83 37.8-.4.1-.7.2-1 .3-43.4 14.9-44.7 61.2-45.3 80.9 0 .9 0 1.7-.1 2.5v.3c-.1 5.2-.2 31.9 5.1 45.3 1 2.6 2.8 4.8 5.2 6.3 3 2 74.9 47.8 195.2 47.8s192.2-45.9 195.2-47.8c2.3-1.5 4.2-3.7 5.2-6.3 5-13.3 4.9-40 4.8-45.2z"/></g></svg><view id="bookmark" viewBox="34 102 34 34"/><svg viewBox="-32.45 -32.45 551.71 551.71" width="34" height="34" x="34" y="102" xmlns="http://www.w3.org/2000/svg"><g fill="#858585"><path d="M486.801 470V17c0-9.3-7.6-16.9-16.9-16.9h-64.3c-6.8 0-12.3 5.5-12.3 12.3s5.5 12.2 12.3 12.2h56.7v437.8h-437.8V24.6h57.2c6.8 0 12.3-5.5 12.3-12.2S88.501.1 81.701.1h-64.8C7.601.1.001 7.7.001 17v452.9c0 9.3 7.6 16.9 16.9 16.9h452.9c9.4.1 17-7.5 17-16.8z"/><path d="M163.201 392.9c5.8 0 11.3-2.2 15.7-6.1l63.6-57.4 63.6 57.4c4.3 3.9 9.9 6.1 15.7 6.1 13 0 23.6-10.6 23.6-23.6v-357c0-6.8-5.5-12.3-12.3-12.3h-181.3c-6.8 0-12.3 5.5-12.3 12.3v357c.1 13.1 10.6 23.6 23.7 23.6zm.9-368.3H321v342.6l-62.7-56.5c-8.7-7.8-22.9-7.8-31.5 0l-62.7 56.5.001-342.6z"/></g></svg><view id="card" viewBox="0 34 34 34"/><svg viewBox="-6.69 -6.69 113.73 113.73" width="34" height="34" y="34" xmlns="http://www.w3.org/2000/svg"><path d="M89.381 19.52h-78.76c-3.983 0-7.224 3.241-7.224 7.224v46.513c0 3.983 3.241 7.223 7.224 7.223h78.76c3.983 0 7.223-3.24 7.223-7.223V26.744c0-3.983-3.24-7.224-7.223-7.224zM6.396 26.744a4.229 4.229 0 014.224-4.224h78.76a4.228 4.228 0 014.223 4.224v3.328H6.396v-3.328zm87.208 46.512a4.229 4.229 0 01-4.223 4.223h-78.76a4.229 4.229 0 01-4.224-4.223V43.475h87.207v29.781zm0-32.781H6.397v-7.404h87.207v7.404z"/><path d="M17.894 71.566a5.235 5.235 0 005.231-5.227 5.237 5.237 0 00-5.231-5.231 5.236 5.236 0 00-5.229 5.231 5.234 5.234 0 005.229 5.227zm0-7.458a2.234 2.234 0 012.231 2.231 2.23 2.23 0 01-4.46 0c0-1.23 1-2.231 2.229-2.231zm11.186 3.907h42.264a1.5 1.5 0 100-3H29.08a1.5 1.5 0 100 3z"/></svg><view id="close" viewBox="34 34 34 34"/><svg viewBox="-32.65 -32.65 555.11 555.11" width="34" height="34" x="34" y="34" xmlns="http://www.w3.org/2000/svg"><g fill="#858585"><path d="M438.2 0H51.6C23.1 0 0 23.2 0 51.6v386.6c0 28.5 23.2 51.6 51.6 51.6h386.6c28.5 0 51.6-23.2 51.6-51.6V51.6c0-28.4-23.2-51.6-51.6-51.6zm27.1 438.2c0 14.9-12.2 27.1-27.1 27.1H51.6c-14.9 0-27.1-12.2-27.1-27.1V51.6c0-14.9 12.2-27.1 27.1-27.1h386.6c14.9 0 27.1 12.2 27.1 27.1v386.6z"/><path d="M319 170.8c-4.8-4.8-12.5-4.8-17.3 0l-56.8 56.8-56.8-56.8c-4.8-4.8-12.5-4.8-17.3 0s-4.8 12.5 0 17.3l56.8 56.8-56.8 56.8c-4.8 4.8-4.8 12.5 0 17.3 2.4 2.4 5.5 3.6 8.7 3.6s6.3-1.2 8.7-3.6l56.8-56.8 56.8 56.8c2.4 2.4 5.5 3.6 8.7 3.6s6.3-1.2 8.7-3.6c4.8-4.8 4.8-12.5 0-17.3l-57-56.8 56.8-56.8c4.8-4.8 4.8-12.5 0-17.3z"/></g></svg><view id="cursor" viewBox="68 0 34 34"/><svg viewBox="-32.69 -32.69 555.74 555.74" width="34" height="34" x="68" xmlns="http://www.w3.org/2000/svg"><path fill="#858585" d="M490.363 245.151c0-17-9.7-31.6-25.4-38.1l-407.7-170c-16-6.7-34.1-2.8-46 9.8s-14.6 30.9-7 46.5l65 132.5c1.9 3.9 5.7 6.5 10 6.8l230.7 18.9c6.8.6 12.7-4.5 13.2-11.2.6-6.7-4.5-12.7-11.2-13.2l-223.8-18.4-61.9-126.2c-4.8-9.7 1-16.9 2.8-18.9 1.9-2 8.7-8.2 18.7-4l407.7 170c9.6 4 10.3 12.9 10.3 15.5s-.7 11.5-10.3 15.5l-407.7 170c-10 4.2-16.8-2-18.7-4s-7.6-9.2-2.8-18.9l65-132.5c3-6.1.5-13.4-5.6-16.4-6.1-3-13.4-.5-16.4 5.6l-65 132.5c-7.6 15.6-4.9 33.8 7 46.5 8 8.5 18.8 13.1 29.9 13.1 5.4 0 10.8-1.1 16-3.2l407.7-170c15.8-6.6 25.5-21.2 25.5-38.2z"/></svg><view id="edit" viewBox="68 34 34 34"/><svg viewBox="-32.69 -32.69 555.72 555.72" width="34" height="34" x="68" y="34" xmlns="http://www.w3.org/2000/svg"><g fill="#858585"><path d="M229.9 145.379l-47.5 47.5c-17.5 17.5-35.1 35-52.5 52.7-4.1 4.2-7.2 9.8-8.4 15.3-6.3 28.9-12.4 57.8-18.5 86.7l-3.4 16c-1.6 7.8.5 15.6 5.8 20.9 4.1 4.1 9.8 6.4 15.8 6.4 1.7 0 3.4-.2 5.1-.5l17.6-3.7c28-5.9 56.1-11.9 84.1-17.7 6.5-1.4 12-4.3 16.7-9 78.6-78.7 157.2-157.3 235.8-235.8 5.8-5.8 9-12.7 9.8-21.2.1-1.4 0-2.8-.3-4.1-.5-2-.9-4.1-1.4-6.1-1.1-5.1-2.3-10.9-4.7-16.5-14.7-33.6-39.1-57.6-72.5-71.1-6.7-2.7-13.8-3.6-20-4.4l-1.7-.2c-9-1.1-17.2 1.9-24.3 9.1-45 45.2-90.3 90.5-135.5 135.7zm156.5-120.7h.5l1.7.2c5.2.6 10 1.2 13.8 2.8 27.2 11 47.2 30.6 59.3 58.2 1.4 3.2 2.3 7.3 3.2 11.6.3 1.6.7 3.2 1 4.8-.4 1.8-1.1 3-2.5 4.3-78.7 78.5-157.3 157.2-235.9 235.8-1.3 1.3-2.5 1.9-4.3 2.3-28.1 5.9-56.1 11.8-84.2 17.7l-14.8 3.1 2.8-13.1c6.1-28.8 12.2-57.7 18.4-86.5.2-.9 1-2.3 1.9-3.3 17.4-17.6 34.8-35.1 52.3-52.5l47.5-47.5c45.3-45.3 90.6-90.6 135.8-136 1.9-1.6 2.8-1.9 3.5-1.9z"/><path d="M38.9 109.379h174.6c6.8 0 12.3-5.5 12.3-12.3s-5.5-12.3-12.3-12.3H38.9c-21.5 0-38.9 17.5-38.9 38.9v327.4c0 21.5 17.5 38.9 38.9 38.9h327.3c21.5 0 38.9-17.5 38.9-38.9v-167.5c0-6.8-5.5-12.3-12.3-12.3s-12.3 5.5-12.3 12.3v167.5c0 7.9-6.5 14.4-14.4 14.4H38.9c-7.9 0-14.4-6.5-14.4-14.4v-327.3c0-7.9 6.5-14.4 14.4-14.4z"/></g></svg><view id="envelope" viewBox="0 68 34 34"/><svg viewBox="-32.22 -32.22 547.74 547.74" width="34" height="34" y="68" xmlns="http://www.w3.org/2000/svg"><g fill="#fff"><path d="M424.3 57.75H59.1c-32.6 0-59.1 26.5-59.1 59.1v249.6c0 32.6 26.5 59.1 59.1 59.1h365.1c32.6 0 59.1-26.5 59.1-59.1v-249.5c.1-32.6-26.4-59.2-59-59.2zm32.1 308.7c0 17.7-14.4 32.1-32.1 32.1H59.1c-17.7 0-32.1-14.4-32.1-32.1v-249.5c0-17.7 14.4-32.1 32.1-32.1h365.1c17.7 0 32.1 14.4 32.1 32.1v249.5h.1z"/><path d="M304.8 238.55l118.2-106c5.5-5 6-13.5 1-19.1-5-5.5-13.5-6-19.1-1l-163 146.3-31.8-28.4c-.1-.1-.2-.2-.2-.3-.7-.7-1.4-1.3-2.2-1.9L78.3 112.35c-5.6-5-14.1-4.5-19.1 1.1-5 5.6-4.5 14.1 1.1 19.1l119.6 106.9-119.1 111.5c-5.4 5.1-5.7 13.6-.6 19.1 2.7 2.8 6.3 4.3 9.9 4.3 3.3 0 6.6-1.2 9.2-3.6l120.9-113.1 32.8 29.3c2.6 2.3 5.8 3.4 9 3.4s6.5-1.2 9-3.5l33.7-30.2 120.2 114.2c2.6 2.5 6 3.7 9.3 3.7 3.6 0 7.1-1.4 9.8-4.2 5.1-5.4 4.9-14-.5-19.1l-118.7-112.7z"/></g></svg><view id="heart" viewBox="34 68 34 34"/><svg viewBox="-31.45 -31.45 534.59 534.59" width="34" height="34" x="34" y="68" xmlns="http://www.w3.org/2000/svg"><path fill="#fff" d="M433.601 67.001c-24.7-24.7-57.4-38.2-92.3-38.2s-67.7 13.6-92.4 38.3l-12.9 12.9-13.1-13.1c-24.7-24.7-57.6-38.4-92.5-38.4-34.8 0-67.6 13.6-92.2 38.2-24.7 24.7-38.3 57.5-38.2 92.4 0 34.9 13.7 67.6 38.4 92.3l187.8 187.8c2.6 2.6 6.1 4 9.5 4 3.4 0 6.9-1.3 9.5-3.9l188.2-187.5c24.7-24.7 38.3-57.5 38.3-92.4.1-34.9-13.4-67.7-38.1-92.4zm-19.2 165.7l-178.7 178-178.3-178.3c-19.6-19.6-30.4-45.6-30.4-73.3s10.7-53.7 30.3-73.2c19.5-19.5 45.5-30.3 73.1-30.3 27.7 0 53.8 10.8 73.4 30.4l22.6 22.6c5.3 5.3 13.8 5.3 19.1 0l22.4-22.4c19.6-19.6 45.7-30.4 73.3-30.4 27.6 0 53.6 10.8 73.2 30.3 19.6 19.6 30.3 45.6 30.3 73.3.1 27.7-10.7 53.7-30.3 73.3z"/></svg><view id="heart-gray" viewBox="68 68 34 34"/><svg viewBox="-32.69 -32.69 555.79 555.79" width="34" height="34" x="68" y="68" xmlns="http://www.w3.org/2000/svg"><path fill="#858585" d="M222.5 453.7c6.1 6.1 14.3 9.5 22.9 9.5 8.5 0 16.9-3.5 22.9-9.5L448 274c27.3-27.3 42.3-63.6 42.4-102.1 0-38.6-15-74.9-42.3-102.2S384.6 27.4 346 27.4c-37.9 0-73.6 14.5-100.7 40.9-27.2-26.5-63-41.1-101-41.1-38.5 0-74.7 15-102 42.2C15 96.7 0 133 0 171.6c0 38.5 15.1 74.8 42.4 102.1l180.1 180zM59.7 86.8c22.6-22.6 52.7-35.1 84.7-35.1s62.2 12.5 84.9 35.2l7.4 7.4c2.3 2.3 5.4 3.6 8.7 3.6 3.2 0 6.4-1.3 8.7-3.6l7.2-7.2c22.7-22.7 52.8-35.2 84.9-35.2 32 0 62.1 12.5 84.7 35.1 22.7 22.7 35.1 52.8 35.1 84.8s-12.5 62.1-35.2 84.8L251 436.4c-2.9 2.9-8.2 2.9-11.2 0l-180-180c-22.7-22.7-35.2-52.8-35.2-84.8s12.5-62.1 35.1-84.8z"/></svg><view id="heart-sticker" viewBox="102 0 34 34"/><svg viewBox="-32.57 -32.57 553.75 553.75" width="34" height="34" x="102" xmlns="http://www.w3.org/2000/svg"><g fill="#fff"><path d="M467.1 252.1c-4.1-5.6-4.2-13.3-.1-19l8.5-12.1c6.7-9.5 9.1-21.5 6.4-32.9s-10.1-21.1-20.4-26.6l-13-7c-6.2-3.3-9.5-10.1-8.4-17l2.4-14.6c1.9-11.5-1.2-23.3-8.5-32.4-7.4-9.1-18.3-14.6-29.9-15.1l-14.8-.5c-7-.3-13-5-14.9-11.7L370.3 49c-5-17.3-21.1-29.4-39.2-29.4-5.5 0-11 1.1-16.1 3.3l-13.6 5.8c-6.3 2.7-14 1-18.5-4.1l-9.9-11C265.3 5 254.2 0 242.7 0c-11.8 0-23 5.1-30.8 14l-9.6 11.3c-4.5 5.2-12.1 7-18.5 4.4l-13.7-5.6c-5-2-10.2-3.1-15.5-3.1-18.3 0-34.5 12.3-39.3 30l-3.9 14.2c-1.8 6.7-7.8 11.5-14.7 11.9L82 78c-11.7.7-22.5 6.3-29.7 15.5s-10.1 21-8 32.5l2.7 14.5c1.3 6.9-2 13.8-8.1 17.2L26 164.9c-10.2 5.7-17.5 15.5-20 26.9s0 23.4 6.9 32.8l8.7 11.9c4.1 5.6 4.2 13.3.1 19l-8.5 12.1c-6.7 9.5-9.1 21.5-6.4 32.9s10.1 21 20.4 26.6l13 7c6.2 3.3 9.5 10.1 8.4 17l-2.5 14.6c-1.9 11.5 1.2 23.3 8.5 32.4 7.4 9.1 18.3 14.6 29.9 15.1l14.8.6c7 .3 13 5 14.9 11.7l4.1 14.2c5 17.3 21.1 29.4 39.2 29.4 5.5 0 11-1.1 16.1-3.3l13.6-5.8c6.3-2.7 14-1 18.5 4.1l9.9 11c7.7 8.6 18.8 13.5 30.3 13.5 11.8 0 23-5.1 30.8-14l9.6-11.3c4.5-5.2 12.1-7 18.5-4.4l13.7 5.6c5 2 10.2 3.1 15.5 3.1 18.3 0 34.5-12.3 39.3-30l3.9-14.2c1.8-6.7 7.8-11.5 14.7-11.9l14.7-.8c11.7-.7 22.5-6.3 29.7-15.5s10.1-21 8-32.5l-2.7-14.5c-1.3-6.9 2-13.8 8.1-17.1l12.9-7.2c10.2-5.7 17.5-15.5 20-26.9s0-23.4-6.9-32.8l-8.6-12.1zm-8.3 39.5c-1 4.6-3.9 8.4-8 10.7l-12.9 7.2c-15.3 8.5-23.5 25.8-20.3 43l2.7 14.5c.9 4.6-.3 9.3-3.2 13-2.9 3.7-7.1 5.9-11.8 6.2l-14.7.8c-17.5 1-32.3 13-37 29.9l-3.9 14.2c-1.9 7.1-8.4 12-15.7 12-2.1 0-4.2-.4-6.2-1.2l-13.7-5.6c-5-2-10.2-3.1-15.5-3.1-11.8 0-23 5.1-30.8 14l-9.7 11.1c-3.1 3.6-7.5 5.6-12.3 5.6-4.7 0-9-1.9-12.1-5.4l-9.9-11c-7.7-8.6-18.8-13.6-30.4-13.6-5.6 0-11 1.1-16.1 3.3l-13.6 5.8c-2.1.9-4.2 1.3-6.4 1.3-7.2 0-13.6-4.8-15.6-11.7l-4.1-14.2a40.86 40.86 0 00-37.4-29.4l-14.8-.6c-4.7-.2-9-2.3-11.9-6-3-3.7-4.2-8.3-3.4-12.9l2.5-14.6c2.9-17.3-5.5-34.4-21-42.7l-13-7c-4.2-2.2-7.1-6-8.1-10.6-1.1-4.6-.2-9.3 2.5-13.1l8.5-12.1c10.1-14.3 10-33.4-.4-47.6l-8.7-11.9c-2.8-3.8-3.8-8.5-2.7-13.1 1-4.6 3.9-8.4 8-10.7l12.9-7.2c15.3-8.5 23.5-25.8 20.3-43l-2.6-14.3c-.9-4.7.3-9.3 3.2-13 2.9-3.7 7.1-5.9 11.8-6.2l14.7-.9c17.5-1 32.3-13 37-29.9l3.9-14.3c1.9-7 8.4-12 15.7-12 2.1 0 4.2.4 6.2 1.2l13.7 5.6c5 2 10.2 3.1 15.5 3.1 11.8 0 23-5.1 30.8-14l9.7-11.1c3.1-3.6 7.5-5.6 12.3-5.6 4.7 0 9 1.9 12.1 5.4l9.9 11c7.7 8.6 18.8 13.6 30.4 13.6 5.6 0 11-1.1 16.1-3.3l13.6-5.8c2.1-.9 4.2-1.3 6.4-1.3 7.2 0 13.6 4.8 15.6 11.7L351 70a40.86 40.86 0 0037.4 29.4l14.8.6c4.7.2 9 2.3 11.9 6 3 3.7 4.2 8.3 3.4 12.9l-2.4 14.6c-2.9 17.3 5.5 34.4 21 42.7l13 7c4.2 2.2 7.1 6 8.2 10.6s.2 9.3-2.5 13.1l-8.5 12.1c-10.1 14.3-10 33.4.4 47.6l8.7 11.9c2.4 3.8 3.4 8.4 2.4 13.1z"/><path d="M287.6 162.7c-15.9 0-31.1 5.4-43.3 15.2-12.3-9.9-27.4-15.3-43.4-15.3-18.4 0-35.7 7.2-48.8 20.2s-20.2 30.4-20.2 48.8 7.2 35.7 20.3 48.8l77.3 77.3c3.9 4 9.2 6.1 14.8 6.1 5.6 0 10.9-2.2 14.8-6.1l77.2-77.2c13-13 20.2-30.4 20.3-48.8 0-18.5-7.2-35.8-20.2-48.9-13-12.9-30.3-20.1-48.8-20.1zM319 263.3L244.3 338l-74.8-74.8c-8.4-8.4-13.1-19.6-13.1-31.5s4.6-23.1 13-31.5 19.6-13 31.4-13c11.9 0 23.1 4.7 31.6 13.1l3.2 3.2c4.6 4.6 12.7 4.6 17.3 0l3.1-3.1c8.4-8.4 19.6-13.1 31.5-13.1s23.1 4.6 31.5 13 13 19.6 13 31.5c.1 11.9-4.5 23.1-13 31.5z"/></g></svg><view id="list" viewBox="102 34 34 34"/><svg viewBox="-32.67 -32.67 555.45 555.45" width="34" height="34" x="102" y="34" xmlns="http://www.w3.org/2000/svg"><path d="M32.1 141.15h76.7c17.7 0 32.1-14.4 32.1-32.1v-76.7c0-17.7-14.4-32.1-32.1-32.1H32.1C14.4.25 0 14.65 0 32.35v76.7c0 17.7 14.4 32.1 32.1 32.1zm-7.6-108.8c0-4.2 3.4-7.6 7.6-7.6h76.7c4.2 0 7.6 3.4 7.6 7.6v76.7c0 4.2-3.4 7.6-7.6 7.6H32.1c-4.2 0-7.6-3.4-7.6-7.6v-76.7zM0 283.45c0 17.7 14.4 32.1 32.1 32.1h76.7c17.7 0 32.1-14.4 32.1-32.1v-76.7c0-17.7-14.4-32.1-32.1-32.1H32.1c-17.7 0-32.1 14.4-32.1 32.1v76.7zm24.5-76.8c0-4.2 3.4-7.6 7.6-7.6h76.7c4.2 0 7.6 3.4 7.6 7.6v76.7c0 4.2-3.4 7.6-7.6 7.6H32.1c-4.2 0-7.6-3.4-7.6-7.6v-76.7zM0 457.75c0 17.7 14.4 32.1 32.1 32.1h76.7c17.7 0 32.1-14.4 32.1-32.1v-76.7c0-17.7-14.4-32.1-32.1-32.1H32.1c-17.7 0-32.1 14.4-32.1 32.1v76.7zm24.5-76.7c0-4.2 3.4-7.6 7.6-7.6h76.7c4.2 0 7.6 3.4 7.6 7.6v76.7c0 4.2-3.4 7.6-7.6 7.6H32.1c-4.2 0-7.6-3.4-7.6-7.6v-76.7zm453.3-349.3H202.3c-6.8 0-12.3 5.5-12.3 12.3 0 6.8 5.5 12.3 12.3 12.3h275.5c6.8 0 12.3-5.5 12.3-12.3 0-6.8-5.5-12.3-12.3-12.3zm0 53.4H202.3c-6.8 0-12.3 5.5-12.3 12.3s5.5 12.3 12.3 12.3h275.5c6.8 0 12.3-5.5 12.3-12.3-.1-6.8-5.5-12.3-12.3-12.3zm0 120.9H202.3c-6.8 0-12.3 5.5-12.3 12.3s5.5 12.3 12.3 12.3h275.5c6.8 0 12.3-5.5 12.3-12.3-.1-6.8-5.5-12.3-12.3-12.3zm0 53.5H202.3c-6.8 0-12.3 5.5-12.3 12.3s5.5 12.3 12.3 12.3h275.5c6.8 0 12.3-5.5 12.3-12.3-.1-6.8-5.5-12.3-12.3-12.3zm0 120.9H202.3c-6.8 0-12.3 5.5-12.3 12.3s5.5 12.3 12.3 12.3h275.5c6.8 0 12.3-5.5 12.3-12.3-.1-6.8-5.5-12.3-12.3-12.3zm12.2 65.7c0-6.8-5.5-12.3-12.3-12.3H202.3c-6.8 0-12.3 5.5-12.3 12.3s5.5 12.3 12.3 12.3h275.5c6.8-.1 12.2-5.6 12.2-12.3z"/></svg><view id="list-white" viewBox="102 68 34 34"/><svg viewBox="-32.67 -32.67 555.45 555.45" width="34" height="34" x="102" y="68" xmlns="http://www.w3.org/2000/svg"><path d="M32.1 141.15h76.7c17.7 0 32.1-14.4 32.1-32.1v-76.7c0-17.7-14.4-32.1-32.1-32.1H32.1C14.4.25 0 14.65 0 32.35v76.7c0 17.7 14.4 32.1 32.1 32.1zm-7.6-108.8c0-4.2 3.4-7.6 7.6-7.6h76.7c4.2 0 7.6 3.4 7.6 7.6v76.7c0 4.2-3.4 7.6-7.6 7.6H32.1c-4.2 0-7.6-3.4-7.6-7.6v-76.7zM0 283.45c0 17.7 14.4 32.1 32.1 32.1h76.7c17.7 0 32.1-14.4 32.1-32.1v-76.7c0-17.7-14.4-32.1-32.1-32.1H32.1c-17.7 0-32.1 14.4-32.1 32.1v76.7zm24.5-76.8c0-4.2 3.4-7.6 7.6-7.6h76.7c4.2 0 7.6 3.4 7.6 7.6v76.7c0 4.2-3.4 7.6-7.6 7.6H32.1c-4.2 0-7.6-3.4-7.6-7.6v-76.7zM0 457.75c0 17.7 14.4 32.1 32.1 32.1h76.7c17.7 0 32.1-14.4 32.1-32.1v-76.7c0-17.7-14.4-32.1-32.1-32.1H32.1c-17.7 0-32.1 14.4-32.1 32.1v76.7zm24.5-76.7c0-4.2 3.4-7.6 7.6-7.6h76.7c4.2 0 7.6 3.4 7.6 7.6v76.7c0 4.2-3.4 7.6-7.6 7.6H32.1c-4.2 0-7.6-3.4-7.6-7.6v-76.7zm453.3-349.3H202.3c-6.8 0-12.3 5.5-12.3 12.3 0 6.8 5.5 12.3 12.3 12.3h275.5c6.8 0 12.3-5.5 12.3-12.3 0-6.8-5.5-12.3-12.3-12.3zm0 53.4H202.3c-6.8 0-12.3 5.5-12.3 12.3s5.5 12.3 12.3 12.3h275.5c6.8 0 12.3-5.5 12.3-12.3-.1-6.8-5.5-12.3-12.3-12.3zm0 120.9H202.3c-6.8 0-12.3 5.5-12.3 12.3s5.5 12.3 12.3 12.3h275.5c6.8 0 12.3-5.5 12.3-12.3-.1-6.8-5.5-12.3-12.3-12.3zm0 53.5H202.3c-6.8 0-12.3 5.5-12.3 12.3s5.5 12.3 12.3 12.3h275.5c6.8 0 12.3-5.5 12.3-12.3-.1-6.8-5.5-12.3-12.3-12.3zm0 120.9H202.3c-6.8 0-12.3 5.5-12.3 12.3s5.5 12.3 12.3 12.3h275.5c6.8 0 12.3-5.5 12.3-12.3-.1-6.8-5.5-12.3-12.3-12.3zm12.2 65.7c0-6.8-5.5-12.3-12.3-12.3H202.3c-6.8 0-12.3 5.5-12.3 12.3s5.5 12.3 12.3 12.3h275.5c6.8-.1 12.2-5.6 12.2-12.3z" fill="#fff"/></svg><view id="magnifying-glass" viewBox="0 102 34 34"/><svg viewBox="-30.07 -30.07 511.13 511.13" width="34" height="34" y="102" xmlns="http://www.w3.org/2000/svg"><path fill="#fff" d="M447.05 428l-109.6-109.6c29.4-33.8 47.2-77.9 47.2-126.1C384.65 86.2 298.35 0 192.35 0 86.25 0 .05 86.3.05 192.3s86.3 192.3 192.3 192.3c48.2 0 92.3-17.8 126.1-47.2L428.05 447c2.6 2.6 6.1 4 9.5 4s6.9-1.3 9.5-4c5.2-5.2 5.2-13.8 0-19zM26.95 192.3c0-91.2 74.2-165.3 165.3-165.3 91.2 0 165.3 74.2 165.3 165.3s-74.1 165.4-165.3 165.4c-91.1 0-165.3-74.2-165.3-165.4z"/></svg><view id="menu" viewBox="0 0 34 34"/><svg viewBox="-32.45 -32.45 551.71 551.71" width="34" height="34" xmlns="http://www.w3.org/2000/svg"><path d="M140.35 32c0-17.6-14.4-32-32-32h-76.3c-17.6 0-32 14.4-32 32v76.2c0 17.6 14.4 32 32 32h76.2c17.6 0 32-14.4 32-32V32h.1zm-24.5 76.3c0 4.1-3.4 7.5-7.5 7.5h-76.3c-4.1 0-7.5-3.4-7.5-7.5V32c0-4.1 3.4-7.5 7.5-7.5h76.2c4.1 0 7.5 3.4 7.5 7.5v76.3h.1zm24.5 97c0-17.6-14.4-32-32-32h-76.3c-17.6 0-32 14.4-32 32v76.2c0 17.6 14.4 32 32 32h76.2c17.6 0 32-14.4 32-32v-76.2h.1zm-24.5 76.2c0 4.1-3.4 7.5-7.5 7.5h-76.3c-4.1 0-7.5-3.4-7.5-7.5v-76.2c0-4.1 3.4-7.5 7.5-7.5h76.2c4.1 0 7.5 3.4 7.5 7.5v76.2h.1zm-7.5 65h-76.3c-17.6 0-32 14.4-32 32v76.2c0 17.6 14.4 32 32 32h76.2c17.6 0 32-14.4 32-32v-76.2c.1-17.6-14.3-32-31.9-32zm7.5 108.3c0 4.1-3.4 7.5-7.5 7.5h-76.3c-4.1 0-7.5-3.4-7.5-7.5v-76.2c0-4.1 3.4-7.5 7.5-7.5h76.2c4.1 0 7.5 3.4 7.5 7.5v76.2h.1zm57.5-173.3c0 17.6 14.4 32 32 32h76.2c17.6 0 32-14.4 32-32v-76.2c0-17.6-14.4-32-32-32h-76.2c-17.6 0-32 14.4-32 32v76.2zm24.5-76.2c0-4.1 3.4-7.5 7.5-7.5h76.2c4.1 0 7.5 3.4 7.5 7.5v76.2c0 4.1-3.4 7.5-7.5 7.5h-76.2c-4.1 0-7.5-3.4-7.5-7.5v-76.2zm-24.5 249.5c0 17.6 14.4 32 32 32h76.2c17.6 0 32-14.4 32-32v-76.2c0-17.6-14.4-32-32-32h-76.2c-17.6 0-32 14.4-32 32v76.2zm24.5-76.3c0-4.1 3.4-7.5 7.5-7.5h76.2c4.1 0 7.5 3.4 7.5 7.5v76.2c0 4.1-3.4 7.5-7.5 7.5h-76.2c-4.1 0-7.5-3.4-7.5-7.5v-76.2zm148.7-97c0 17.6 14.4 32 32 32h76.2c17.6 0 32-14.4 32-32v-76.2c0-17.6-14.4-32-32-32h-76.2c-17.6 0-32 14.4-32 32v76.2zm24.5-76.2c0-4.1 3.4-7.5 7.5-7.5h76.2c4.1 0 7.5 3.4 7.5 7.5v76.2c0 4.1-3.4 7.5-7.5 7.5h-76.2c-4.1 0-7.5-3.4-7.5-7.5v-76.2zm-24.5 249.5c0 17.6 14.4 32 32 32h76.2c17.6 0 32-14.4 32-32v-76.2c0-17.6-14.4-32-32-32h-76.2c-17.6 0-32 14.4-32 32v76.2zm24.5-76.3c0-4.1 3.4-7.5 7.5-7.5h76.2c4.1 0 7.5 3.4 7.5 7.5v76.2c0 4.1-3.4 7.5-7.5 7.5h-76.2c-4.1 0-7.5-3.4-7.5-7.5v-76.2zM173.35 32v76.2c0 17.6 14.4 32 32 32h76.2c17.6 0 32-14.4 32-32V32c0-17.6-14.4-32-32-32h-76.2c-17.7 0-32 14.4-32 32zm24.5 0c0-4.1 3.4-7.5 7.5-7.5h76.2c4.1 0 7.5 3.4 7.5 7.5v76.2c0 4.1-3.4 7.5-7.5 7.5h-76.2c-4.1 0-7.5-3.4-7.5-7.5V32zm180.7 108.3h76.2c17.6 0 32-14.4 32-32V32c0-17.6-14.4-32-32-32h-76.2c-17.6 0-32 14.4-32 32v76.2c0 17.7 14.4 32.1 32 32.1zM371.05 32c0-4.1 3.4-7.5 7.5-7.5h76.2c4.1 0 7.5 3.4 7.5 7.5v76.2c0 4.1-3.4 7.5-7.5 7.5h-76.2c-4.1 0-7.5-3.4-7.5-7.5V32z"/></svg><view id="menu-white" viewBox="68 102 34 34"/><svg viewBox="-32.45 -32.45 551.71 551.71" width="34" height="34" x="68" y="102" xmlns="http://www.w3.org/2000/svg"><path d="M140.35 32c0-17.6-14.4-32-32-32h-76.3c-17.6 0-32 14.4-32 32v76.2c0 17.6 14.4 32 32 32h76.2c17.6 0 32-14.4 32-32V32h.1zm-24.5 76.3c0 4.1-3.4 7.5-7.5 7.5h-76.3c-4.1 0-7.5-3.4-7.5-7.5V32c0-4.1 3.4-7.5 7.5-7.5h76.2c4.1 0 7.5 3.4 7.5 7.5v76.3h.1zm24.5 97c0-17.6-14.4-32-32-32h-76.3c-17.6 0-32 14.4-32 32v76.2c0 17.6 14.4 32 32 32h76.2c17.6 0 32-14.4 32-32v-76.2h.1zm-24.5 76.2c0 4.1-3.4 7.5-7.5 7.5h-76.3c-4.1 0-7.5-3.4-7.5-7.5v-76.2c0-4.1 3.4-7.5 7.5-7.5h76.2c4.1 0 7.5 3.4 7.5 7.5v76.2h.1zm-7.5 65h-76.3c-17.6 0-32 14.4-32 32v76.2c0 17.6 14.4 32 32 32h76.2c17.6 0 32-14.4 32-32v-76.2c.1-17.6-14.3-32-31.9-32zm7.5 108.3c0 4.1-3.4 7.5-7.5 7.5h-76.3c-4.1 0-7.5-3.4-7.5-7.5v-76.2c0-4.1 3.4-7.5 7.5-7.5h76.2c4.1 0 7.5 3.4 7.5 7.5v76.2h.1zm57.5-173.3c0 17.6 14.4 32 32 32h76.2c17.6 0 32-14.4 32-32v-76.2c0-17.6-14.4-32-32-32h-76.2c-17.6 0-32 14.4-32 32v76.2zm24.5-76.2c0-4.1 3.4-7.5 7.5-7.5h76.2c4.1 0 7.5 3.4 7.5 7.5v76.2c0 4.1-3.4 7.5-7.5 7.5h-76.2c-4.1 0-7.5-3.4-7.5-7.5v-76.2zm-24.5 249.5c0 17.6 14.4 32 32 32h76.2c17.6 0 32-14.4 32-32v-76.2c0-17.6-14.4-32-32-32h-76.2c-17.6 0-32 14.4-32 32v76.2zm24.5-76.3c0-4.1 3.4-7.5 7.5-7.5h76.2c4.1 0 7.5 3.4 7.5 7.5v76.2c0 4.1-3.4 7.5-7.5 7.5h-76.2c-4.1 0-7.5-3.4-7.5-7.5v-76.2zm148.7-97c0 17.6 14.4 32 32 32h76.2c17.6 0 32-14.4 32-32v-76.2c0-17.6-14.4-32-32-32h-76.2c-17.6 0-32 14.4-32 32v76.2zm24.5-76.2c0-4.1 3.4-7.5 7.5-7.5h76.2c4.1 0 7.5 3.4 7.5 7.5v76.2c0 4.1-3.4 7.5-7.5 7.5h-76.2c-4.1 0-7.5-3.4-7.5-7.5v-76.2zm-24.5 249.5c0 17.6 14.4 32 32 32h76.2c17.6 0 32-14.4 32-32v-76.2c0-17.6-14.4-32-32-32h-76.2c-17.6 0-32 14.4-32 32v76.2zm24.5-76.3c0-4.1 3.4-7.5 7.5-7.5h76.2c4.1 0 7.5 3.4 7.5 7.5v76.2c0 4.1-3.4 7.5-7.5 7.5h-76.2c-4.1 0-7.5-3.4-7.5-7.5v-76.2zM173.35 32v76.2c0 17.6 14.4 32 32 32h76.2c17.6 0 32-14.4 32-32V32c0-17.6-14.4-32-32-32h-76.2c-17.7 0-32 14.4-32 32zm24.5 0c0-4.1 3.4-7.5 7.5-7.5h76.2c4.1 0 7.5 3.4 7.5 7.5v76.2c0 4.1-3.4 7.5-7.5 7.5h-76.2c-4.1 0-7.5-3.4-7.5-7.5V32zm180.7 108.3h76.2c17.6 0 32-14.4 32-32V32c0-17.6-14.4-32-32-32h-76.2c-17.6 0-32 14.4-32 32v76.2c0 17.7 14.4 32.1 32 32.1zM371.05 32c0-4.1 3.4-7.5 7.5-7.5h76.2c4.1 0 7.5 3.4 7.5 7.5v76.2c0 4.1-3.4 7.5-7.5 7.5h-76.2c-4.1 0-7.5-3.4-7.5-7.5V32z" fill="#fff"/></svg><view id="padlock" viewBox="102 102 34 34"/><svg viewBox="-32.19 -32.19 547.17 547.17" width="34" height="34" x="102" y="102" xmlns="http://www.w3.org/2000/svg"><g fill="#fff"><path d="M395.95 210.4h-7.1v-62.9c0-81.3-66.1-147.5-147.5-147.5-81.3 0-147.5 66.1-147.5 147.5 0 7.5 6 13.5 13.5 13.5s13.5-6 13.5-13.5c0-66.4 54-120.5 120.5-120.5 66.4 0 120.5 54 120.5 120.5v62.9h-275c-14.4 0-26.1 11.7-26.1 26.1v168.1c0 43.1 35.1 78.2 78.2 78.2h204.9c43.1 0 78.2-35.1 78.2-78.2V236.5c0-14.4-11.7-26.1-26.1-26.1zm-.9 194.2c0 28.2-22.9 51.2-51.2 51.2h-204.8c-28.2 0-51.2-22.9-51.2-51.2V237.4h307.2v167.2z"/><path d="M241.45 399.1c27.9 0 50.5-22.7 50.5-50.5 0-27.9-22.7-50.5-50.5-50.5-27.9 0-50.5 22.7-50.5 50.5s22.6 50.5 50.5 50.5zm0-74.1c13 0 23.5 10.6 23.5 23.5s-10.5 23.6-23.5 23.6-23.5-10.6-23.5-23.5 10.5-23.6 23.5-23.6z"/></g></svg><view id="paper-plane" viewBox="136 0 34 34"/><svg viewBox="-31.27 -31.27 531.58 531.58" width="34" height="34" x="136" xmlns="http://www.w3.org/2000/svg"><path fill="#fff" d="M465.023 4.079c-3.9-3.9-9.9-5-14.9-2.8l-442 193.7c-4.7 2.1-7.8 6.6-8.1 11.7s2.4 9.9 6.8 12.4l154.1 87.4 91.5 155.7c2.4 4.1 6.9 6.7 11.6 6.7h.8c5.1-.3 9.5-3.4 11.6-8.1l191.5-441.8c2.2-5.1 1.1-11-2.9-14.9zm-70.3 50.9l-226.2 224.7-124.9-70.8 351.1-153.9zm-132.5 370.6l-74.5-126.9 227.5-226-153 352.9z"/></svg><view id="params-sticker" viewBox="136 34 34 34"/><svg viewBox="-32.58 -32.58 553.86 553.86" width="34" height="34" x="136" y="34" xmlns="http://www.w3.org/2000/svg"><g fill="#fff"><path d="M244.3 100C164.7 100 100 164.7 100 244.3c0 79.5 64.7 144.3 144.3 144.3s144.3-64.8 144.3-144.3c0-79.6-64.7-144.3-144.3-144.3zm0 264.1c-66 0-119.8-53.7-119.8-119.8 0-66 53.7-119.8 119.8-119.8s119.8 53.8 119.8 119.8-53.8 119.8-119.8 119.8z"/><path d="M467.2 252.1c-4.1-5.6-4.2-13.3-.1-19l8.5-12.1c6.7-9.5 9.1-21.5 6.4-32.9s-10.1-21.1-20.4-26.6l-13-7c-6.2-3.3-9.5-10.1-8.4-17l2.5-14.6c1.9-11.5-1.2-23.3-8.5-32.4-7.4-9.1-18.3-14.6-29.9-15.1l-14.8-.6c-7-.3-13-5-14.9-11.7L370.3 49c-5-17.3-21.1-29.4-39.2-29.4-5.5 0-11 1.1-16.1 3.3l-13.6 5.8c-6.3 2.7-14 1-18.5-4.1l-9.9-11C265.3 5 254.2 0 242.7 0c-11.8 0-23 5.1-30.8 14l-9.6 11.2c-4.5 5.2-12.1 7-18.5 4.4L170.1 24c-5-2-10.2-3.1-15.5-3.1-18.3 0-34.5 12.3-39.3 30l-3.9 14.3c-1.8 6.7-7.8 11.5-14.8 11.9l-14.7.9c-11.6.6-22.5 6.3-29.7 15.5s-10.1 21.1-8 32.5l2.7 14.5c1.3 6.9-2 13.8-8.1 17.2l-12.9 7.2c-10.2 5.7-17.5 15.5-20 26.9s0 23.4 6.9 32.8l8.7 11.9c4.1 5.6 4.2 13.3.1 19l-8.5 12.1c-6.7 9.5-9.1 21.5-6.4 32.9s10.1 21.1 20.4 26.6l13 7c6.2 3.3 9.5 10.1 8.4 17L46 365.7c-1.9 11.5 1.2 23.3 8.5 32.4 7.4 9.1 18.3 14.6 29.9 15.1l14.8.6c7 .3 13 5 14.9 11.7l4.1 14.2c5 17.3 21.1 29.4 39.2 29.4 5.5 0 11-1.1 16.1-3.3l13.6-5.8c6.3-2.7 14-1 18.5 4.1l9.9 11c7.7 8.6 18.8 13.6 30.3 13.6 11.8 0 23-5.1 30.8-14l9.7-11.2c4.5-5.2 12.1-7 18.5-4.4l13.7 5.6c5 2 10.2 3.1 15.5 3.1 18.3 0 34.5-12.3 39.3-30l3.9-14.3c1.8-6.7 7.8-11.5 14.8-11.9l14.8-.9c11.7-.7 22.5-6.3 29.7-15.5s10.1-21 8-32.5l-2.7-14.5c-1.3-6.9 2-13.8 8.1-17.2l12.9-7.2c10.2-5.7 17.5-15.5 20-26.9s0-23.4-6.9-32.8l-8.7-12zm-8.3 39.5c-1 4.6-3.9 8.4-8 10.7l-12.9 7.2c-15.3 8.5-23.5 25.8-20.3 43l2.7 14.5c.9 4.7-.3 9.3-3.2 13-2.9 3.7-7.1 5.9-11.9 6.2l-14.7.9c-17.5 1-32.4 13-37 29.9l-3.9 14.2c-1.9 7.1-8.4 12-15.7 12-2.1 0-4.2-.4-6.2-1.2l-13.7-5.6c-5-2-10.2-3.1-15.5-3.1-11.8 0-23 5.1-30.8 14l-9.7 11.1c-3.1 3.6-7.5 5.6-12.3 5.6-4.7 0-9-1.9-12.1-5.4l-9.9-11C216.1 439 205 434 193.4 434c-5.6 0-11 1.1-16.1 3.3l-13.6 5.8c-2.1.9-4.2 1.3-6.4 1.3-7.2 0-13.6-4.8-15.6-11.7l-4.1-14.2a40.86 40.86 0 00-37.4-29.4l-14.8-.6c-4.7-.2-9-2.3-11.9-6-3-3.7-4.2-8.3-3.4-12.9l2.5-14.6c2.9-17.3-5.5-34.4-21-42.7l-13-7c-4.2-2.2-7.1-6-8.2-10.6-1.1-4.6-.2-9.3 2.6-13.1l8.5-12.1c10.1-14.3 10-33.4-.4-47.6L32.4 210c-2.8-3.8-3.8-8.5-2.7-13.1 1-4.6 3.9-8.4 8-10.7l12.9-7.2c15.3-8.5 23.5-25.8 20.3-43l-2.6-14.4c-.9-4.7.3-9.3 3.2-13 2.9-3.7 7.1-5.9 11.9-6.2l14.7-.9c17.5-1 32.3-13 37-29.9l3.9-14.3c1.9-7.1 8.4-12 15.7-12 2.1 0 4.2.4 6.2 1.2l13.7 5.6c5 2 10.2 3.1 15.5 3.1 11.8 0 23-5.1 30.8-14l9.7-11.1c3.1-3.6 7.5-5.6 12.3-5.6 4.7 0 9 1.9 12.1 5.4l9.9 11c7.7 8.6 18.8 13.6 30.4 13.6 5.6 0 11-1.1 16.1-3.3l13.6-5.8c2.1-.9 4.2-1.3 6.4-1.3 7.2 0 13.6 4.8 15.6 11.7l4.1 14.2a40.86 40.86 0 0037.4 29.4l14.8.6c4.7.2 9 2.3 12 6s4.2 8.3 3.4 12.9l-2.5 14.6c-2.9 17.3 5.5 34.4 21 42.7l13 7c4.2 2.2 7.1 6 8.2 10.6s.2 9.3-2.5 13.1l-8.5 12.1c-10.1 14.3-10 33.4.4 47.6l8.7 11.9c2.4 3.8 3.4 8.5 2.4 13.1z"/><path d="M279.8 204.6l-53.6 53.3-17.4-17.5c-4.8-4.8-12.5-4.8-17.3 0-4.8 4.8-4.8 12.5-.1 17.3l26.1 26.2c2.3 2.3 5.4 3.6 8.7 3.6 3.2 0 6.3-1.3 8.6-3.6l62.3-61.9c4.8-4.8 4.8-12.5.1-17.3-4.8-4.8-12.6-4.8-17.4-.1z"/></g></svg><view id="pensil" viewBox="136 68 34 34"/><svg viewBox="-31.29 -31.29 531.91 531.91" width="34" height="34" x="136" y="68" xmlns="http://www.w3.org/2000/svg"><path fill="#fff" d="M438.931 30.403c-40.4-40.5-106.1-40.5-146.5 0l-268.6 268.5c-2.1 2.1-3.4 4.8-3.8 7.7l-19.9 147.4c-.6 4.2.9 8.4 3.8 11.3 2.5 2.5 6 4 9.5 4 .6 0 1.2 0 1.8-.1l88.8-12c7.4-1 12.6-7.8 11.6-15.2-1-7.4-7.8-12.6-15.2-11.6l-71.2 9.6 13.9-102.8 108.2 108.2c2.5 2.5 6 4 9.5 4s7-1.4 9.5-4l268.6-268.5c19.6-19.6 30.4-45.6 30.4-73.3s-10.8-53.7-30.4-73.2zm-141.3 33l45.1 45.1-245.1 245.1-45.1-45.1 245.1-245.1zm-136.7 353.4l-44.1-44.1 245.1-245.1 44.1 44.1-245.1 245.1zm263.9-264.4l-107.9-107.9c13.7-11.3 30.8-17.5 48.8-17.5 20.5 0 39.7 8 54.2 22.4s22.4 33.7 22.4 54.2c0 18.1-6.2 35.1-17.5 48.8z"/></svg><view id="pensil-gray" viewBox="136 102 34 34"/><svg viewBox="-31.29 -31.29 531.91 531.91" width="34" height="34" x="136" y="102" xmlns="http://www.w3.org/2000/svg"><path fill="#858585" d="M438.931 30.403c-40.4-40.5-106.1-40.5-146.5 0l-268.6 268.5c-2.1 2.1-3.4 4.8-3.8 7.7l-19.9 147.4c-.6 4.2.9 8.4 3.8 11.3 2.5 2.5 6 4 9.5 4 .6 0 1.2 0 1.8-.1l88.8-12c7.4-1 12.6-7.8 11.6-15.2-1-7.4-7.8-12.6-15.2-11.6l-71.2 9.6 13.9-102.8 108.2 108.2c2.5 2.5 6 4 9.5 4s7-1.4 9.5-4l268.6-268.5c19.6-19.6 30.4-45.6 30.4-73.3s-10.8-53.7-30.4-73.2zm-141.3 33l45.1 45.1-245.1 245.1-45.1-45.1 245.1-245.1zm-136.7 353.4l-44.1-44.1 245.1-245.1 44.1 44.1-245.1 245.1zm263.9-264.4l-107.9-107.9c13.7-11.3 30.8-17.5 48.8-17.5 20.5 0 39.7 8 54.2 22.4s22.4 33.7 22.4 54.2c0 18.1-6.2 35.1-17.5 48.8z"/></svg><view id="phone-call" viewBox="0 136 34 34"/><svg viewBox="-31.59 -31.59 536.98 536.98" width="34" height="34" y="136" xmlns="http://www.w3.org/2000/svg"><path d="M374.456 293.506c-9.7-10.1-21.4-15.5-33.8-15.5-12.3 0-24.1 5.3-34.2 15.4l-31.6 31.5c-2.6-1.4-5.2-2.7-7.7-4-3.6-1.8-7-3.5-9.9-5.3-29.6-18.8-56.5-43.3-82.3-75-12.5-15.8-20.9-29.1-27-42.6 8.2-7.5 15.8-15.3 23.2-22.8 2.8-2.8 5.6-5.7 8.4-8.5 21-21 21-48.2 0-69.2l-27.3-27.3c-3.1-3.1-6.3-6.3-9.3-9.5-6-6.2-12.3-12.6-18.8-18.6-9.7-9.6-21.3-14.7-33.5-14.7s-24 5.1-34 14.7l-.2.2-34 34.3c-12.8 12.8-20.1 28.4-21.7 46.5-2.4 29.2 6.2 56.4 12.8 74.2 16.2 43.7 40.4 84.2 76.5 127.6 43.8 52.3 96.5 93.6 156.7 122.7 23 10.9 53.7 23.8 88 26 2.1.1 4.3.2 6.3.2 23.1 0 42.5-8.3 57.7-24.8.1-.2.3-.3.4-.5 5.2-6.3 11.2-12 17.5-18.1 4.3-4.1 8.7-8.4 13-12.9 9.9-10.3 15.1-22.3 15.1-34.6 0-12.4-5.3-24.3-15.4-34.3l-54.9-55.1zm35.8 105.3c-.1 0-.1.1 0 0-3.9 4.2-7.9 8-12.2 12.2-6.5 6.2-13.1 12.7-19.3 20-10.1 10.8-22 15.9-37.6 15.9-1.5 0-3.1 0-4.6-.1-29.7-1.9-57.3-13.5-78-23.4-56.6-27.4-106.3-66.3-147.6-115.6-34.1-41.1-56.9-79.1-72-119.9-9.3-24.9-12.7-44.3-11.2-62.6 1-11.7 5.5-21.4 13.8-29.7l34.1-34.1c4.9-4.6 10.1-7.1 15.2-7.1 6.3 0 11.4 3.8 14.6 7l.3.3c6.1 5.7 11.9 11.6 18 17.9 3.1 3.2 6.3 6.4 9.5 9.7l27.3 27.3c10.6 10.6 10.6 20.4 0 31-2.9 2.9-5.7 5.8-8.6 8.6-8.4 8.6-16.4 16.6-25.1 24.4-.2.2-.4.3-.5.5-8.6 8.6-7 17-5.2 22.7l.3.9c7.1 17.2 17.1 33.4 32.3 52.7l.1.1c27.6 34 56.7 60.5 88.8 80.8 4.1 2.6 8.3 4.7 12.3 6.7 3.6 1.8 7 3.5 9.9 5.3.4.2.8.5 1.2.7 3.4 1.7 6.6 2.5 9.9 2.5 8.3 0 13.5-5.2 15.2-6.9l34.2-34.2c3.4-3.4 8.8-7.5 15.1-7.5 6.2 0 11.3 3.9 14.4 7.3l.2.2 55.1 55.1c10.3 10.2 10.3 20.7.1 31.3zm-154.2-286.1c26.2 4.4 50 16.8 69 35.8s31.3 42.8 35.8 69c1.1 6.6 6.8 11.2 13.3 11.2.8 0 1.5-.1 2.3-.2 7.4-1.2 12.3-8.2 11.1-15.6-5.4-31.7-20.4-60.6-43.3-83.5s-51.8-37.9-83.5-43.3c-7.4-1.2-14.3 3.7-15.6 11s3.5 14.4 10.9 15.6zm217.2 96.3c-8.9-52.2-33.5-99.7-71.3-137.5s-85.3-62.4-137.5-71.3c-7.3-1.3-14.2 3.7-15.5 11-1.2 7.4 3.7 14.3 11.1 15.6 46.6 7.9 89.1 30 122.9 63.7 33.8 33.8 55.8 76.3 63.7 122.9 1.1 6.6 6.8 11.2 13.3 11.2.8 0 1.5-.1 2.3-.2 7.3-1.1 12.3-8.1 11-15.4z" fill="#fff"/></svg><view id="placeholder" viewBox="34 136 34 34"/><svg viewBox="-31.8 -31.8 540.6 540.6" width="34" height="34" x="34" y="136" xmlns="http://www.w3.org/2000/svg"><g fill="#fff"><path d="M238.4 0C133 0 47.2 85.8 47.2 191.2c0 12 1.1 24.1 3.4 35.9.1.7.5 2.8 1.3 6.4 2.9 12.9 7.2 25.6 12.8 37.7 20.6 48.5 65.9 123 165.3 202.8 2.5 2 5.5 3 8.5 3s6-1 8.5-3c99.3-79.8 144.7-154.3 165.3-202.8 5.6-12.1 9.9-24.7 12.8-37.7.8-3.6 1.2-5.7 1.3-6.4 2.2-11.8 3.4-23.9 3.4-35.9C429.6 85.8 343.8 0 238.4 0zm161.2 222.4c0 .2-.1.4-.1.6-.1.5-.4 2-.9 4.3v.2c-2.5 11.2-6.2 22.1-11.1 32.6-.1.1-.1.3-.2.4-18.7 44.3-59.7 111.9-148.9 185.6-89.2-73.7-130.2-141.3-148.9-185.6-.1-.1-.1-.3-.2-.4-4.8-10.4-8.5-21.4-11.1-32.6v-.2c-.6-2.3-.8-3.8-.9-4.3 0-.2-.1-.4-.1-.7-2-10.3-3-20.7-3-31.2 0-90.5 73.7-164.2 164.2-164.2s164.2 73.7 164.2 164.2c0 10.6-1 21.1-3 31.3z"/><path d="M238.4 71.9c-66.9 0-121.4 54.5-121.4 121.4s54.5 121.4 121.4 121.4 121.4-54.5 121.4-121.4S305.3 71.9 238.4 71.9zm0 215.8c-52.1 0-94.4-42.4-94.4-94.4s42.4-94.4 94.4-94.4 94.4 42.4 94.4 94.4-42.3 94.4-94.4 94.4z"/></g></svg><view id="price-sticker" viewBox="68 136 34 34"/><svg viewBox="-32.57 -32.57 553.75 553.75" width="34" height="34" x="68" y="136" xmlns="http://www.w3.org/2000/svg"><g fill="#fff"><path d="M467.1 252.1c-4.1-5.6-4.2-13.3-.1-19l8.5-12.1c6.7-9.5 9.1-21.5 6.4-32.9s-10.1-21.1-20.4-26.6l-13-7c-6.2-3.3-9.5-10.1-8.4-17l2.5-14.6c1.9-11.5-1.2-23.3-8.5-32.4-7.4-9.1-18.3-14.6-29.9-15.1l-14.9-.5c-7-.3-13-5-14.9-11.7L370.3 49c-5-17.3-21.1-29.4-39.2-29.4-5.5 0-11 1.1-16.1 3.3l-13.6 5.8c-6.3 2.7-14 1-18.5-4.1l-9.9-11C265.3 5 254.2 0 242.7 0c-11.8 0-23 5.1-30.8 14l-9.6 11.3c-4.5 5.2-12.1 7-18.5 4.4l-13.7-5.6c-5-2-10.2-3.1-15.5-3.1-18.3 0-34.5 12.3-39.3 30l-3.9 14.2c-1.8 6.7-7.8 11.5-14.7 11.9L82 78c-11.7.7-22.5 6.3-29.7 15.5s-10.1 21-8 32.5l2.7 14.5c1.3 6.9-2 13.8-8.1 17.2L26 164.9c-10.2 5.7-17.5 15.5-20 26.9s0 23.4 6.9 32.8l8.7 11.9c4.1 5.6 4.2 13.3.1 19l-8.5 12.1c-6.7 9.5-9.1 21.5-6.4 32.9s10.1 21 20.4 26.6l13 7c6.2 3.3 9.5 10.1 8.4 17l-2.5 14.6c-1.9 11.5 1.2 23.3 8.5 32.4 7.4 9.1 18.3 14.6 29.9 15.1l14.8.6c7 .3 13 5 14.9 11.7l4.1 14.2c5 17.3 21.1 29.4 39.2 29.4 5.5 0 11-1.1 16.1-3.3l13.6-5.8c6.3-2.7 14-1 18.5 4.1l9.9 11c7.7 8.6 18.8 13.5 30.3 13.5 11.8 0 23-5.1 30.8-14l9.6-11.3c4.5-5.2 12.1-7 18.5-4.4l13.7 5.6c5 2 10.2 3.1 15.5 3.1 18.3 0 34.5-12.3 39.3-30l3.9-14.2c1.8-6.7 7.8-11.5 14.7-11.9l14.7-.8c11.7-.7 22.5-6.3 29.7-15.5s10.1-21 8-32.5l-2.7-14.5c-1.3-6.9 2-13.8 8.1-17.1l12.9-7.2c10.2-5.7 17.5-15.5 20-26.9s0-23.4-6.9-32.8l-8.6-12.1zm-8.3 39.5c-1 4.6-3.9 8.4-8 10.7l-12.9 7.2c-15.3 8.5-23.5 25.8-20.3 43l2.7 14.5c.9 4.6-.3 9.3-3.2 13-2.9 3.7-7.1 5.9-11.8 6.2l-14.7.8c-17.5 1-32.3 13-37 29.9l-3.9 14.2c-1.9 7.1-8.4 12-15.7 12-2.1 0-4.2-.4-6.2-1.2l-13.7-5.6c-5-2-10.2-3.1-15.5-3.1-11.8 0-23 5.1-30.8 14l-9.7 11.1c-3.1 3.6-7.5 5.6-12.3 5.6-4.7 0-9-1.9-12.1-5.4l-9.9-11c-7.7-8.6-18.8-13.6-30.4-13.6-5.6 0-11 1.1-16.1 3.3l-13.6 5.8c-2.1.9-4.2 1.3-6.4 1.3-7.2 0-13.6-4.8-15.6-11.7l-4.1-14.2a40.86 40.86 0 00-37.4-29.4l-14.8-.6c-4.7-.2-9-2.3-11.9-6-3-3.7-4.2-8.3-3.4-12.9l2.5-14.6c2.9-17.3-5.5-34.4-21-42.7l-13-7c-4.2-2.2-7.1-6-8.1-10.6-1.1-4.6-.2-9.3 2.5-13.1l8.5-12.1c10.1-14.3 10-33.4-.4-47.6l-8.7-11.9c-2.8-3.8-3.8-8.5-2.7-13.1 1-4.6 3.9-8.4 8-10.7l12.9-7.2c15.3-8.5 23.5-25.8 20.3-43l-2.6-14.3c-.9-4.7.3-9.3 3.2-13 2.9-3.7 7.1-5.9 11.8-6.2l14.7-.9c17.5-1 32.3-13 37-29.9l3.9-14.3c1.9-7 8.4-12 15.7-12 2.1 0 4.2.4 6.2 1.2l13.7 5.6c5 2 10.2 3.1 15.5 3.1 11.8 0 23-5.1 30.8-14l9.7-11.1c3.1-3.6 7.5-5.6 12.3-5.6 4.7 0 9 1.9 12.1 5.4l9.9 11c7.7 8.6 18.8 13.6 30.4 13.6 5.6 0 11-1.1 16.1-3.3l13.6-5.8c2.1-.9 4.2-1.3 6.4-1.3 7.2 0 13.6 4.8 15.6 11.7L351 70a40.86 40.86 0 0037.4 29.4l14.8.6c4.7.2 9 2.3 11.9 6 3 3.7 4.2 8.3 3.4 12.9l-2.4 14.6c-2.9 17.3 5.5 34.4 21 42.7l13 7c4.2 2.2 7.1 6 8.2 10.6s.2 9.3-2.5 13.1l-8.5 12.1c-10.1 14.3-10 33.4.4 47.6l8.7 11.9c2.4 3.8 3.4 8.4 2.4 13.1z"/><path d="M244.3 93.6c-83.1 0-150.7 67.6-150.7 150.7S161.2 395 244.3 395 395 327.4 395 244.3 327.4 93.6 244.3 93.6zm0 276.9c-69.6 0-126.2-56.6-126.2-126.2s56.6-126.2 126.2-126.2 126.2 56.6 126.2 126.2-56.6 126.2-126.2 126.2z"/><path d="M255.9 231.9h-23.2c-7.3 0-13.2-6.7-13.2-15s5.9-15 13.2-15h40.9c6.8 0 12.3-5.5 12.3-12.3s-5.5-12.3-12.3-12.3h-17.1v-13.8c0-6.8-5.5-12.3-12.3-12.3s-12.3 5.5-12.3 12.3v13.8c-20.5.4-37 17.9-37 39.5 0 21.8 16.9 39.5 37.7 39.5h23.2c7.3 0 13.2 6.7 13.2 15s-5.9 15-13.2 15h-41.7c-6.8 0-12.3 5.5-12.3 12.3s5.5 12.3 12.3 12.3h17.8V325c0 6.8 5.5 12.3 12.3 12.3s12.3-5.5 12.3-12.3v-14.1c20.5-.4 37-18 37-39.5.1-21.8-16.8-39.5-37.6-39.5z"/></g></svg><view id="printer" viewBox="102 136 34 34"/><svg viewBox="-32.17 -32.17 546.83 546.83" width="34" height="34" x="102" y="136" xmlns="http://www.w3.org/2000/svg"><g fill="#fff"><path d="M399.25 98.9h-12.4V71.3c0-39.3-32-71.3-71.3-71.3h-149.7c-39.3 0-71.3 32-71.3 71.3v27.6h-11.3c-39.3 0-71.3 32-71.3 71.3v115c0 39.3 32 71.3 71.3 71.3h11.2v90.4c0 19.6 16 35.6 35.6 35.6h221.1c19.6 0 35.6-16 35.6-35.6v-90.4h12.5c39.3 0 71.3-32 71.3-71.3v-115c0-39.3-32-71.3-71.3-71.3zm-277.8-27.6c0-24.4 19.9-44.3 44.3-44.3h149.6c24.4 0 44.3 19.9 44.3 44.3v27.6h-238.2V71.3zm238.3 375.8c0 4.7-3.9 8.6-8.6 8.6h-221.1c-4.7 0-8.6-3.9-8.6-8.6V298h238.3v149.1zm83.8-161.8c0 24.4-19.9 44.3-44.3 44.3h-12.4V298h17.8c7.5 0 13.5-6 13.5-13.5s-6-13.5-13.5-13.5h-330c-7.5 0-13.5 6-13.5 13.5s6 13.5 13.5 13.5h19.9v31.6h-11.3c-24.4 0-44.3-19.9-44.3-44.3v-115c0-24.4 19.9-44.3 44.3-44.3h316c24.4 0 44.3 19.9 44.3 44.3v115z"/><path d="M154.15 364.4h171.9c7.5 0 13.5-6 13.5-13.5s-6-13.5-13.5-13.5h-171.9c-7.5 0-13.5 6-13.5 13.5s6.1 13.5 13.5 13.5zm173 28.2h-172c-7.5 0-13.5 6-13.5 13.5s6 13.5 13.5 13.5h171.9c7.5 0 13.5-6 13.5-13.5s-6-13.5-13.4-13.5zm71.8-240.7h-27.4c-7.5 0-13.5 6-13.5 13.5s6 13.5 13.5 13.5h27.4c7.5 0 13.5-6 13.5-13.5s-6-13.5-13.5-13.5z"/></g></svg><view id="shopping-bag" viewBox="136 136 34 34"/><svg viewBox="-32.6 -32.6 554.2 554.2" width="34" height="34" x="136" y="136" xmlns="http://www.w3.org/2000/svg"><path fill="#fff" d="M440.1 422.7l-28-315.3c-.6-7-6.5-12.3-13.4-12.3h-57.6C340.3 42.5 297.3 0 244.5 0s-95.8 42.5-96.6 95.1H90.3c-7 0-12.8 5.3-13.4 12.3l-28 315.3c0 .4-.1.8-.1 1.2 0 35.9 32.9 65.1 73.4 65.1h244.6c40.5 0 73.4-29.2 73.4-65.1 0-.4 0-.8-.1-1.2zM244.5 27c37.9 0 68.8 30.4 69.6 68.1H174.9c.8-37.7 31.7-68.1 69.6-68.1zm122.3 435H122.2c-25.4 0-46-16.8-46.4-37.5l26.8-302.3h45.2v41c0 7.5 6 13.5 13.5 13.5s13.5-6 13.5-13.5v-41h139.3v41c0 7.5 6 13.5 13.5 13.5s13.5-6 13.5-13.5v-41h45.2l26.9 302.3c-.4 20.7-21.1 37.5-46.4 37.5z"/></svg><view id="shopping-cart" viewBox="170 0 34 34"/><svg viewBox="-32.44 -32.44 551.45 551.45" width="34" height="34" x="170" xmlns="http://www.w3.org/2000/svg"><path fill="#fff" d="M146.069 320.369h268.1c30.4 0 55.2-24.8 55.2-55.2v-114c0-.2 0-.4-.1-.6 0-.2-.1-.5-.1-.7s-.1-.4-.1-.6c-.1-.2-.1-.4-.2-.7-.1-.2-.1-.4-.2-.6-.1-.2-.1-.4-.2-.6-.1-.2-.2-.4-.3-.7-.1-.2-.2-.4-.3-.5l-.3-.6c-.1-.2-.2-.3-.3-.5-.1-.2-.3-.4-.4-.6-.1-.2-.2-.3-.4-.5-.1-.2-.3-.3-.4-.5s-.3-.3-.4-.5-.3-.3-.4-.4l-.5-.5c-.2-.1-.3-.3-.5-.4-.2-.1-.4-.3-.6-.4-.2-.1-.3-.2-.5-.3s-.4-.2-.6-.4l-.6-.3-.6-.3-.6-.3c-.2-.1-.4-.1-.6-.2-.2-.1-.5-.2-.7-.2s-.4-.1-.5-.1c-.3-.1-.5-.1-.8-.1-.1 0-.2-.1-.4-.1l-339.8-46.9v-47.4c0-.5 0-1-.1-1.4 0-.1 0-.2-.1-.4 0-.3-.1-.6-.1-.9-.1-.3-.1-.5-.2-.8 0-.2-.1-.3-.1-.5l-.3-.9c0-.1-.1-.3-.1-.4-.1-.3-.2-.5-.4-.8-.1-.1-.1-.3-.2-.4-.1-.2-.2-.4-.4-.6-.1-.2-.2-.3-.3-.5s-.2-.3-.3-.5-.3-.4-.4-.6l-.3-.3-.6-.6-.3-.3c-.2-.2-.4-.4-.7-.6-.1-.1-.3-.2-.4-.3-.2-.2-.4-.3-.6-.5-.3-.2-.6-.4-.8-.5-.1-.1-.2-.1-.3-.2-.4-.2-.9-.4-1.3-.6l-73.7-31c-6.9-2.9-14.8.3-17.7 7.2s.3 14.8 7.2 17.7l65.4 27.6v295.8c0 28 21 51.2 48.1 54.7-4.9 8.2-7.8 17.8-7.8 28 0 30.1 24.5 54.5 54.5 54.5s54.5-24.5 54.5-54.5c0-10-2.7-19.5-7.5-27.5h121.4c-4.8 8.1-7.5 17.5-7.5 27.5 0 30.1 24.5 54.5 54.5 54.5s54.5-24.5 54.5-54.5-24.5-54.5-54.5-54.5h-255c-15.6 0-28.2-12.7-28.2-28.2v-36.6c8.2 4.8 17.9 7.6 28.2 7.6zm67.2 111.6c0 15.2-12.4 27.5-27.5 27.5s-27.5-12.4-27.5-27.5 12.4-27.5 27.5-27.5 27.5 12.3 27.5 27.5zm215.4 0c0 15.2-12.4 27.5-27.5 27.5s-27.5-12.4-27.5-27.5 12.4-27.5 27.5-27.5 27.5 12.3 27.5 27.5zm-14.5-138.6h-268.1c-15.6 0-28.2-12.7-28.2-28.2v-145.9l324.5 44.7v101.1c0 15.7-12.7 28.3-28.2 28.3z"/></svg><view id="shopping-cart-gray" viewBox="170 34 34 34"/><svg viewBox="-32.44 -32.44 551.45 551.45" width="34" height="34" x="170" y="34" xmlns="http://www.w3.org/2000/svg"><path fill="#858585" d="M146.069 320.369h268.1c30.4 0 55.2-24.8 55.2-55.2v-114c0-.2 0-.4-.1-.6 0-.2-.1-.5-.1-.7s-.1-.4-.1-.6c-.1-.2-.1-.4-.2-.7-.1-.2-.1-.4-.2-.6-.1-.2-.1-.4-.2-.6-.1-.2-.2-.4-.3-.7-.1-.2-.2-.4-.3-.5l-.3-.6c-.1-.2-.2-.3-.3-.5-.1-.2-.3-.4-.4-.6-.1-.2-.2-.3-.4-.5-.1-.2-.3-.3-.4-.5s-.3-.3-.4-.5-.3-.3-.4-.4l-.5-.5c-.2-.1-.3-.3-.5-.4-.2-.1-.4-.3-.6-.4-.2-.1-.3-.2-.5-.3s-.4-.2-.6-.4l-.6-.3-.6-.3-.6-.3c-.2-.1-.4-.1-.6-.2-.2-.1-.5-.2-.7-.2s-.4-.1-.5-.1c-.3-.1-.5-.1-.8-.1-.1 0-.2-.1-.4-.1l-339.8-46.9v-47.4c0-.5 0-1-.1-1.4 0-.1 0-.2-.1-.4 0-.3-.1-.6-.1-.9-.1-.3-.1-.5-.2-.8 0-.2-.1-.3-.1-.5l-.3-.9c0-.1-.1-.3-.1-.4-.1-.3-.2-.5-.4-.8-.1-.1-.1-.3-.2-.4-.1-.2-.2-.4-.4-.6-.1-.2-.2-.3-.3-.5s-.2-.3-.3-.5-.3-.4-.4-.6l-.3-.3-.6-.6-.3-.3c-.2-.2-.4-.4-.7-.6-.1-.1-.3-.2-.4-.3-.2-.2-.4-.3-.6-.5-.3-.2-.6-.4-.8-.5-.1-.1-.2-.1-.3-.2-.4-.2-.9-.4-1.3-.6l-73.7-31c-6.9-2.9-14.8.3-17.7 7.2s.3 14.8 7.2 17.7l65.4 27.6v295.8c0 28 21 51.2 48.1 54.7-4.9 8.2-7.8 17.8-7.8 28 0 30.1 24.5 54.5 54.5 54.5s54.5-24.5 54.5-54.5c0-10-2.7-19.5-7.5-27.5h121.4c-4.8 8.1-7.5 17.5-7.5 27.5 0 30.1 24.5 54.5 54.5 54.5s54.5-24.5 54.5-54.5-24.5-54.5-54.5-54.5h-255c-15.6 0-28.2-12.7-28.2-28.2v-36.6c8.2 4.8 17.9 7.6 28.2 7.6zm67.2 111.6c0 15.2-12.4 27.5-27.5 27.5s-27.5-12.4-27.5-27.5 12.4-27.5 27.5-27.5 27.5 12.3 27.5 27.5zm215.4 0c0 15.2-12.4 27.5-27.5 27.5s-27.5-12.4-27.5-27.5 12.4-27.5 27.5-27.5 27.5 12.3 27.5 27.5zm-14.5-138.6h-268.1c-15.6 0-28.2-12.7-28.2-28.2v-145.9l324.5 44.7v101.1c0 15.7-12.7 28.3-28.2 28.3z"/></svg></svg>