<?xml version="1.0" encoding="utf-8"?><svg width="164" height="141" viewBox="0 0 164 141" xmlns="http://www.w3.org/2000/svg" xmlns:xlink="http://www.w3.org/1999/xlink"><view id="burger-nav" viewBox="68 89.37 28 22"/><svg version="1.1" id="aLayer_1" x="68" y="89.37" viewBox="-2 -2 28 22" xml:space="preserve" width="28" height="22" xmlns="http://www.w3.org/2000/svg"><style>.ast0{fill-rule:evenodd;clip-rule:evenodd;fill:#fff}</style><path class="ast0" d="M0 8h24v2H0zm0-8h24v2H0zm0 16h24v2H0z"/></svg><view id="carousel-arrow-left-mid-blue" viewBox="102 0 34 21.37"/><svg width="34" height="21.37" viewBox="-2.53 -2.53 43.07 27.07" x="102" xmlns="http://www.w3.org/2000/svg"><path d="M14.805 21L2 10.997 14.805 1M3 11h34.805" stroke="#00C3F2" stroke-width="2" fill="none"/></svg><view id="carousel-arrow-left-navy" viewBox="68 34 34 21.37"/><svg width="34" height="21.37" viewBox="-2.53 -2.53 43.07 27.07" x="68" y="34" xmlns="http://www.w3.org/2000/svg"><path d="M14.805 21L2 10.997 14.805 1M3 11h34.805" stroke="#000046" stroke-width="2" fill="none"/></svg><view id="carousel-arrow-right-mid-blue" viewBox="0 34 34 21.37"/><svg width="34" height="21.37" viewBox="-2.53 -2.53 43.07 27.07" y="34" xmlns="http://www.w3.org/2000/svg"><path d="M23.195 21L36 10.997 23.195 1M35 11H.195" stroke="#00C3F2" stroke-width="2" fill="none"/></svg><view id="carousel-arrow-right-navy" viewBox="34 34 34 21.37"/><svg width="34" height="21.37" viewBox="-2.53 -2.53 43.07 27.07" x="34" y="34" xmlns="http://www.w3.org/2000/svg"><path d="M23.195 21L36 10.997 23.195 1M35 11H.195" stroke="#000046" stroke-width="2" fill="none"/></svg><view id="checkbox-cross" viewBox="0 123.37 17 17"/><svg width="17" height="17" viewBox="-2 -2 17 17" y="123.37" xmlns="http://www.w3.org/2000/svg"><path d="M12 1L1 12M1 1l11 11" stroke="#00C3F2" stroke-width="2" fill="none"/></svg><view id="checkbox-mid-blue" viewBox="136 0 28 28"/><svg width="28" height="28" viewBox="-2 -2 28 28" x="136" xmlns="http://www.w3.org/2000/svg"><path d="M1 1h22v22H1z" stroke="#00C3F2" stroke-width="2" fill="none"/></svg><view id="checkbox-navy" viewBox="136 28 28 28"/><svg width="28" height="28" viewBox="-2 -2 28 28" x="136" y="28" xmlns="http://www.w3.org/2000/svg"><path d="M1 1h22v22H1z" stroke="#000046" stroke-width="2" fill="none"/></svg><view id="checkbox-tick" viewBox="96 89.37 17 16"/><svg width="17" height="16" viewBox="-2 -2 17 16" x="96" y="89.37" xmlns="http://www.w3.org/2000/svg"><path d="M1.28 8.022l3.888 2.409L12.127.929" stroke="#00C3F2" stroke-width="2" fill="none"/></svg><view id="diamond-mid-blue" viewBox="33 123.37 16 14"/><svg width="16" height="14" viewBox="-2 -2 16 14" x="33" y="123.37" xmlns="http://www.w3.org/2000/svg"><path d="M5.999 0L0 4.997 6.001 10 12 4.997 6.004 0z" fill="#00C3F2" fill-rule="evenodd"/></svg><view id="diamond-navy" viewBox="17 123.37 16 14"/><svg width="16" height="14" viewBox="-2 -2 16 14" x="17" y="123.37" xmlns="http://www.w3.org/2000/svg"><path d="M5.999 0L0 4.997 6.001 10 12 4.997 6.004 0z" fill="#000046" fill-rule="evenodd"/></svg><view id="diamond-white" viewBox="113 89.37 16 14"/><svg width="16" height="14" viewBox="-2 -2 16 14" x="113" y="89.37" xmlns="http://www.w3.org/2000/svg"><path d="M5.999 0L0 4.997 6.001 10 12 4.997 6.004 0z" fill="#FFF" fill-rule="evenodd"/></svg><view id="drodown-arrow-mid-blue" viewBox="136 75 26 19"/><svg width="26" height="19" viewBox="-2 -2 26 19" x="136" y="75" xmlns="http://www.w3.org/2000/svg"><path d="M21 1L10.997 13 1 1" stroke="#00C3F2" stroke-width="2" fill="none"/></svg><view id="drodown-arrow-navy" viewBox="136 56 26 19"/><svg width="26" height="19" viewBox="-2 -2 26 19" x="136" y="56" xmlns="http://www.w3.org/2000/svg"><path d="M21 1L10.997 13 1 1" stroke="#000046" stroke-width="2" fill="none"/></svg><view id="facebook-mid-blue" viewBox="102 55.370000000000005 34 34"/><svg width="34" height="34" viewBox="-3.2 -3.2 54.4 54.4" x="102" y="55.370000000000005" xmlns="http://www.w3.org/2000/svg"><g fill="none" fill-rule="evenodd"><circle fill="#00C3F2" cx="24" cy="24" r="24"/><path fill="#D8D8D8" d="M23 23h2v2h-2z"/><path d="M21.96 33.624v-8.146H19v-3.371h2.96v-2.57c0-2.923 1.741-4.537 4.405-4.537 1.276 0 2.61.228 2.61.228v2.87h-1.47c-1.449 0-1.9.898-1.9 1.82v2.188h3.232l-.517 3.37h-2.716v8.147l-3.643.001z" fill="#FFF" fill-rule="nonzero"/></g></svg><view id="facebook-navy" viewBox="0 89.37 34 34"/><svg width="34" height="34" viewBox="-3.2 -3.2 54.4 54.4" y="89.37" xmlns="http://www.w3.org/2000/svg"><g fill="none" fill-rule="evenodd"><circle fill="#000046" cx="24" cy="24" r="24"/><path fill="#D8D8D8" d="M23 23h2v2h-2z"/><path d="M21.96 33.624v-8.146H19v-3.371h2.96v-2.57c0-2.923 1.741-4.537 4.405-4.537 1.276 0 2.61.228 2.61.228v2.87h-1.47c-1.449 0-1.9.898-1.9 1.82v2.188h3.232l-.517 3.37h-2.716v8.147l-3.643.001z" fill="#FFF" fill-rule="nonzero"/></g></svg><view id="global-notification" viewBox="136 94 24 24"/><svg version="1.1" id="qLayer_1" x="136" y="94" viewBox="-2 -2 24 24" xml:space="preserve" width="24" height="24" xmlns="http://www.w3.org/2000/svg"><style>.qst0{fill-rule:evenodd;clip-rule:evenodd;fill:#fff}</style><path class="qst0" d="M0 0v20h20V0H0zm19 19H1V1h18v18z"/><path class="qst0" d="M6.7 14.5l3.5-3.6 3.6 3.6.7-.7-3.6-3.6 3.6-3.5-.7-.7-3.6 3.5L6.7 6l-.7.7 3.5 3.5L6 13.8z"/></svg><view id="instagram-mid-blue" viewBox="34 89.37 34 34"/><svg width="34" height="34" viewBox="-3.2 -3.2 54.4 54.4" x="34" y="89.37" xmlns="http://www.w3.org/2000/svg"><g fill="none" fill-rule="evenodd"><circle fill="#00C3F2" cx="24" cy="24" r="24"/><g transform="translate(15 15)" fill="#FFF" fill-rule="nonzero"><path d="M9.117 1.644c2.435 0 2.723.01 3.684.053.89.04 1.372.19 1.693.314.397.146.755.38 1.05.682.303.295.536.653.682 1.05.125.321.273.804.314 1.693.044.961.053 1.25.053 3.684 0 2.435-.01 2.723-.053 3.684-.04.889-.19 1.372-.314 1.693a3.022 3.022 0 01-1.73 1.73c-.322.125-.804.274-1.693.314-.961.044-1.25.053-3.684.053-2.435 0-2.723-.009-3.685-.053-.888-.04-1.371-.189-1.693-.314a2.823 2.823 0 01-1.05-.682 2.823 2.823 0 01-.681-1.05c-.125-.32-.274-.803-.314-1.692-.044-.962-.053-1.25-.053-3.684 0-2.435.01-2.723.053-3.685.04-.888.189-1.371.314-1.693.146-.396.379-.755.682-1.05a2.823 2.823 0 011.05-.681c.32-.125.804-.274 1.692-.314.962-.044 1.25-.053 3.685-.053m0-1.643c-2.477 0-2.787.01-3.76.055-.972.045-1.634.2-2.214.425A4.47 4.47 0 001.53 1.532 4.47 4.47 0 00.48 3.146C.254 3.726.1 4.39.056 5.36.011 6.33 0 6.642 0 9.12c0 2.476.01 2.786.055 3.759.045.972.198 1.633.424 2.213a4.47 4.47 0 001.051 1.615 4.476 4.476 0 001.615 1.051c.579.225 1.243.38 2.213.424.97.045 1.283.055 3.76.055 2.475 0 2.786-.01 3.758-.055.973-.044 1.633-.199 2.213-.424a4.663 4.663 0 002.667-2.666c.225-.58.379-1.243.424-2.213.044-.97.054-1.283.054-3.76 0-2.476-.01-2.786-.054-3.759-.045-.972-.2-1.632-.424-2.213a4.476 4.476 0 00-1.052-1.614A4.47 4.47 0 0015.09.482c-.58-.227-1.243-.381-2.213-.426-.97-.044-1.283-.055-3.759-.055L9.12 0z"/><path d="M9.117 4.437a4.682 4.682 0 100 9.364 4.682 4.682 0 000-9.364zm0 7.72a3.04 3.04 0 110-6.08 3.04 3.04 0 010 6.08z"/><circle cx="13.984" cy="4.252" r="1.094"/></g></g></svg><view id="instagram-nay" viewBox="102 21.37 34 34"/><svg width="34" height="34" viewBox="-3.2 -3.2 54.4 54.4" x="102" y="21.37" xmlns="http://www.w3.org/2000/svg"><g fill="none" fill-rule="evenodd"><circle fill="#000046" cx="24" cy="24" r="24"/><g transform="translate(15 15)" fill="#FFF" fill-rule="nonzero"><path d="M9.117 1.644c2.435 0 2.723.01 3.684.053.89.04 1.372.19 1.693.314.397.146.755.38 1.05.682.303.295.536.653.682 1.05.125.321.273.804.314 1.693.044.961.053 1.25.053 3.684 0 2.435-.01 2.723-.053 3.684-.04.889-.19 1.372-.314 1.693a3.022 3.022 0 01-1.73 1.73c-.322.125-.804.274-1.693.314-.961.044-1.25.053-3.684.053-2.435 0-2.723-.009-3.685-.053-.888-.04-1.371-.189-1.693-.314a2.823 2.823 0 01-1.05-.682 2.823 2.823 0 01-.681-1.05c-.125-.32-.274-.803-.314-1.692-.044-.962-.053-1.25-.053-3.684 0-2.435.01-2.723.053-3.685.04-.888.189-1.371.314-1.693.146-.396.379-.755.682-1.05a2.823 2.823 0 011.05-.681c.32-.125.804-.274 1.692-.314.962-.044 1.25-.053 3.685-.053m0-1.643c-2.477 0-2.787.01-3.76.055-.972.045-1.634.2-2.214.425A4.47 4.47 0 001.53 1.532 4.47 4.47 0 00.48 3.146C.254 3.726.1 4.39.056 5.36.011 6.33 0 6.642 0 9.12c0 2.476.01 2.786.055 3.759.045.972.198 1.633.424 2.213a4.47 4.47 0 001.051 1.615 4.476 4.476 0 001.615 1.051c.579.225 1.243.38 2.213.424.97.045 1.283.055 3.76.055 2.475 0 2.786-.01 3.758-.055.973-.044 1.633-.199 2.213-.424a4.663 4.663 0 002.667-2.666c.225-.58.379-1.243.424-2.213.044-.97.054-1.283.054-3.76 0-2.476-.01-2.786-.054-3.759-.045-.972-.2-1.632-.424-2.213a4.476 4.476 0 00-1.052-1.614A4.47 4.47 0 0015.09.482c-.58-.227-1.243-.381-2.213-.426-.97-.044-1.283-.055-3.759-.055L9.12 0z"/><path d="M9.117 4.437a4.682 4.682 0 100 9.364 4.682 4.682 0 000-9.364zm0 7.72a3.04 3.04 0 110-6.08 3.04 3.04 0 010 6.08z"/><circle cx="13.984" cy="4.252" r="1.094"/></g></g></svg><view id="mail-mid-blue" viewBox="68 55.370000000000005 34 34"/><svg viewBox="-3.2 -3.2 54.4 54.4" width="34" height="34" x="68" y="55.370000000000005" xmlns="http://www.w3.org/2000/svg"><circle cx="24" cy="24" r="24" fill-rule="evenodd" clip-rule="evenodd" fill="#00c3f2"/><path fill-rule="evenodd" clip-rule="evenodd" fill="#fefefe" d="M13 32.3h21.9V16H13z"/><path d="M34.9 16L24 24.7 13 16" fill="none" stroke="#00c3f2" stroke-width="2"/></svg><view id="mail-navy" viewBox="0 0 34 34"/><svg viewBox="-3.2 -3.2 54.4 54.4" width="34" height="34" xmlns="http://www.w3.org/2000/svg"><circle cx="24" cy="24" r="24" fill-rule="evenodd" clip-rule="evenodd" fill="#000046"/><path fill-rule="evenodd" clip-rule="evenodd" fill="#fefefe" d="M13 32.3h21.9V16H13z"/><path d="M34.9 16l-11 8.7L13 16" fill="none" stroke="#000046" stroke-width="2"/></svg><view id="twitter-mid-blue" viewBox="34 55.370000000000005 34 34"/><svg width="34" height="34" viewBox="-3.2 -3.2 54.4 54.4" x="34" y="55.370000000000005" xmlns="http://www.w3.org/2000/svg"><g fill="none" fill-rule="evenodd"><circle fill="#00C3F2" cx="24" cy="24" r="24"/><path fill="#D8D8D8" d="M23 23h2v2h-2z"/><path d="M21.211 32.051c7.454 0 11.53-6.175 11.53-11.529 0-.176-.004-.35-.012-.524A8.24 8.24 0 0034.75 17.9a8.093 8.093 0 01-2.327.638 4.066 4.066 0 001.781-2.241 8.119 8.119 0 01-2.573.983 4.055 4.055 0 00-6.904 3.696 11.507 11.507 0 01-8.353-4.234 4.056 4.056 0 001.255 5.41 4.022 4.022 0 01-1.837-.507v.051c0 1.93 1.36 3.59 3.251 3.973a4.042 4.042 0 01-1.83.07A4.057 4.057 0 0021 28.552a8.133 8.133 0 01-6 1.678 11.472 11.472 0 006.211 1.82" fill="#FFF" fill-rule="nonzero"/></g></svg><view id="twitter-navy" viewBox="0 55.370000000000005 34 34"/><svg width="34" height="34" viewBox="-3.2 -3.2 54.4 54.4" y="55.370000000000005" xmlns="http://www.w3.org/2000/svg"><g fill="none" fill-rule="evenodd"><circle fill="#000046" cx="24" cy="24" r="24"/><path fill="#D8D8D8" d="M23 23h2v2h-2z"/><path d="M21.211 32.051c7.454 0 11.53-6.175 11.53-11.529 0-.176-.004-.35-.012-.524A8.24 8.24 0 0034.75 17.9a8.093 8.093 0 01-2.327.638 4.066 4.066 0 001.781-2.241 8.119 8.119 0 01-2.573.983 4.055 4.055 0 00-6.904 3.696 11.507 11.507 0 01-8.353-4.234 4.056 4.056 0 001.255 5.41 4.022 4.022 0 01-1.837-.507v.051c0 1.93 1.36 3.59 3.251 3.973a4.042 4.042 0 01-1.83.07A4.057 4.057 0 0021 28.552a8.133 8.133 0 01-6 1.678 11.472 11.472 0 006.211 1.82" fill="#FFF" fill-rule="nonzero"/></g></svg><view id="youtube-mid-blue" viewBox="68 0 34 34"/><svg width="34" height="34" viewBox="-3.2 -3.2 54.4 54.4" x="68" xmlns="http://www.w3.org/2000/svg"><g fill="none" fill-rule="evenodd"><circle fill="#00C3F2" cx="24" cy="24" r="24"/><path d="M33.603 19.077a2.38 2.38 0 00-1.68-1.68C30.442 17 24.5 17 24.5 17s-5.941 0-7.423.397c-.82.22-1.46.86-1.68 1.68C15 20.559 15 23.65 15 23.65s0 3.092.397 4.573c.22.82.86 1.46 1.68 1.68 1.482.397 7.423.397 7.423.397s5.942 0 7.423-.397a2.38 2.38 0 001.68-1.68C34 26.74 34 23.65 34 23.65s0-3.091-.397-4.573zM22.6 26.5v-5.7l4.936 2.85L22.6 26.5z" fill="#FFF" fill-rule="nonzero"/></g></svg><view id="youtube-navy" viewBox="34 0 34 34"/><svg width="34" height="34" viewBox="-3.2 -3.2 54.4 54.4" x="34" xmlns="http://www.w3.org/2000/svg"><g fill="none" fill-rule="evenodd"><circle fill="#000046" cx="24" cy="24" r="24"/><path d="M33.603 19.077a2.38 2.38 0 00-1.68-1.68C30.442 17 24.5 17 24.5 17s-5.941 0-7.423.397c-.82.22-1.46.86-1.68 1.68C15 20.559 15 23.65 15 23.65s0 3.092.397 4.573c.22.82.86 1.46 1.68 1.68 1.482.397 7.423.397 7.423.397s5.942 0 7.423-.397a2.38 2.38 0 001.68-1.68C34 26.74 34 23.65 34 23.65s0-3.091-.397-4.573zM22.6 26.5v-5.7l4.936 2.85L22.6 26.5z" fill="#FFF" fill-rule="nonzero"/></g></svg></svg>