<?xml version="1.0" standalone="no"?>
<!DOCTYPE svg PUBLIC "-//W3C//DTD SVG 1.1//EN" "http://www.w3.org/Graphics/SVG/1.1/DTD/svg11.dtd" >
<svg xmlns="http://www.w3.org/2000/svg" xmlns:xlink="http://www.w3.org/1999/xlink" version="1.1">
<metadata>
Created by FontForge 20190801 at Fri Jun 22 11:55:59 2018
 By Jimmy Wärting
Copyright (c) 2018 by George Triantafyllakos and Bacardi. All rights reserved.
</metadata>
<defs>
<font id="SapphireSans" horiz-adv-x="944" >
  <font-face 
    font-family="SapphireSans"
    font-weight="400"
    font-stretch="normal"
    units-per-em="2048"
    panose-1="2 0 8 0 0 0 0 2 0 3"
    ascent="1536"
    descent="-512"
    x-height="983"
    cap-height="983"
    bbox="-156 -461 1632 1589"
    underline-thickness="102"
    underline-position="-204"
    unicode-range="U+0020-2265"
  />
<missing-glyph horiz-adv-x="819" 
 />
    <glyph glyph-name=".notdef" horiz-adv-x="819" 
 />
    <glyph glyph-name=".null" horiz-adv-x="0" 
 />
    <glyph glyph-name="nonmarkingreturn" horiz-adv-x="681" 
 />
    <glyph glyph-name="space" unicode=" " horiz-adv-x="512" 
 />
    <glyph glyph-name="exclam" unicode="!" horiz-adv-x="491" 
d="M160 86q0 34 26 60t60 26t60 -26t26 -60t-26 -60t-60 -26t-60 26t-26 60zM188 348l-10 656h127l-10 -656h-107z" />
    <glyph glyph-name="quotedbl" unicode="&#x22;" horiz-adv-x="671" 
d="M406 614l-21 369h127l-20 -369h-86zM180 614l-20 369h127l-21 -369h-86z" />
    <glyph glyph-name="numbersign" unicode="#" horiz-adv-x="1253" 
d="M547 608l-92 -260h231l92 260h-231zM102 236v112h236l92 260h-205v113h246l143 405h117l-143 -405h231l144 405h116l-143 -405h215v-113h-256l-92 -260h225v-112h-264l-156 -441h-116l155 441h-231l-156 -441h-117l156 441h-197z" />
    <glyph glyph-name="dollar" unicode="$" 
d="M715 270q0 101 -114 144q-50 18 -155 41t-172 59q-131 72 -131 219q0 117 79 187t202 81v125h117v-125q119 -14 197 -87t83 -193l-119 -25q0 96 -64 147q-65 50 -159 50t-153 -42q-60 -42 -60 -116q-1 -131 203 -172q84 -16 168 -38t143 -82q60 -61 60 -173t-86 -188
t-213 -90v-197h-117v197q-131 12 -222 79t-100 171l121 32q0 -76 80 -120t173 -45t166 41t73 120z" />
    <glyph glyph-name="percent" unicode="%" horiz-adv-x="1150" 
d="M352 0l346 983h105l-346 -983h-105zM635 197q0 84 61 145q62 61 146 61t145 -61t61 -145q0 -83 -60 -145q-62 -62 -146 -62t-146 61q-61 62 -61 146zM841 309q-44 -1 -78 -35t-34 -78t34 -78t78 -34t79 34q34 34 34 78t-34 78t-79 35zM102 782q0 84 62 146t145 61
q83 0 145 -61q62 -62 62 -146t-61 -145t-145 -61t-146 60q-62 62 -62 146zM308 895q-44 0 -78 -35t-33 -79q-1 -44 33 -78q34 -33 78 -33t79 34t35 77q0 44 -35 79t-79 35z" />
    <glyph glyph-name="ampersand" unicode="&#x26;" horiz-adv-x="1230" 
d="M468 918q-54 0 -90 -44t-36 -112t33 -156q67 41 101 65q34 23 65 61t30 75q0 111 -103 111zM506 76q51 0 86 8q-162 133 -277 371q-104 -76 -104 -169q0 -94 78 -152t217 -58zM942 362q0 -174 -133 -286q112 -41 198 -1q42 19 60 48q39 62 43 106v19l100 -27
q0 -23 -22 -80t-52 -91t-89 -62t-149 -29q-90 0 -198 53q-94 -37 -202 -37q-207 0 -303 84q-97 83 -97 223t178 261q-49 127 -49 207q0 120 69 192t172 72q104 0 160 -51t56 -142q0 -166 -272 -303q123 -252 297 -385q125 83 125 231t-89 267l113 14q84 -109 84 -283z" />
    <glyph glyph-name="quotesingle" unicode="'" horiz-adv-x="446" 
d="M180 614l-20 369h127l-21 -369h-86z" />
    <glyph glyph-name="parenleft" unicode="(" horiz-adv-x="563" 
d="M221 492q0 -186 76 -332t199 -223l-58 -99q-150 96 -242 272t-94 378q0 204 88 372t238 275l64 -93q-119 -76 -195 -220t-76 -330z" />
    <glyph glyph-name="parenright" unicode=")" horiz-adv-x="602" 
d="M289 492q0 186 -76 330t-195 220l64 93q150 -107 238 -275t88 -372t-93 -379t-243 -271l-58 99q123 78 199 223q76 146 76 332z" />
    <glyph glyph-name="asterisk" unicode="*" horiz-adv-x="595" 
d="M387 551l-84 166l-84 -166l-102 76l133 131l-184 26l38 121l166 -86l-30 185h127l-31 -185l166 86l39 -121l-185 -26l133 -131z" />
    <glyph glyph-name="plus" unicode="+" horiz-adv-x="851" 
d="M692 424h-207v-211h-120v211h-205v113h205v208h120v-208h207v-113z" />
    <glyph glyph-name="comma" unicode="," horiz-adv-x="491" 
d="M246 172q34 0 60 -26t26 -53t-10 -48l-103 -178l-45 27l62 106q-33 4 -55 29q-21 25 -21 59t26 58q26 26 60 26z" />
    <glyph glyph-name="hyphen" unicode="-" horiz-adv-x="851" 
d="M692 424h-532v113h532v-113z" />
    <glyph glyph-name="period" unicode="." horiz-adv-x="491" 
d="M160 86q0 34 26 60t60 26t60 -26t26 -60t-26 -60t-60 -26t-60 26t-26 60z" />
    <glyph glyph-name="slash" unicode="/" horiz-adv-x="907" 
d="M160 -205l471 1331h117l-472 -1331h-116z" />
    <glyph glyph-name="zero" unicode="0" horiz-adv-x="940" 
d="M719 480q0 192 -69 300q-68 108 -182 109q-114 0 -180 -108t-67 -300q0 -193 79 -291t170 -98t170 98t79 290zM102 482q0 230 98 376t273 146q174 0 269 -146q96 -146 96 -372q0 -228 -102 -367t-273 -139q-173 0 -267 136t-94 366z" />
    <glyph glyph-name="one" unicode="1" horiz-adv-x="489" 
d="M102 872v111h228v-983h-117v872h-111z" />
    <glyph glyph-name="two" unicode="2" horiz-adv-x="851" 
d="M418 1012q144 0 226 -85q83 -85 83 -208q0 -166 -124 -326t-304 -282h451v-111h-658v80q203 139 359 306t155 314q0 92 -56 144t-146 53q-90 0 -142 -58q-53 -58 -55 -167l-107 28q2 144 88 228t230 84z" />
    <glyph glyph-name="three" unicode="3" horiz-adv-x="856" 
d="M416 98q112 0 178 54t66 138q0 83 -78 136t-179 53q-47 0 -86 -12l-24 78l272 321h-411v115h571v-82l-276 -324q121 1 225 -77t104 -207t-96 -217t-252 -88q-225 0 -338 147l72 84q37 -49 113 -84t139 -35z" />
    <glyph glyph-name="four" unicode="4" horiz-adv-x="868" 
d="M659 981v-698h107v-109h-107v-174h-116v176h-471v90l405 715h182zM543 283v589l-8 2l-336 -591h344z" />
    <glyph glyph-name="five" unicode="5" horiz-adv-x="880" 
d="M471 602q121 0 214 -80t93 -217t-96 -228t-252 -91q-225 0 -338 147l80 92q39 -51 113 -88q75 -37 157 -37t149 56t67 144q0 87 -69 137t-175 50t-183 -53l-106 64l57 485h539v-111h-434l-35 -317q98 47 219 47z" />
    <glyph glyph-name="six" unicode="6" horiz-adv-x="921" 
d="M680 288q0 75 -49 128t-125 53q-76 1 -148 -37t-110 -104q12 -111 85 -173q73 -63 155 -63t138 60q54 60 54 136zM510 582q131 0 211 -86t80 -203t-92 -215t-215 -98q-190 0 -291 134t-101 366t96 378q96 145 271 146q115 0 197 -62t112 -151l-108 -52q-70 152 -197 152
q-102 -1 -177 -107t-75 -288l6 -54q51 68 127 104t156 36z" />
    <glyph glyph-name="seven" unicode="7" horiz-adv-x="776" 
d="M72 870v111h612v-82l-299 -899h-127l297 870h-483z" />
    <glyph glyph-name="eight" unicode="8" horiz-adv-x="911" 
d="M456 565q90 0 146 43q57 43 57 126t-59 128t-149 45q-89 0 -145 -48t-55 -129t58 -123t147 -42zM459 446q-111 0 -173 -56t-61 -137q0 -81 66 -132t161 -51q94 0 164 53t70 133t-58 135t-169 55zM809 252q0 -125 -104 -206q-103 -81 -249 -81t-250 77q-103 77 -104 204
q0 82 52 158t153 108q-76 18 -125 76t-49 151q0 131 93 203q94 72 232 72t230 -71t92 -206q0 -84 -56 -143t-132 -82q106 -25 162 -101q55 -77 55 -159z" />
    <glyph glyph-name="nine" unicode="9" horiz-adv-x="927" 
d="M450 891q-104 -1 -166 -63t-62 -161t58 -149t143 -51t161 39t110 108q-12 123 -76 200t-168 77zM424 360q-135 0 -228 75q-94 75 -94 223t94 247q94 98 253 99q212 0 294 -159t82 -377t-100 -353t-270 -135q-125 0 -214 62t-118 169l106 43q59 -160 220 -160
q117 0 191 98t75 293l-6 2q-111 -127 -285 -127z" />
    <glyph glyph-name="colon" unicode=":" horiz-adv-x="491" 
d="M160 528q0 35 25 61q26 25 61 25q34 0 60 -26t26 -60t-26 -60t-60 -26t-60 26t-26 60zM160 86q0 34 26 60t60 26t60 -26t26 -60t-26 -60t-60 -26t-60 26t-26 60z" />
    <glyph glyph-name="semicolon" unicode=";" horiz-adv-x="491" 
d="M160 528q0 35 25 61q26 25 61 25q34 0 60 -26t26 -60t-26 -60t-60 -26t-60 26t-26 60zM246 172q34 0 60 -26t26 -53t-10 -48l-103 -178l-45 27l62 106q-33 4 -55 29q-21 25 -21 59t26 58q26 26 60 26z" />
    <glyph glyph-name="less" unicode="&#x3c;" horiz-adv-x="851" 
d="M160 537l532 286v-112l-428 -232l428 -229v-117l-532 287v117z" />
    <glyph glyph-name="equal" unicode="=" horiz-adv-x="851" 
d="M692 281h-532v112h532v-112zM692 567h-532v113h532v-113z" />
    <glyph glyph-name="greater" unicode="&#x3e;" horiz-adv-x="851" 
d="M692 420l-532 -287v113l428 231l-428 230v116l532 -286v-117z" />
    <glyph glyph-name="question" unicode="?" horiz-adv-x="851" 
d="M319 86q0 34 26 60t61 26q34 0 60 -26t26 -60t-26 -60t-60 -26t-61 26q-26 26 -26 60zM418 1012q144 0 226 -85q83 -85 83 -214t-93 -240t-228 -174l-54 82q98 45 176 135t78 183t-56 145t-146 53q-90 0 -142 -58q-53 -58 -55 -167l-107 28q2 144 88 228t230 84z" />
    <glyph glyph-name="at" unicode="@" horiz-adv-x="1146" 
d="M655 457v178h-82q-53 0 -81 -39t-29 -94q0 -137 108 -137q31 0 58 23q26 24 26 69zM756 723v-287q0 -39 22 -59t47 -21q115 0 115 219q0 150 -99 247t-239 98q-182 0 -288 -130t-105 -310q0 -180 122 -297q123 -115 279 -115t283 86l47 -84q-150 -98 -319 -99
q-211 1 -365 141t-154 365t132 381t368 156q184 0 313 -122t129 -304t-66 -252t-161 -70q-41 0 -77 22t-44 50q-51 -74 -139 -74t-142 71t-55 163q0 92 52 158t147 67h197z" />
    <glyph glyph-name="A" unicode="A" horiz-adv-x="1140" 
d="M668 983l401 -983h-135l-78 180h-577l-76 -180h-131l411 983h185zM575 899l-258 -612h506z" />
    <glyph glyph-name="B" unicode="B" horiz-adv-x="1067" 
d="M160 0v983h434q150 0 236 -78t85 -182q1 -68 -39 -126t-110 -87q100 -29 149 -91t50 -140q0 -119 -79 -199t-265 -80h-461zM287 440v-334h334q102 0 160 52t59 121q0 69 -58 115t-161 46h-334zM287 874v-333h284q106 0 164 45q57 45 57 118q0 74 -58 122t-161 48h-286z
" />
    <glyph glyph-name="C" unicode="C" horiz-adv-x="1120" 
d="M612 -20q-224 0 -367 137t-143 367t136 375q136 146 362 147q143 0 253 -56t151 -157q41 -102 12 -222l-121 -14q12 37 12 92t-24 101q-70 143 -283 143q-178 -1 -276 -109t-97 -294q0 -186 112 -287q112 -103 283 -103t330 109l64 -92q-180 -137 -404 -137z" />
    <glyph glyph-name="D" unicode="D" horiz-adv-x="1220" 
d="M160 0v983h483q229 0 352 -145t123 -346q0 -200 -123 -346t-352 -146h-483zM293 111h285q213 0 312 106q99 105 99 275t-103 276t-304 106h-289v-763z" />
    <glyph glyph-name="E" unicode="E" 
d="M287 866v-329h469v-113h-469v-305h565v-119h-692v983h667v-117h-540z" />
    <glyph glyph-name="F" unicode="F" horiz-adv-x="919" 
d="M287 866v-438h467v-111h-467v-317h-127v983h667v-117h-540z" />
    <glyph glyph-name="G" unicode="G" horiz-adv-x="1214" 
d="M596 -20q-226 0 -360 136t-134 366t136 377q136 146 362 147q143 0 253 -56t151 -157q41 -102 12 -222l-121 -14q12 37 12 92t-24 101q-70 143 -283 143q-178 0 -275 -109t-97 -295t102 -287t270 -102q225 0 363 228h-275v104h424v-430h-111v209q-67 -127 -183 -179
t-222 -52z" />
    <glyph glyph-name="H" unicode="H" horiz-adv-x="1212" 
d="M287 424v-424h-127v983h127v-446h639v446h127v-983h-127v424h-639z" />
    <glyph glyph-name="I" unicode="I" horiz-adv-x="446" 
d="M160 0v983h127v-983h-127z" />
    <glyph glyph-name="J" unicode="J" horiz-adv-x="669" 
d="M387 399v584h123v-559q0 -213 -119 -328t-319 -114v116q315 0 315 301z" />
    <glyph glyph-name="K" unicode="K" horiz-adv-x="1091" 
d="M287 432v-432h-127v983h127v-436h266q291 432 293 436h145l-329 -483l337 -500h-157l-289 432h-266z" />
    <glyph glyph-name="L" unicode="L" horiz-adv-x="872" 
d="M160 0v983h127v-864h493v-119h-620z" />
    <glyph glyph-name="M" unicode="M" horiz-adv-x="1497" 
d="M287 0h-127v983h215l381 -829l364 829h217v-983h-127v887l-395 -887h-125l-403 868v-868z" />
    <glyph glyph-name="N" unicode="N" horiz-adv-x="1245" 
d="M1085 983v-983h-118l-680 784v-784h-127v983h102l696 -793v793h127z" />
    <glyph glyph-name="O" unicode="O" horiz-adv-x="1247" 
d="M102 487q0 223 148 375t379 152t373 -150t142 -373t-146 -369q-148 -146 -382 -146t-374 144t-140 367zM229 490q0 -170 110 -286t284 -116q173 0 283 116t110 286t-111 290q-111 119 -283 119t-283 -119q-110 -119 -110 -290z" />
    <glyph glyph-name="P" unicode="P" horiz-adv-x="1079" 
d="M160 0v983h456q154 0 257 -112q103 -113 103 -259t-102 -258q-104 -112 -278 -110h-309v-244h-127zM287 874v-516h278q135 0 210 71t75 176t-73 183t-208 86h-282z" />
    <glyph glyph-name="Q" unicode="Q" horiz-adv-x="1253" 
d="M225 490q0 -172 111 -288t275 -116t255 70l-239 243l90 90l237 -237q68 106 68 237q0 172 -113 293t-287 121t-286 -120q-111 -120 -111 -293zM629 1014q231 0 373 -150t143 -375q0 -184 -107 -323l113 -113l-90 -90l-115 115q-137 -102 -323 -103q-240 1 -380 145
q-141 144 -141 367t148 375t379 152z" />
    <glyph glyph-name="R" unicode="R" horiz-adv-x="1075" 
d="M283 244v-244h-123v983h432q166 0 274 -120t107 -265q0 -96 -47 -186t-129 -129l153 -283h-143l-131 244h-393zM283 874v-524h301q132 0 198 73t66 176t-72 182t-201 93h-292z" />
    <glyph glyph-name="S" unicode="S" 
d="M715 270q0 101 -114 144q-50 18 -155 41t-172 59q-131 72 -131 211q1 139 99 210t238 71t238 -74t103 -211l-119 -25q0 96 -64 147q-65 50 -159 50t-153 -42q-60 -42 -60 -116q-1 -131 203 -172q84 -16 168 -38t143 -82q60 -61 60 -179t-106 -197t-252 -79
q-148 0 -260 68t-120 186l121 32q0 -76 80 -120t173 -45t166 41t73 120z" />
    <glyph glyph-name="T" unicode="T" horiz-adv-x="860" 
d="M72 870v113h716v-113h-296v-870h-127v870h-293z" />
    <glyph glyph-name="U" unicode="U" horiz-adv-x="1077" 
d="M848 408v575h127v-565q0 -209 -119 -323q-120 -113 -320 -113t-317 114t-117 324v563h127v-577q0 -134 83 -216t225 -81q311 0 311 299z" />
    <glyph glyph-name="V" unicode="V" horiz-adv-x="1052" 
d="M72 983h143l315 -833l316 833h135l-383 -983h-137z" />
    <glyph glyph-name="W" unicode="W" horiz-adv-x="1703" 
d="M772 983h160l295 -879l278 879h127l-317 -983h-178l-287 858l-275 -858h-182l-321 983h127l288 -879z" />
    <glyph glyph-name="X" unicode="X" horiz-adv-x="1044" 
d="M801 0l-279 416l-278 -416h-152l338 492l-330 491h150l276 -408l273 408h145l-330 -491l338 -492h-151z" />
    <glyph glyph-name="Y" unicode="Y" horiz-adv-x="1052" 
d="M590 0h-127v229l-391 754h143l315 -639l316 639h135l-391 -768v-215z" />
    <glyph glyph-name="Z" unicode="Z" horiz-adv-x="999" 
d="M131 866v117h715v-123l-565 -741h591v-119h-745v104l584 762h-580z" />
    <glyph glyph-name="bracketleft" unicode="[" horiz-adv-x="518" 
d="M266 1024v-1126h185v-103h-301v1331h301v-102h-185z" />
    <glyph glyph-name="backslash" unicode="\" horiz-adv-x="907" 
d="M276 1126l472 -1331h-117l-471 1331h116z" />
    <glyph glyph-name="bracketright" unicode="]" horiz-adv-x="600" 
d="M334 -102v1126h-184v102h301v-1331h-301v103h184z" />
    <glyph glyph-name="asciicircum" unicode="^" horiz-adv-x="903" 
d="M612 1126l-161 183l-162 -183h-129l225 246h133l225 -246h-131z" />
    <glyph glyph-name="underscore" unicode="_" horiz-adv-x="1245" 
d="M1085 0h-925v113h925v-113z" />
    <glyph glyph-name="grave" unicode="`" horiz-adv-x="690" 
d="M487 1126l-362 152l53 106l352 -182z" />
    <glyph glyph-name="a" unicode="a" horiz-adv-x="1140" 
d="M668 983l401 -983h-135l-78 180h-577l-76 -180h-131l411 983h185zM575 899l-258 -612h506z" />
    <glyph glyph-name="b" unicode="b" horiz-adv-x="1067" 
d="M160 0v983h434q150 0 236 -78t85 -182q1 -68 -39 -126t-110 -87q100 -29 149 -91t50 -140q0 -119 -79 -199t-265 -80h-461zM287 440v-334h334q102 0 160 52t59 121q0 69 -58 115t-161 46h-334zM287 874v-333h284q106 0 164 45q57 45 57 118q0 74 -58 122t-161 48h-286z
" />
    <glyph glyph-name="c" unicode="c" horiz-adv-x="1120" 
d="M612 -20q-224 0 -367 137t-143 367t136 375q136 146 362 147q143 0 253 -56t151 -157q41 -102 12 -222l-121 -14q12 37 12 92t-24 101q-70 143 -283 143q-178 -1 -276 -109t-97 -294q0 -186 112 -287q112 -103 283 -103t330 109l64 -92q-180 -137 -404 -137z" />
    <glyph glyph-name="d" unicode="d" horiz-adv-x="1220" 
d="M160 0v983h483q229 0 352 -145t123 -346q0 -200 -123 -346t-352 -146h-483zM293 111h285q213 0 312 106q99 105 99 275t-103 276t-304 106h-289v-763z" />
    <glyph glyph-name="e" unicode="e" 
d="M287 866v-329h469v-113h-469v-305h565v-119h-692v983h667v-117h-540z" />
    <glyph glyph-name="f" unicode="f" horiz-adv-x="919" 
d="M287 866v-438h467v-111h-467v-317h-127v983h667v-117h-540z" />
    <glyph glyph-name="g" unicode="g" horiz-adv-x="1214" 
d="M596 -20q-226 0 -360 136t-134 366t136 377q136 146 362 147q143 0 253 -56t151 -157q41 -102 12 -222l-121 -14q12 37 12 92t-24 101q-70 143 -283 143q-178 0 -275 -109t-97 -295t102 -287t270 -102q225 0 363 228h-275v104h424v-430h-111v209q-67 -127 -183 -179
t-222 -52z" />
    <glyph glyph-name="h" unicode="h" horiz-adv-x="1212" 
d="M287 424v-424h-127v983h127v-446h639v446h127v-983h-127v424h-639z" />
    <glyph glyph-name="i" unicode="i" horiz-adv-x="446" 
d="M160 0v983h127v-983h-127z" />
    <glyph glyph-name="j" unicode="j" horiz-adv-x="669" 
d="M387 399v584h123v-559q0 -213 -119 -328t-319 -114v116q315 0 315 301z" />
    <glyph glyph-name="k" unicode="k" horiz-adv-x="1091" 
d="M287 432v-432h-127v983h127v-436h266q291 432 293 436h145l-329 -483l337 -500h-157l-289 432h-266z" />
    <glyph glyph-name="l" unicode="l" horiz-adv-x="872" 
d="M160 0v983h127v-864h493v-119h-620z" />
    <glyph glyph-name="m" unicode="m" horiz-adv-x="1497" 
d="M287 0h-127v983h215l381 -829l364 829h217v-983h-127v887l-395 -887h-125l-403 868v-868z" />
    <glyph glyph-name="n" unicode="n" horiz-adv-x="1245" 
d="M1085 983v-983h-118l-680 784v-784h-127v983h102l696 -793v793h127z" />
    <glyph glyph-name="o" unicode="o" horiz-adv-x="1247" 
d="M102 487q0 223 148 375t379 152t373 -150t142 -373t-146 -369q-148 -146 -382 -146t-374 144t-140 367zM229 490q0 -170 110 -286t284 -116q173 0 283 116t110 286t-111 290q-111 119 -283 119t-283 -119q-110 -119 -110 -290z" />
    <glyph glyph-name="p" unicode="p" horiz-adv-x="1079" 
d="M160 0v983h456q154 0 257 -112q103 -113 103 -259t-102 -258q-104 -112 -278 -110h-309v-244h-127zM287 874v-516h278q135 0 210 71t75 176t-73 183t-208 86h-282z" />
    <glyph glyph-name="q" unicode="q" horiz-adv-x="1253" 
d="M225 490q0 -172 111 -288t275 -116t255 70l-239 243l90 90l237 -237q68 106 68 237q0 172 -113 293t-287 121t-286 -120q-111 -120 -111 -293zM629 1014q231 0 373 -150t143 -375q0 -184 -107 -323l113 -113l-90 -90l-115 115q-137 -102 -323 -103q-240 1 -380 145
q-141 144 -141 367t148 375t379 152z" />
    <glyph glyph-name="r" unicode="r" horiz-adv-x="1075" 
d="M283 244v-244h-123v983h432q166 0 274 -120t107 -265q0 -96 -47 -186t-129 -129l153 -283h-143l-131 244h-393zM283 874v-524h301q132 0 198 73t66 176t-72 182t-201 93h-292z" />
    <glyph glyph-name="s" unicode="s" 
d="M715 270q0 101 -114 144q-50 18 -155 41t-172 59q-131 72 -131 211q1 139 99 210t238 71t238 -74t103 -211l-119 -25q0 96 -64 147q-65 50 -159 50t-153 -42q-60 -42 -60 -116q-1 -131 203 -172q84 -16 168 -38t143 -82q60 -61 60 -179t-106 -197t-252 -79
q-148 0 -260 68t-120 186l121 32q0 -76 80 -120t173 -45t166 41t73 120z" />
    <glyph glyph-name="t" unicode="t" horiz-adv-x="860" 
d="M72 870v113h716v-113h-296v-870h-127v870h-293z" />
    <glyph glyph-name="u" unicode="u" horiz-adv-x="1077" 
d="M848 408v575h127v-565q0 -209 -119 -323q-120 -113 -320 -113t-317 114t-117 324v563h127v-577q0 -134 83 -216t225 -81q311 0 311 299z" />
    <glyph glyph-name="v" unicode="v" horiz-adv-x="1052" 
d="M72 983h143l315 -833l316 833h135l-383 -983h-137z" />
    <glyph glyph-name="w" unicode="w" horiz-adv-x="1703" 
d="M772 983h160l295 -879l278 879h127l-317 -983h-178l-287 858l-275 -858h-182l-321 983h127l288 -879z" />
    <glyph glyph-name="x" unicode="x" horiz-adv-x="1044" 
d="M801 0l-279 416l-278 -416h-152l338 492l-330 491h150l276 -408l273 408h145l-330 -491l338 -492h-151z" />
    <glyph glyph-name="y" unicode="y" horiz-adv-x="1052" 
d="M590 0h-127v229l-391 754h143l315 -639l316 639h135l-391 -768v-215z" />
    <glyph glyph-name="z" unicode="z" horiz-adv-x="983" 
d="M123 866v117h715v-123l-566 -741h592v-119h-745v104l583 762h-579z" />
    <glyph glyph-name="braceleft" unicode="{" horiz-adv-x="563" 
d="M211 270q0 74 -36 120t-83 46v99q47 0 84 45t37 120q0 174 49 266t174 167l58 -91q-100 -63 -132 -129t-32 -221q0 -113 -111 -200q2 -2 26 -24q62 -56 72 -107q11 -50 11 -89q0 -147 32 -209q34 -60 136 -126l-54 -95q-127 66 -179 161t-52 267z" />
    <glyph glyph-name="bar" unicode="|" horiz-adv-x="436" 
d="M160 -205v1331h116v-1331h-116z" />
    <glyph glyph-name="braceright" unicode="}" horiz-adv-x="563" 
d="M233 692q1 156 -31 222t-132 128l57 91q125 -74 174 -166t49 -267q0 -76 37 -120t84 -45v-99q-47 0 -83 -46t-36 -120q0 -172 -52 -267t-179 -161l-53 95q102 67 135 127t33 176t25 157t53 67t30 28q-111 88 -111 200z" />
    <glyph glyph-name="asciitilde" unicode="~" horiz-adv-x="970" 
d="M598 385q-53 0 -139 34q-87 33 -137 33t-109 -51l-53 91q88 74 176 73q57 0 138 -35t122 -34q68 0 162 82l53 -91q-117 -102 -213 -102z" />
    <glyph glyph-name="exclamdown" unicode="&#xa1;" horiz-adv-x="491" 
d="M160 713q0 35 26 61t60 25q34 0 60 -26q26 -27 26 -61t-26 -60t-60 -26t-61 26q-25 26 -25 61zM178 -205l10 656h107l10 -656h-127z" />
    <glyph glyph-name="cent" unicode="&#xa2;" horiz-adv-x="1120" 
d="M649 -205h-117v191q-194 24 -312 158t-118 342t116 351q116 142 314 164v125h117v-122q127 -10 221 -64t135 -151q41 -98 11 -218l-121 -14q12 37 12 92t-24 101q-70 143 -283 143q-178 -1 -276 -109t-97 -294q0 -186 112 -287q112 -103 283 -103t330 109l64 -92
q-166 -125 -367 -135v-187z" />
    <glyph glyph-name="sterling" unicode="&#xa3;" horiz-adv-x="851" 
d="M92 346v107h135q-8 25 -60 115t-52 151q0 123 83 208t226 85t229 -84t88 -228q-50 -12 -74 -20t-32 -8q-2 109 -55 167q-52 58 -142 58t-145 -52t-55 -145q0 -47 49 -132t61 -115h283v-107h-262q-4 -76 -40 -142t-96 -93h496v-111h-637v111q150 84 154 235h-154z" />
    <glyph glyph-name="currency" unicode="&#xa4;" horiz-adv-x="1058" 
d="M844 403q0 129 -92 221t-222 93q-130 -1 -221 -93q-92 -92 -92 -221t92 -221t221 -92t222 92q92 92 92 221zM102 403q0 113 54 209l-140 136l84 83l125 -131q123 129 301 129t301 -122l121 124l80 -79l-131 -134q59 -96 59 -214t-57 -214l129 -122l-82 -86l-117 116
q-123 -123 -303 -123t-307 134l-121 -123l-80 80l136 133q-52 91 -52 204z" />
    <glyph glyph-name="yen" unicode="&#xa5;" horiz-adv-x="1052" 
d="M885 530v-106h-189l-49 -96h238v-107h-293l-2 -6v-215h-127v221h-307v107h256l-52 96h-204v106h149l-233 453h143l315 -639l316 639h135l-231 -453h135z" />
    <glyph glyph-name="brokenbar" unicode="&#xa6;" horiz-adv-x="436" 
d="M276 1126v-589h-116v589h116zM160 -205v629h116v-629h-116z" />
    <glyph glyph-name="section" unicode="&#xa7;" 
d="M719 69q0 128 -210 169q-87 16 -174 36t-149 80t-61 164h127q0 -57 44 -91t110 -46q160 -29 282 -76q66 -25 110 -84t44 -151q0 -129 -109 -203t-251 -74t-249 77q-106 77 -110 212l119 24q0 -94 74 -145t170 -51q97 0 165 43t68 116zM478 975q-96 0 -164 -43t-68 -116
q0 -131 210 -169q87 -17 174 -37t148 -80t62 -163h-127q0 57 -44 91t-110 46q-65 12 -141 32t-142 44q-66 25 -110 84t-43 151q0 129 108 203q109 74 251 74t248 -77t112 -212l-119 -25q0 94 -74 146t-171 51z" />
    <glyph glyph-name="dieresis" unicode="&#xa8;" horiz-adv-x="819" 
d="M487 1214q0 35 26 61q27 25 61 25t60 -26t26 -60t-26 -60t-61 -26t-61 26t-25 60zM160 1214q0 35 25 61q26 25 61 25q34 0 60 -26t26 -60t-26 -60t-60 -26t-60 26t-26 60z" />
    <glyph glyph-name="copyright" unicode="&#xa9;" horiz-adv-x="1058" 
d="M403 402q0 -62 38 -97q37 -35 97 -35t136 54l47 -68q-92 -72 -187 -72q-96 0 -156 60t-60 156q0 98 56 160q58 62 144 62t142 -38q56 -39 57 -113q0 -29 -12 -53l-87 -12q28 82 -19 114q-30 20 -79 20t-83 -37q-34 -39 -34 -101zM182 402q0 -142 102 -244t245 -102
q141 0 245 102t104 244t-102 246q-104 104 -246 104t-246 -104q-102 -104 -102 -246zM102 402q0 176 125 302t302 126t302 -126q125 -124 125 -302t-125 -302q-125 -125 -302 -125t-302 125t-125 302z" />
    <glyph glyph-name="guillemotleft" unicode="&#xab;" horiz-adv-x="1060" 
d="M467 475l375 352l59 -75l-295 -273l295 -270l-59 -76zM160 475l375 352l59 -75l-295 -273l295 -270l-59 -76z" />
    <glyph glyph-name="logicalnot" unicode="&#xac;" horiz-adv-x="1245" 
d="M1085 139h-106v285h-819v113h925v-398z" />
    <glyph glyph-name="uni00AD" unicode="&#xad;" horiz-adv-x="851" 
d="M692 424h-532v113h532v-113z" />
    <glyph glyph-name="registered" unicode="&#xae;" horiz-adv-x="1058" 
d="M530 936q-142 0 -246 -104q-102 -104 -102 -245q0 -143 102 -245t245 -102q142 0 246 102q103 102 103 244t-102 246q-104 104 -246 104zM102 587q0 177 125 302t302 125t302 -125t125 -302t-125 -302t-302 -125t-302 125t-125 302zM459 479v-94h-88v422h188
q74 0 121 -53t47 -126t-59 -122l65 -121h-102l-51 94h-121zM459 725v-166h96q41 0 63 24q22 25 21 57q0 32 -24 56t-66 29h-90z" />
    <glyph glyph-name="macron" unicode="&#xaf;" horiz-adv-x="851" 
d="M651 1120h-450v103h450v-103z" />
    <glyph glyph-name="degree" unicode="&#xb0;" horiz-adv-x="565" 
d="M68 781q0 89 63 153t151 63q88 0 152 -63q64 -64 64 -152t-64 -151t-152 -63q-90 0 -152 62t-62 151zM158 781q0 -52 36 -88t88 -36t89 37t37 88t-37 88t-88 37t-88 -37t-37 -89z" />
    <glyph glyph-name="plusminus" unicode="&#xb1;" horiz-adv-x="851" 
d="M692 0h-532v113h532v-113zM692 424h-207v-211h-120v211h-205v113h205v208h120v-208h207v-113z" />
    <glyph glyph-name="twosuperior" unicode="&#xb2;" horiz-adv-x="473" 
d="M401 836q0 -137 -186 -275h199v-92h-363v68q254 174 254 290q0 37 -22 58q-23 20 -57 20q-72 0 -76 -114l-95 20q2 88 49 138t126 50q79 -1 125 -47t46 -116z" />
    <glyph glyph-name="threesuperior" unicode="&#xb3;" horiz-adv-x="475" 
d="M229 557q39 -1 64 19t25 52t-26 58q-24 26 -85 27q-16 0 -27 -2l-20 55l125 149h-209v86h323v-65l-129 -156q76 -4 111 -52t35 -110t-56 -106q-56 -45 -133 -45q-110 0 -178 92l68 68q43 -70 112 -70z" />
    <glyph glyph-name="acute" unicode="&#xb4;" horiz-adv-x="690" 
d="M524 1278l-362 -152l-43 76l354 176z" />
    <glyph glyph-name="mu" unicode="&#xb5;" horiz-adv-x="1497" 
d="M287 0h-127v983h215l381 -829l364 829h217v-983h-127v887l-395 -887h-125l-403 868v-868z" />
    <glyph glyph-name="paragraph" unicode="&#xb6;" horiz-adv-x="1079" 
d="M229 605q0 -105 75 -176t210 -71h135v516h-139q-135 -8 -208 -86t-73 -183zM649 -205v449h-166q-174 0 -277 112q-104 112 -104 257q0 146 104 258t257 112h457v-1188h-127v1079h-62v-1079h-82z" />
    <glyph glyph-name="periodcentered" unicode="&#xb7;" horiz-adv-x="491" 
d="M160 528q0 35 25 61q26 25 61 25q34 0 60 -26t26 -60t-26 -60t-60 -26t-60 26t-26 60z" />
    <glyph glyph-name="cedilla" unicode="&#xb8;" horiz-adv-x="634" 
d="M348 -57q57 0 92 -34t35 -87t-44 -96t-107 -43q-106 0 -164 65l26 74q59 -59 127 -60q35 0 55 18t21 42q0 25 -22 41q-23 16 -53 16t-56 -4l-35 47l29 78h84l-25 -63q18 6 37 6z" />
    <glyph glyph-name="onesuperior" unicode="&#xb9;" horiz-adv-x="256" 
d="M51 897v92h150v-516h-95v424h-55z" />
    <glyph glyph-name="guillemotright" unicode="&#xbb;" horiz-adv-x="1060" 
d="M526 827l375 -352l-375 -342l-59 76l295 270l-295 273zM219 827l375 -352l-375 -342l-59 76l295 270l-295 273z" />
    <glyph glyph-name="onequarter" unicode="&#xbc;" horiz-adv-x="1017" 
d="M899 504v-338h53v-94h-53v-82h-96v84h-228v65l207 365h117zM803 166v196l-115 -196h115zM61 897v92h150v-516h-94v424h-56zM180 0l471 983h97l-472 -983h-96z" />
    <glyph glyph-name="onehalf" unicode="&#xbd;" horiz-adv-x="1017" 
d="M975 365q0 -137 -187 -275h199v-92h-362v68q254 174 254 290q0 38 -23 58q-22 20 -56 20t-54 -30t-23 -85l-94 21q2 88 49 138t126 50t125 -46t46 -117zM61 897v92h150v-516h-94v424h-56zM180 0l471 983h97l-472 -983h-96z" />
    <glyph glyph-name="threequarters" unicode="&#xbe;" horiz-adv-x="1085" 
d="M201 557q39 -1 63 19t25 52q0 32 -25 58t-86 27q-16 0 -26 -2l-21 55l125 149h-209v86h324v-65l-129 -156q76 -4 110 -52t35 -110q0 -62 -55 -106q-55 -45 -133 -45q-111 0 -179 92l68 68q43 -70 113 -70zM967 504v-338h53v-94h-53v-82h-97v84h-227v65l207 365h117z
M870 166v196l-114 -196h114zM248 0l471 983h96l-471 -983h-96z" />
    <glyph glyph-name="questiondown" unicode="&#xbf;" horiz-adv-x="851" 
d="M508 721q0 -35 -26 -61t-60 -26t-61 26q-26 26 -25 61q0 35 26 61t60 25q34 1 60 -25t26 -61zM410 -205q-143 0 -227 85q-83 85 -83 214t94 240t228 174l53 -82q-98 -45 -176 -135q-78 -89 -78 -183q1 -94 57 -146t145 -52t142 58t56 167q7 0 106 -29q-2 -143 -88 -227
t-229 -84z" />
    <glyph glyph-name="Agrave" unicode="&#xc0;" horiz-adv-x="1140" 
d="M731 1126l-362 152l53 106l352 -182zM668 983l401 -983h-135l-78 180h-577l-76 -180h-131l411 983h185zM575 899l-258 -612h506z" />
    <glyph glyph-name="Aacute" unicode="&#xc1;" horiz-adv-x="1140" 
d="M760 1278l-363 -152l-43 76l353 182zM668 983l401 -983h-135l-78 180h-577l-76 -180h-131l411 983h185zM575 899l-258 -612h506z" />
    <glyph glyph-name="Acircumflex" unicode="&#xc2;" horiz-adv-x="1140" 
d="M668 983l401 -983h-135l-78 180h-577l-76 -180h-131l411 983h185zM575 899l-258 -612h506zM735 1126l-162 183l-161 -183h-129l225 246h133l225 -246h-131z" />
    <glyph glyph-name="Atilde" unicode="&#xc3;" horiz-adv-x="1140" 
d="M481 1298q33 0 90 -34t88 -35q31 0 70 27t64 51l55 -80q-115 -100 -189 -101q-45 0 -99 34t-89 34t-123 -72l-51 80q117 96 184 96zM668 983l401 -983h-135l-78 180h-577l-76 -180h-131l411 983h185zM575 899l-258 -612h506z" />
    <glyph glyph-name="Adieresis" unicode="&#xc4;" horiz-adv-x="1140" 
d="M668 983l401 -983h-135l-78 180h-577l-76 -180h-131l411 983h185zM575 899l-258 -612h506zM651 1214q0 35 26 61q27 25 61 25t60 -26t26 -60t-26 -60t-61 -26t-61 26t-25 60zM324 1214q0 35 25 61q26 25 61 25q34 0 60 -26t26 -60t-26 -60t-60 -26t-60 26t-26 60z" />
    <glyph glyph-name="Aring" unicode="&#xc5;" horiz-adv-x="1140" 
d="M481 1109q0 -40 28 -67q29 -26 67 -26t66 28t28 66q0 39 -28 67q-28 27 -67 27t-67 -28t-27 -67zM575 899l-258 -612h506zM414 1100q0 76 47 124t113 48t115 -48q48 -48 48 -122t-67 -125l399 -977h-135l-78 180h-577l-76 -180h-131l409 977q-67 47 -67 123z" />
    <glyph glyph-name="AE" unicode="&#xc6;" horiz-adv-x="1693" 
d="M909 326v458l-397 -458h397zM1577 983v-117h-541v-329h469v-113h-469v-305h566v-119h-693v219h-489l-191 -219h-147l862 983h633z" />
    <glyph glyph-name="Ccedilla" unicode="&#xc7;" horiz-adv-x="1120" 
d="M666 -57q57 0 92 -34t35 -87t-44 -96t-108 -43q-106 0 -164 65l27 74q59 -59 127 -60q35 0 55 18t21 42q0 25 -23 41t-53 16t-56 -4l-34 47l20 60q-207 16 -333 152t-126 358t136 367q136 146 362 147q143 0 253 -56t151 -157q41 -102 12 -222l-121 -14q12 37 12 92
t-24 101q-70 143 -283 143q-178 -1 -276 -109t-97 -294q0 -186 112 -287q112 -103 283 -103t330 109l64 -92q-164 -125 -371 -135l-16 -45q18 6 37 6z" />
    <glyph glyph-name="Egrave" unicode="&#xc8;" 
d="M651 1126l-362 152l53 106l352 -182zM287 866v-329h469v-113h-469v-305h565v-119h-692v983h667v-117h-540z" />
    <glyph glyph-name="Eacute" unicode="&#xc9;" 
d="M688 1278l-362 -152l-43 76l352 182zM287 866v-329h469v-113h-469v-305h565v-119h-692v983h667v-117h-540z" />
    <glyph glyph-name="Ecircumflex" unicode="&#xca;" 
d="M287 866v-329h469v-113h-469v-305h565v-119h-692v983h667v-117h-540zM653 1126l-161 183l-162 -183h-129l225 246h133l225 -246h-131z" />
    <glyph glyph-name="Edieresis" unicode="&#xcb;" 
d="M287 866v-329h469v-113h-469v-305h565v-119h-692v983h667v-117h-540zM584 1214q0 35 25 61q26 25 61 25q34 0 60 -26t26 -60t-26 -60t-60 -26t-60 26t-26 60zM256 1214q0 35 26 61q26 25 60 25t60 -26t26 -60t-26 -60t-60 -26t-60 26t-26 60z" />
    <glyph glyph-name="Igrave" unicode="&#xcc;" horiz-adv-x="446" 
d="M393 1126l-362 152l53 106l352 -182zM160 0v983h127v-983h-127z" />
    <glyph glyph-name="Iacute" unicode="&#xcd;" horiz-adv-x="446" 
d="M426 1278l-363 -152l-43 76l353 182zM160 0v983h127v-983h-127z" />
    <glyph glyph-name="Icircumflex" unicode="&#xce;" horiz-adv-x="446" 
d="M387 1126l-162 183l-162 -183h-129l226 246h133l225 -246h-131zM160 0v983h127v-983h-127z" />
    <glyph glyph-name="Idieresis" unicode="&#xcf;" horiz-adv-x="450" 
d="M160 0v983h127v-983h-127zM303 1214q0 35 26 61q27 25 61 25t60 -26t26 -60t-26 -60t-61 -26t-61 26t-25 60zM-25 1214q0 35 26 61q27 25 61 25t60 -26t26 -60t-26 -60t-61 -26t-61 26t-25 60z" />
    <glyph glyph-name="Eth" unicode="&#xd0;" horiz-adv-x="1251" 
d="M324 111h284q213 0 313 106q99 105 99 275t-104 276t-304 106h-288v-337h208v-113h-208v-313zM190 0v424h-190v113h190v446h484q229 0 352 -145t123 -346q0 -200 -123 -346t-352 -146h-484z" />
    <glyph glyph-name="Ntilde" unicode="&#xd1;" horiz-adv-x="1245" 
d="M704 1229q61 0 140 78l55 -80q-115 -100 -188 -101q-45 0 -99 34t-90 34q-35 0 -123 -72l-51 80q117 96 184 96q32 0 90 -34t82 -35zM1085 983v-983h-118l-680 784v-784h-127v983h102l696 -793v793h127z" />
    <glyph glyph-name="Ograve" unicode="&#xd2;" horiz-adv-x="1247" 
d="M774 1126l-362 152l53 106l352 -182zM102 487q0 223 148 375t379 152t373 -150t142 -373t-146 -369q-148 -146 -382 -146t-374 144t-140 367zM229 490q0 -170 110 -286t284 -116q173 0 283 116t110 286t-111 290q-111 119 -283 119t-283 -119q-110 -119 -110 -290z" />
    <glyph glyph-name="Oacute" unicode="&#xd3;" horiz-adv-x="1247" 
d="M791 1278l-363 -152l-43 76l352 182zM102 487q0 223 148 375t379 152t373 -150t142 -373t-146 -369q-148 -146 -382 -146t-374 144t-140 367zM229 490q0 -170 110 -286t284 -116q173 0 283 116t110 286t-111 290q-111 119 -283 119t-283 -119q-110 -119 -110 -290z" />
    <glyph glyph-name="Ocircumflex" unicode="&#xd4;" horiz-adv-x="1247" 
d="M766 1126l-162 183l-162 -183h-129l226 246h133l225 -246h-131zM102 487q0 223 148 375t379 152t373 -150t142 -373t-146 -369q-148 -146 -382 -146t-374 144t-140 367zM229 490q0 -170 110 -286t284 -116q173 0 283 116t110 286t-111 290q-111 119 -283 119t-283 -119
q-110 -119 -110 -290z" />
    <glyph glyph-name="Otilde" unicode="&#xd5;" horiz-adv-x="1247" 
d="M516 1298q33 0 90 -34t88 -35q32 0 52 14q64 44 81 64l56 -80q-115 -100 -189 -101q-45 0 -99 34t-89 34t-123 -72l-51 80q117 96 184 96zM102 487q0 223 148 375t379 152t373 -150t142 -373t-146 -369q-148 -146 -382 -146t-374 144t-140 367zM229 490q0 -170 110 -286
t284 -116q173 0 283 116t110 286t-111 290q-111 119 -283 119t-283 -119q-110 -119 -110 -290z" />
    <glyph glyph-name="Odieresis" unicode="&#xd6;" horiz-adv-x="1247" 
d="M102 487q0 223 148 375t379 152t373 -150t142 -373t-146 -369q-148 -146 -382 -146t-374 144t-140 367zM229 490q0 -170 110 -286t284 -116q173 0 283 116t110 286t-111 290q-111 119 -283 119t-283 -119q-110 -119 -110 -290zM682 1214q0 35 26 61q26 25 60 25t60 -26
t26 -60t-26 -60t-60 -26t-60 26t-26 60zM354 1214q0 35 26 61q26 25 60 25t61 -26q25 -26 25 -60t-26 -60t-60 -26t-60 26t-26 60z" />
    <glyph glyph-name="multiply" unicode="&#xd7;" horiz-adv-x="780" 
d="M618 629l-149 -152l149 -143l-81 -86l-150 151l-145 -147l-80 80l149 147l-151 146l84 84l147 -154l148 154z" />
    <glyph glyph-name="Oslash" unicode="&#xd8;" horiz-adv-x="1247" 
d="M1016 489q0 115 -54 211t-149 150l-266 -756q37 -6 76 -6q173 0 283 116t110 285zM229 489q1 -119 57 -216t154 -146l271 762q-47 10 -88 10q-174 0 -284 -119t-110 -291zM102 489q0 221 148 373t373 152q55 0 127 -15l45 127h116l-57 -159q137 -61 214 -189t77 -289
q1 -221 -147 -367t-375 -147q-57 0 -115 11l-68 -191h-116l77 219q-141 58 -220 184t-79 291z" />
    <glyph glyph-name="Ugrave" unicode="&#xd9;" horiz-adv-x="1077" 
d="M709 1126l-363 152l53 106l353 -182zM848 408v575h127v-565q0 -209 -119 -323q-120 -113 -320 -113t-317 114t-117 324v563h127v-577q0 -134 83 -216t225 -81q311 0 311 299z" />
    <glyph glyph-name="Uacute" unicode="&#xda;" horiz-adv-x="1077" 
d="M727 1278l-362 -152l-43 76l352 182zM848 408v575h127v-565q0 -209 -119 -323q-120 -113 -320 -113t-317 114t-117 324v563h127v-577q0 -134 83 -216t225 -81q311 0 311 299z" />
    <glyph glyph-name="Ucircumflex" unicode="&#xdb;" horiz-adv-x="1077" 
d="M692 1126l-162 183l-161 -183h-129l225 246h133l225 -246h-131zM848 408v575h127v-565q0 -209 -119 -323q-120 -113 -320 -113t-317 114t-117 324v563h127v-577q0 -134 83 -216t225 -81q311 0 311 299z" />
    <glyph glyph-name="Udieresis" unicode="&#xdc;" horiz-adv-x="1077" 
d="M612 1214q0 35 26 61q26 25 60 25t61 -26q25 -26 25 -60t-26 -60t-60 -26t-60 26t-26 60zM285 1214q0 35 25 61q26 25 61 25t61 -26t25 -60q0 -34 -26 -60q-27 -26 -61 -26t-60 26t-25 60zM848 408v575h127v-565q0 -209 -119 -323q-120 -113 -320 -113t-317 114t-117 324
v563h127v-577q0 -134 83 -216t225 -81q311 0 311 299z" />
    <glyph glyph-name="Yacute" unicode="&#xdd;" horiz-adv-x="1052" 
d="M711 1278l-363 -152l-43 76l352 182zM590 0h-127v229l-391 754h143l315 -639l316 639h135l-391 -768v-215z" />
    <glyph glyph-name="Thorn" unicode="&#xde;" horiz-adv-x="1079" 
d="M160 0v983h127v-139h329q156 0 258 -102t102 -248q0 -144 -102 -246q-104 -102 -278 -103h-309v-145h-127zM287 735v-475h278q137 0 211 62t74 164q0 103 -72 172t-209 77h-282z" />
    <glyph glyph-name="germandbls" unicode="&#xdf;" horiz-adv-x="1218" 
d="M772 782q0 -22 -12 -68t-12 -87t40 -72t100 -46q58 -15 118 -35t100 -74q41 -54 41 -142q1 -131 -103 -201q-104 -69 -252 -69t-262 68q-113 68 -120 186l120 32q0 -76 80 -120t176 -45q96 1 166 33t70 100t-41 105q-41 36 -99 52q-58 17 -118 35t-100 60q-41 42 -41 112
q0 25 12 70t12 74q0 61 -49 102t-131 41t-131 -41t-49 -115v-737h-127v737q0 131 89 200t219 69t217 -64t87 -160z" />
    <glyph glyph-name="agrave" unicode="&#xe0;" horiz-adv-x="1140" 
d="M731 1126l-362 152l53 106l352 -182zM668 983l401 -983h-135l-78 180h-577l-76 -180h-131l411 983h185zM575 899l-258 -612h506z" />
    <glyph glyph-name="aacute" unicode="&#xe1;" horiz-adv-x="1140" 
d="M760 1278l-363 -152l-43 76l353 182zM668 983l401 -983h-135l-78 180h-577l-76 -180h-131l411 983h185zM575 899l-258 -612h506z" />
    <glyph glyph-name="acircumflex" unicode="&#xe2;" horiz-adv-x="1140" 
d="M668 983l401 -983h-135l-78 180h-577l-76 -180h-131l411 983h185zM575 899l-258 -612h506zM735 1126l-162 183l-161 -183h-129l225 246h133l225 -246h-131z" />
    <glyph glyph-name="atilde" unicode="&#xe3;" horiz-adv-x="1140" 
d="M481 1298q33 0 90 -34t88 -35q31 0 70 27t64 51l55 -80q-115 -100 -189 -101q-45 0 -99 34t-89 34t-123 -72l-51 80q117 96 184 96zM668 983l401 -983h-135l-78 180h-577l-76 -180h-131l411 983h185zM575 899l-258 -612h506z" />
    <glyph glyph-name="adieresis" unicode="&#xe4;" horiz-adv-x="1140" 
d="M668 983l401 -983h-135l-78 180h-577l-76 -180h-131l411 983h185zM575 899l-258 -612h506zM651 1214q0 35 26 61q27 25 61 25t60 -26t26 -60t-26 -60t-61 -26t-61 26t-25 60zM324 1214q0 35 25 61q26 25 61 25q34 0 60 -26t26 -60t-26 -60t-60 -26t-60 26t-26 60z" />
    <glyph glyph-name="aring" unicode="&#xe5;" horiz-adv-x="1140" 
d="M481 1109q0 -40 28 -67q29 -26 67 -26t66 28t28 66q0 39 -28 67q-28 27 -67 27t-67 -28t-27 -67zM575 899l-258 -612h506zM414 1100q0 76 47 124t113 48t115 -48q48 -48 48 -122t-67 -125l399 -977h-135l-78 180h-577l-76 -180h-131l409 977q-67 47 -67 123z" />
    <glyph glyph-name="ae" unicode="&#xe6;" horiz-adv-x="1693" 
d="M909 326v458l-397 -458h397zM1577 983v-117h-541v-329h469v-113h-469v-305h566v-119h-693v219h-489l-191 -219h-147l862 983h633z" />
    <glyph glyph-name="ccedilla" unicode="&#xe7;" horiz-adv-x="1120" 
d="M666 -57q57 0 92 -34t35 -87t-44 -96t-108 -43q-106 0 -164 65l27 74q59 -59 127 -60q35 0 55 18t21 42q0 25 -23 41t-53 16t-56 -4l-34 47l20 60q-207 16 -333 152t-126 358t136 367q136 146 362 147q143 0 253 -56t151 -157q41 -102 12 -222l-121 -14q12 37 12 92
t-24 101q-70 143 -283 143q-178 -1 -276 -109t-97 -294q0 -186 112 -287q112 -103 283 -103t330 109l64 -92q-164 -125 -371 -135l-16 -45q18 6 37 6z" />
    <glyph glyph-name="egrave" unicode="&#xe8;" 
d="M651 1126l-362 152l53 106l352 -182zM287 866v-329h469v-113h-469v-305h565v-119h-692v983h667v-117h-540z" />
    <glyph glyph-name="eacute" unicode="&#xe9;" 
d="M688 1278l-362 -152l-43 76l352 182zM287 866v-329h469v-113h-469v-305h565v-119h-692v983h667v-117h-540z" />
    <glyph glyph-name="ecircumflex" unicode="&#xea;" 
d="M287 866v-329h469v-113h-469v-305h565v-119h-692v983h667v-117h-540zM653 1126l-161 183l-162 -183h-129l225 246h133l225 -246h-131z" />
    <glyph glyph-name="edieresis" unicode="&#xeb;" 
d="M287 866v-329h469v-113h-469v-305h565v-119h-692v983h667v-117h-540zM584 1214q0 35 25 61q26 25 61 25q34 0 60 -26t26 -60t-26 -60t-60 -26t-60 26t-26 60zM256 1214q0 35 26 61q26 25 60 25t60 -26t26 -60t-26 -60t-60 -26t-60 26t-26 60z" />
    <glyph glyph-name="igrave" unicode="&#xec;" horiz-adv-x="446" 
d="M393 1126l-362 152l53 106l352 -182zM160 0v983h127v-983h-127z" />
    <glyph glyph-name="iacute" unicode="&#xed;" horiz-adv-x="446" 
d="M426 1278l-363 -152l-43 76l353 182zM160 0v983h127v-983h-127z" />
    <glyph glyph-name="icircumflex" unicode="&#xee;" horiz-adv-x="446" 
d="M387 1126l-162 183l-162 -183h-129l226 246h133l225 -246h-131zM160 0v983h127v-983h-127z" />
    <glyph glyph-name="idieresis" unicode="&#xef;" horiz-adv-x="450" 
d="M160 0v983h127v-983h-127zM303 1214q0 35 26 61q27 25 61 25t60 -26t26 -60t-26 -60t-61 -26t-61 26t-25 60zM-25 1214q0 35 26 61q27 25 61 25t60 -26t26 -60t-26 -60t-61 -26t-61 26t-25 60z" />
    <glyph glyph-name="eth" unicode="&#xf0;" horiz-adv-x="1251" 
d="M324 111h284q213 0 313 106q99 105 99 275t-104 276t-304 106h-288v-337h208v-113h-208v-313zM190 0v424h-190v113h190v446h484q229 0 352 -145t123 -346q0 -200 -123 -346t-352 -146h-484z" />
    <glyph glyph-name="ntilde" unicode="&#xf1;" horiz-adv-x="1245" 
d="M704 1229q61 0 140 78l55 -80q-115 -100 -188 -101q-45 0 -99 34t-90 34q-35 0 -123 -72l-51 80q117 96 184 96q32 0 90 -34t82 -35zM1085 983v-983h-118l-680 784v-784h-127v983h102l696 -793v793h127z" />
    <glyph glyph-name="ograve" unicode="&#xf2;" horiz-adv-x="1247" 
d="M774 1126l-362 152l53 106l352 -182zM102 487q0 223 148 375t379 152t373 -150t142 -373t-146 -369q-148 -146 -382 -146t-374 144t-140 367zM229 490q0 -170 110 -286t284 -116q173 0 283 116t110 286t-111 290q-111 119 -283 119t-283 -119q-110 -119 -110 -290z" />
    <glyph glyph-name="oacute" unicode="&#xf3;" horiz-adv-x="1247" 
d="M791 1278l-363 -152l-43 76l352 182zM102 487q0 223 148 375t379 152t373 -150t142 -373t-146 -369q-148 -146 -382 -146t-374 144t-140 367zM229 490q0 -170 110 -286t284 -116q173 0 283 116t110 286t-111 290q-111 119 -283 119t-283 -119q-110 -119 -110 -290z" />
    <glyph glyph-name="ocircumflex" unicode="&#xf4;" horiz-adv-x="1247" 
d="M766 1126l-162 183l-162 -183h-129l226 246h133l225 -246h-131zM102 487q0 223 148 375t379 152t373 -150t142 -373t-146 -369q-148 -146 -382 -146t-374 144t-140 367zM229 490q0 -170 110 -286t284 -116q173 0 283 116t110 286t-111 290q-111 119 -283 119t-283 -119
q-110 -119 -110 -290z" />
    <glyph glyph-name="otilde" unicode="&#xf5;" horiz-adv-x="1247" 
d="M516 1298q33 0 90 -34t88 -35q32 0 52 14q64 44 81 64l56 -80q-115 -100 -189 -101q-45 0 -99 34t-89 34t-123 -72l-51 80q117 96 184 96zM102 487q0 223 148 375t379 152t373 -150t142 -373t-146 -369q-148 -146 -382 -146t-374 144t-140 367zM229 490q0 -170 110 -286
t284 -116q173 0 283 116t110 286t-111 290q-111 119 -283 119t-283 -119q-110 -119 -110 -290z" />
    <glyph glyph-name="odieresis" unicode="&#xf6;" horiz-adv-x="1247" 
d="M102 487q0 223 148 375t379 152t373 -150t142 -373t-146 -369q-148 -146 -382 -146t-374 144t-140 367zM229 490q0 -170 110 -286t284 -116q173 0 283 116t110 286t-111 290q-111 119 -283 119t-283 -119q-110 -119 -110 -290zM682 1214q0 35 26 61q26 25 60 25t60 -26
t26 -60t-26 -60t-60 -26t-60 26t-26 60zM354 1214q0 35 26 61q26 25 60 25t61 -26q25 -26 25 -60t-26 -60t-60 -26t-60 26t-26 60z" />
    <glyph glyph-name="divide" unicode="&#xf7;" horiz-adv-x="851" 
d="M334 696q0 35 25 61q26 25 61 25q34 0 60 -26t26 -60t-26 -60t-60 -26t-60 26t-26 60zM334 254q0 34 26 60t60 26t60 -26t26 -60t-26 -60t-60 -26t-60 26t-26 60zM692 424h-532v113h532v-113z" />
    <glyph glyph-name="oslash" unicode="&#xf8;" horiz-adv-x="1247" 
d="M1016 489q0 115 -54 211t-149 150l-266 -756q37 -6 76 -6q173 0 283 116t110 285zM229 489q1 -119 57 -216t154 -146l271 762q-47 10 -88 10q-174 0 -284 -119t-110 -291zM102 489q0 221 148 373t373 152q55 0 127 -15l45 127h116l-57 -159q137 -61 214 -189t77 -289
q1 -221 -147 -367t-375 -147q-57 0 -115 11l-68 -191h-116l77 219q-141 58 -220 184t-79 291z" />
    <glyph glyph-name="ugrave" unicode="&#xf9;" horiz-adv-x="1077" 
d="M709 1126l-363 152l53 106l353 -182zM848 408v575h127v-565q0 -209 -119 -323q-120 -113 -320 -113t-317 114t-117 324v563h127v-577q0 -134 83 -216t225 -81q311 0 311 299z" />
    <glyph glyph-name="uacute" unicode="&#xfa;" horiz-adv-x="1077" 
d="M727 1278l-362 -152l-43 76l352 182zM848 408v575h127v-565q0 -209 -119 -323q-120 -113 -320 -113t-317 114t-117 324v563h127v-577q0 -134 83 -216t225 -81q311 0 311 299z" />
    <glyph glyph-name="ucircumflex" unicode="&#xfb;" horiz-adv-x="1077" 
d="M692 1126l-162 183l-161 -183h-129l225 246h133l225 -246h-131zM848 408v575h127v-565q0 -209 -119 -323q-120 -113 -320 -113t-317 114t-117 324v563h127v-577q0 -134 83 -216t225 -81q311 0 311 299z" />
    <glyph glyph-name="udieresis" unicode="&#xfc;" horiz-adv-x="1077" 
d="M612 1214q0 35 26 61q26 25 60 25t61 -26q25 -26 25 -60t-26 -60t-60 -26t-60 26t-26 60zM285 1214q0 35 25 61q26 25 61 25t61 -26t25 -60q0 -34 -26 -60q-27 -26 -61 -26t-60 26t-25 60zM848 408v575h127v-565q0 -209 -119 -323q-120 -113 -320 -113t-317 114t-117 324
v563h127v-577q0 -134 83 -216t225 -81q311 0 311 299z" />
    <glyph glyph-name="yacute" unicode="&#xfd;" horiz-adv-x="1052" 
d="M711 1278l-363 -152l-43 76l352 182zM590 0h-127v229l-391 754h143l315 -639l316 639h135l-391 -768v-215z" />
    <glyph glyph-name="thorn" unicode="&#xfe;" horiz-adv-x="1079" 
d="M160 0v983h127v-139h329q156 0 258 -102t102 -248q0 -144 -102 -246q-104 -102 -278 -103h-309v-145h-127zM287 735v-475h278q137 0 211 62t74 164q0 103 -72 172t-209 77h-282z" />
    <glyph glyph-name="ydieresis" unicode="&#xff;" horiz-adv-x="1052" 
d="M606 1214q0 35 26 61q26 25 60 25t61 -26q25 -26 25 -60t-26 -60t-60 -26t-60 26t-26 60zM279 1214q0 35 25 61q26 25 61 25t61 -26t25 -60q0 -34 -26 -60q-27 -26 -61 -26t-60 26t-25 60zM590 0h-127v229l-391 754h143l315 -639l316 639h135l-391 -768v-215z" />
    <glyph glyph-name="Amacron" unicode="&#x100;" horiz-adv-x="1140" 
d="M801 1120h-451v103h451v-103zM668 983l401 -983h-135l-78 180h-577l-76 -180h-131l411 983h185zM575 899l-258 -612h506z" />
    <glyph glyph-name="amacron" unicode="&#x101;" horiz-adv-x="1140" 
d="M801 1120h-451v103h451v-103zM668 983l401 -983h-135l-78 180h-577l-76 -180h-131l411 983h185zM575 899l-258 -612h506z" />
    <glyph glyph-name="Abreve" unicode="&#x102;" horiz-adv-x="1140" 
d="M356 1335h90q0 -53 37 -89t88 -36t88 37t37 88h90q0 -88 -63 -151q-63 -64 -151 -64t-152 62t-64 153zM668 983l401 -983h-135l-78 180h-577l-76 -180h-131l411 983h185zM575 899l-258 -612h506z" />
    <glyph glyph-name="abreve" unicode="&#x103;" horiz-adv-x="1140" 
d="M356 1335h90q0 -53 37 -89t88 -36t88 37t37 88h90q0 -88 -63 -151q-63 -64 -151 -64t-152 62t-64 153zM668 983l401 -983h-135l-78 180h-577l-76 -180h-131l411 983h185zM575 899l-258 -612h506z" />
    <glyph glyph-name="Aogonek" unicode="&#x104;" horiz-adv-x="1140" 
d="M575 899l-258 -612h506zM997 -101q0 -60 60 -61q37 0 65 21l41 -64q-45 -41 -111 -41t-104 34q-37 34 -37 96t50 116h-27l-78 180h-577l-76 -180h-131l411 983h185l401 -983q-72 -41 -72 -101z" />
    <glyph glyph-name="aogonek" unicode="&#x105;" horiz-adv-x="1140" 
d="M575 899l-258 -612h506zM997 -101q0 -60 60 -61q37 0 65 21l41 -64q-45 -41 -111 -41t-104 34q-37 34 -37 96t50 116h-27l-78 180h-577l-76 -180h-131l411 983h185l401 -983q-72 -41 -72 -101z" />
    <glyph glyph-name="Cacute" unicode="&#x106;" horiz-adv-x="1120" 
d="M791 1278l-363 -152l-43 76l352 182zM612 -20q-224 0 -367 137t-143 367t136 375q136 146 362 147q143 0 253 -56t151 -157q41 -102 12 -222l-121 -14q12 37 12 92t-24 101q-70 143 -283 143q-178 -1 -276 -109t-97 -294q0 -186 112 -287q112 -103 283 -103t330 109
l64 -92q-180 -137 -404 -137z" />
    <glyph glyph-name="cacute" unicode="&#x107;" horiz-adv-x="1120" 
d="M791 1278l-363 -152l-43 76l352 182zM612 -20q-224 0 -367 137t-143 367t136 375q136 146 362 147q143 0 253 -56t151 -157q41 -102 12 -222l-121 -14q12 37 12 92t-24 101q-70 143 -283 143q-178 -1 -276 -109t-97 -294q0 -186 112 -287q112 -103 283 -103t330 109
l64 -92q-180 -137 -404 -137z" />
    <glyph glyph-name="Ccircumflex" unicode="&#x108;" horiz-adv-x="1120" 
d="M756 1126l-162 183l-162 -183h-129l225 246h134l225 -246h-131zM612 -20q-224 0 -367 137t-143 367t136 375q136 146 362 147q143 0 253 -56t151 -157q41 -102 12 -222l-121 -14q12 37 12 92t-24 101q-70 143 -283 143q-178 -1 -276 -109t-97 -294q0 -186 112 -287
q112 -103 283 -103t330 109l64 -92q-180 -137 -404 -137z" />
    <glyph glyph-name="ccircumflex" unicode="&#x109;" horiz-adv-x="1120" 
d="M756 1126l-162 183l-162 -183h-129l225 246h134l225 -246h-131zM612 -20q-224 0 -367 137t-143 367t136 375q136 146 362 147q143 0 253 -56t151 -157q41 -102 12 -222l-121 -14q12 37 12 92t-24 101q-70 143 -283 143q-178 -1 -276 -109t-97 -294q0 -186 112 -287
q112 -103 283 -103t330 109l64 -92q-180 -137 -404 -137z" />
    <glyph glyph-name="Cdotaccent" unicode="&#x10a;" horiz-adv-x="1120" 
d="M612 -20q-224 0 -367 137t-143 367t136 375q136 146 362 147q143 0 253 -56t151 -157q41 -102 12 -222l-121 -14q12 37 12 92t-24 101q-70 143 -283 143q-178 -1 -276 -109t-97 -294q0 -186 112 -287q112 -103 283 -103t330 109l64 -92q-180 -137 -404 -137zM489 1192
q0 34 26 60q27 26 61 26t60 -26t26 -60t-26 -60t-61 -26t-61 26t-25 60z" />
    <glyph glyph-name="cdotaccent" unicode="&#x10b;" horiz-adv-x="1120" 
d="M612 -20q-224 0 -367 137t-143 367t136 375q136 146 362 147q143 0 253 -56t151 -157q41 -102 12 -222l-121 -14q12 37 12 92t-24 101q-70 143 -283 143q-178 -1 -276 -109t-97 -294q0 -186 112 -287q112 -103 283 -103t330 109l64 -92q-180 -137 -404 -137zM489 1192
q0 34 26 60q27 26 61 26t60 -26t26 -60t-26 -60t-61 -26t-61 26t-25 60z" />
    <glyph glyph-name="Ccaron" unicode="&#x10c;" horiz-adv-x="1120" 
d="M573 1190l162 182h131l-225 -246h-133l-225 246h129zM612 -20q-224 0 -367 137t-143 367t136 375q136 146 362 147q143 0 253 -56t151 -157q41 -102 12 -222l-121 -14q12 37 12 92t-24 101q-70 143 -283 143q-178 -1 -276 -109t-97 -294q0 -186 112 -287
q112 -103 283 -103t330 109l64 -92q-180 -137 -404 -137z" />
    <glyph glyph-name="ccaron" unicode="&#x10d;" horiz-adv-x="1120" 
d="M573 1190l162 182h131l-225 -246h-133l-225 246h129zM612 -20q-224 0 -367 137t-143 367t136 375q136 146 362 147q143 0 253 -56t151 -157q41 -102 12 -222l-121 -14q12 37 12 92t-24 101q-70 143 -283 143q-178 -1 -276 -109t-97 -294q0 -186 112 -287
q112 -103 283 -103t330 109l64 -92q-180 -137 -404 -137z" />
    <glyph glyph-name="Dcaron" unicode="&#x10e;" horiz-adv-x="1220" 
d="M553 1190l162 182h131l-225 -246h-134l-225 246h129zM160 0v983h483q229 0 352 -145t123 -346q0 -200 -123 -346t-352 -146h-483zM293 111h285q213 0 312 106q99 105 99 275t-103 276t-304 106h-289v-763z" />
    <glyph glyph-name="dcaron" unicode="&#x10f;" horiz-adv-x="1220" 
d="M553 1190l162 182h131l-225 -246h-134l-225 246h129zM160 0v983h483q229 0 352 -145t123 -346q0 -200 -123 -346t-352 -146h-483zM293 111h285q213 0 312 106q99 105 99 275t-103 276t-304 106h-289v-763z" />
    <glyph glyph-name="Dcroat" unicode="&#x110;" horiz-adv-x="1251" 
d="M324 111h284q213 0 313 106q99 105 99 275t-104 276t-304 106h-288v-337h208v-113h-208v-313zM190 0v424h-190v113h190v446h484q229 0 352 -145t123 -346q0 -200 -123 -346t-352 -146h-484z" />
    <glyph glyph-name="dcroat" unicode="&#x111;" horiz-adv-x="1251" 
d="M324 111h284q213 0 313 106q99 105 99 275t-104 276t-304 106h-288v-337h208v-113h-208v-313zM190 0v424h-190v113h190v446h484q229 0 352 -145t123 -346q0 -200 -123 -346t-352 -146h-484z" />
    <glyph glyph-name="Emacron" unicode="&#x112;" 
d="M715 1120h-451v103h451v-103zM287 866v-329h469v-113h-469v-305h565v-119h-692v983h667v-117h-540z" />
    <glyph glyph-name="emacron" unicode="&#x113;" 
d="M715 1120h-451v103h451v-103zM287 866v-329h469v-113h-469v-305h565v-119h-692v983h667v-117h-540z" />
    <glyph glyph-name="Ebreve" unicode="&#x114;" 
d="M283 1335h90q0 -53 37 -89t88 -36t88 37t37 88h90q1 -88 -63 -151q-64 -64 -152 -64t-152 62t-63 153zM287 866v-329h469v-113h-469v-305h565v-119h-692v983h667v-117h-540z" />
    <glyph glyph-name="ebreve" unicode="&#x115;" 
d="M283 1335h90q0 -53 37 -89t88 -36t88 37t37 88h90q1 -88 -63 -151q-64 -64 -152 -64t-152 62t-63 153zM287 866v-329h469v-113h-469v-305h565v-119h-692v983h667v-117h-540z" />
    <glyph glyph-name="Edotaccent" unicode="&#x116;" 
d="M416 1192q0 34 26 60t60 26t60 -26t26 -60t-26 -60t-60 -26t-60 26t-26 60zM287 866v-329h469v-113h-469v-305h565v-119h-692v983h667v-117h-540z" />
    <glyph glyph-name="edotaccent" unicode="&#x117;" 
d="M416 1192q0 34 26 60t60 26t60 -26t26 -60t-26 -60t-60 -26t-60 26t-26 60zM287 866v-329h469v-113h-469v-305h565v-119h-692v983h667v-117h-540z" />
    <glyph glyph-name="Eogonek" unicode="&#x118;" 
d="M287 866v-329h469v-113h-469v-305h565v-119q-72 -41 -72 -101t60 -61q37 0 65 21l41 -64q-46 -41 -112 -41t-103 34t-37 96t49 116h-583v983h667v-117h-540z" />
    <glyph glyph-name="eogonek" unicode="&#x119;" 
d="M287 866v-329h469v-113h-469v-305h565v-119q-72 -41 -72 -101t60 -61q37 0 65 21l41 -64q-46 -41 -112 -41t-103 34t-37 96t49 116h-583v983h667v-117h-540z" />
    <glyph glyph-name="Ecaron" unicode="&#x11a;" horiz-adv-x="903" 
d="M496 1190l161 182h131l-225 -246h-133l-225 246h129zM287 866v-329h469v-113h-469v-305h565v-119h-692v983h667v-117h-540z" />
    <glyph glyph-name="ecaron" unicode="&#x11b;" horiz-adv-x="903" 
d="M496 1190l161 182h131l-225 -246h-133l-225 246h129zM287 866v-329h469v-113h-469v-305h565v-119h-692v983h667v-117h-540z" />
    <glyph glyph-name="Gcircumflex" unicode="&#x11c;" horiz-adv-x="1214" 
d="M756 1126l-162 183l-162 -183h-129l225 246h134l225 -246h-131zM596 -20q-226 0 -360 136t-134 366t136 377q136 146 362 147q143 0 253 -56t151 -157q41 -102 12 -222l-121 -14q12 37 12 92t-24 101q-70 143 -283 143q-178 0 -275 -109t-97 -295t102 -287t270 -102
q225 0 363 228h-275v104h424v-430h-111v209q-67 -127 -183 -179t-222 -52z" />
    <glyph glyph-name="gcircumflex" unicode="&#x11d;" horiz-adv-x="1214" 
d="M756 1126l-162 183l-162 -183h-129l225 246h134l225 -246h-131zM596 -20q-226 0 -360 136t-134 366t136 377q136 146 362 147q143 0 253 -56t151 -157q41 -102 12 -222l-121 -14q12 37 12 92t-24 101q-70 143 -283 143q-178 0 -275 -109t-97 -295t102 -287t270 -102
q225 0 363 228h-275v104h424v-430h-111v209q-67 -127 -183 -179t-222 -52z" />
    <glyph glyph-name="Gbreve" unicode="&#x11e;" horiz-adv-x="1214" 
d="M385 1335h90q0 -53 37 -89t88 -36t88 37t37 88h90q0 -88 -63 -151q-64 -64 -152 -64t-152 62t-63 153zM596 -20q-226 0 -360 136t-134 366t136 377q136 146 362 147q143 0 253 -56t151 -157q41 -102 12 -222l-121 -14q12 37 12 92t-24 101q-70 143 -283 143
q-178 0 -275 -109t-97 -295t102 -287t270 -102q225 0 363 228h-275v104h424v-430h-111v209q-67 -127 -183 -179t-222 -52z" />
    <glyph glyph-name="gbreve" unicode="&#x11f;" horiz-adv-x="1214" 
d="M385 1335h90q0 -53 37 -89t88 -36t88 37t37 88h90q0 -88 -63 -151q-64 -64 -152 -64t-152 62t-63 153zM596 -20q-226 0 -360 136t-134 366t136 377q136 146 362 147q143 0 253 -56t151 -157q41 -102 12 -222l-121 -14q12 37 12 92t-24 101q-70 143 -283 143
q-178 0 -275 -109t-97 -295t102 -287t270 -102q225 0 363 228h-275v104h424v-430h-111v209q-67 -127 -183 -179t-222 -52z" />
    <glyph glyph-name="Gdotaccent" unicode="&#x120;" horiz-adv-x="1214" 
d="M504 1192q0 34 26 60t60 26t60 -26t26 -60t-26 -60t-60 -26t-60 26t-26 60zM596 -20q-226 0 -360 136t-134 366t136 377q136 146 362 147q143 0 253 -56t151 -157q41 -102 12 -222l-121 -14q12 37 12 92t-24 101q-70 143 -283 143q-178 0 -275 -109t-97 -295t102 -287
t270 -102q225 0 363 228h-275v104h424v-430h-111v209q-67 -127 -183 -179t-222 -52z" />
    <glyph glyph-name="gdotaccent" unicode="&#x121;" horiz-adv-x="1214" 
d="M504 1192q0 34 26 60t60 26t60 -26t26 -60t-26 -60t-60 -26t-60 26t-26 60zM596 -20q-226 0 -360 136t-134 366t136 377q136 146 362 147q143 0 253 -56t151 -157q41 -102 12 -222l-121 -14q12 37 12 92t-24 101q-70 143 -283 143q-178 0 -275 -109t-97 -295t102 -287
t270 -102q225 0 363 228h-275v104h424v-430h-111v209q-67 -127 -183 -179t-222 -52z" />
    <glyph glyph-name="uni0122" unicode="&#x122;" horiz-adv-x="1214" 
d="M487 -240q0 34 26 59q27 25 61 25t60 -26q43 -42 15 -101l-102 -178l-45 27l61 106q-33 4 -55 29t-21 59zM596 -20q-226 0 -360 136t-134 366t136 377q136 146 362 147q143 0 253 -56t151 -157q41 -102 12 -222l-121 -14q12 37 12 92t-24 101q-70 143 -283 143
q-178 0 -275 -109t-97 -295t102 -287t270 -102q225 0 363 228h-275v104h424v-430h-111v209q-67 -127 -183 -179t-222 -52z" />
    <glyph glyph-name="uni0123" unicode="&#x123;" horiz-adv-x="1214" 
d="M487 -240q0 34 26 59q27 25 61 25t60 -26q43 -42 15 -101l-102 -178l-45 27l61 106q-33 4 -55 29t-21 59zM596 -20q-226 0 -360 136t-134 366t136 377q136 146 362 147q143 0 253 -56t151 -157q41 -102 12 -222l-121 -14q12 37 12 92t-24 101q-70 143 -283 143
q-178 0 -275 -109t-97 -295t102 -287t270 -102q225 0 363 228h-275v104h424v-430h-111v209q-67 -127 -183 -179t-222 -52z" />
    <glyph glyph-name="Hcircumflex" unicode="&#x124;" horiz-adv-x="1212" 
d="M760 1126l-162 183l-162 -183h-129l225 246h134l225 -246h-131zM287 424v-424h-127v983h127v-446h639v446h127v-983h-127v424h-639z" />
    <glyph glyph-name="hcircumflex" unicode="&#x125;" horiz-adv-x="1212" 
d="M760 1126l-162 183l-162 -183h-129l225 246h134l225 -246h-131zM287 424v-424h-127v983h127v-446h639v446h127v-983h-127v424h-639z" />
    <glyph glyph-name="Hbar" unicode="&#x126;" horiz-adv-x="1212" 
d="M287 537h639v153h-639v-153zM1194 690h-141v-690h-127v424h-639v-424h-127v690h-144v113h144v180h127v-180h639v180h127v-180h141v-113z" />
    <glyph glyph-name="hbar" unicode="&#x127;" horiz-adv-x="1212" 
d="M287 537h639v153h-639v-153zM1194 690h-141v-690h-127v424h-639v-424h-127v690h-144v113h144v180h127v-180h639v180h127v-180h141v-113z" />
    <glyph glyph-name="Itilde" unicode="&#x128;" horiz-adv-x="446" 
d="M131 1298q33 0 90 -34t88 -35q31 0 52 14q64 44 81 64l56 -80q-115 -100 -189 -101q-45 0 -99 34t-89 34t-123 -72l-51 80q117 96 184 96zM160 0v983h127v-983h-127z" />
    <glyph glyph-name="itilde" unicode="&#x129;" horiz-adv-x="446" 
d="M131 1298q33 0 90 -34t88 -35q31 0 52 14q64 44 81 64l56 -80q-115 -100 -189 -101q-45 0 -99 34t-89 34t-123 -72l-51 80q117 96 184 96zM160 0v983h127v-983h-127z" />
    <glyph glyph-name="Imacron" unicode="&#x12a;" horiz-adv-x="446" 
d="M451 1120h-451v103h451v-103zM160 0v983h127v-983h-127z" />
    <glyph glyph-name="imacron" unicode="&#x12b;" horiz-adv-x="446" 
d="M451 1120h-451v103h451v-103zM160 0v983h127v-983h-127z" />
    <glyph glyph-name="Ibreve" unicode="&#x12c;" horiz-adv-x="446" 
d="M6 1335h90q0 -53 36 -89t88 -36t89 37t37 88h90q0 -88 -63 -151q-63 -64 -153 -64t-152 62t-62 153zM160 0v983h127v-983h-127z" />
    <glyph glyph-name="ibreve" unicode="&#x12d;" horiz-adv-x="446" 
d="M6 1335h90q0 -53 36 -89t88 -36t89 37t37 88h90q0 -88 -63 -151q-63 -64 -153 -64t-152 62t-62 153zM160 0v983h127v-983h-127z" />
    <glyph glyph-name="Iogonek" unicode="&#x12e;" horiz-adv-x="446" 
d="M160 0v983h127v-983q-72 -41 -72 -101t59 -61q37 0 66 21l41 -64q-45 -41 -111 -41t-104 34q-37 34 -37 96t49 116h-18z" />
    <glyph glyph-name="iogonek" unicode="&#x12f;" horiz-adv-x="446" 
d="M160 0v983h127v-983q-72 -41 -72 -101t59 -61q37 0 66 21l41 -64q-45 -41 -111 -41t-104 34q-37 34 -37 96t49 116h-18z" />
    <glyph glyph-name="Idotaccent" unicode="&#x130;" horiz-adv-x="450" 
d="M160 0v983h127v-983h-127zM139 1192q0 34 26 60q27 26 61 26t60 -26t26 -60t-26 -60t-61 -26t-61 26t-25 60z" />
    <glyph glyph-name="dotlessi" unicode="&#x131;" horiz-adv-x="446" 
d="M160 0v983h127v-983h-127z" />
    <glyph glyph-name="IJ" unicode="&#x132;" horiz-adv-x="761" 
d="M160 0v983h127v-983h-127zM479 154v829h123v-805q0 -213 -119 -328t-319 -114v117q315 0 315 301z" />
    <glyph glyph-name="ij" unicode="&#x133;" horiz-adv-x="761" 
d="M160 0v983h127v-983h-127zM479 154v829h123v-805q0 -213 -119 -328t-319 -114v117q315 0 315 301z" />
    <glyph glyph-name="Jcircumflex" unicode="&#x134;" horiz-adv-x="669" 
d="M612 1126l-161 183l-162 -183h-129l225 246h133l225 -246h-131zM387 399v584h123v-559q0 -213 -119 -328t-319 -114v116q315 0 315 301z" />
    <glyph glyph-name="jcircumflex" unicode="&#x135;" horiz-adv-x="669" 
d="M612 1126l-161 183l-162 -183h-129l225 246h133l225 -246h-131zM387 399v584h123v-559q0 -213 -119 -328t-319 -114v116q315 0 315 301z" />
    <glyph glyph-name="uni0136" unicode="&#x136;" horiz-adv-x="1091" 
d="M598 -234q0 -28 -10 -49l-103 -178l-45 27l62 106q-33 4 -55 29q-21 25 -21 59t26 59t60 25t60 -26q26 -24 26 -52zM287 432v-432h-127v983h127v-436h266q291 432 293 436h145l-329 -483l337 -500h-157l-289 432h-266z" />
    <glyph glyph-name="uni0137" unicode="&#x137;" horiz-adv-x="1091" 
d="M598 -234q0 -28 -10 -49l-103 -178l-45 27l62 106q-33 4 -55 29q-21 25 -21 59t26 59t60 25t60 -26q26 -24 26 -52zM287 432v-432h-127v983h127v-436h266q291 432 293 436h145l-329 -483l337 -500h-157l-289 432h-266z" />
    <glyph glyph-name="kgreenlandic" unicode="&#x138;" horiz-adv-x="1091" 
d="M287 432v-432h-127v983h127v-436h266q291 432 293 436h145l-329 -483l337 -500h-157l-289 432h-266z" />
    <glyph glyph-name="Lacute" unicode="&#x139;" horiz-adv-x="872" 
d="M422 1278l-363 -152l-43 76l353 182zM160 0v983h127v-864h493v-119h-620z" />
    <glyph glyph-name="lacute" unicode="&#x13a;" horiz-adv-x="872" 
d="M422 1278l-363 -152l-43 76l353 182zM160 0v983h127v-864h493v-119h-620z" />
    <glyph glyph-name="uni013B" unicode="&#x13b;" horiz-adv-x="872" 
d="M547 -234q0 -28 -10 -49l-103 -178l-45 27l62 106q-33 4 -55 29t-22 59t26 59t61 25t61 -26q26 -24 25 -52zM160 0v983h127v-864h493v-119h-620z" />
    <glyph glyph-name="uni013C" unicode="&#x13c;" horiz-adv-x="872" 
d="M547 -234q0 -28 -10 -49l-103 -178l-45 27l62 106q-33 4 -55 29t-22 59t26 59t61 25t61 -26q26 -24 25 -52zM160 0v983h127v-864h493v-119h-620z" />
    <glyph glyph-name="Lcaron" unicode="&#x13d;" horiz-adv-x="872" 
d="M554 985q34 0 60 -26t25 -53q0 -27 -10 -48l-103 -178l-45 27l62 106q-33 4 -55 29q-22 24 -22 58t27 60t61 25zM160 0v983h127v-864h493v-119h-620z" />
    <glyph glyph-name="lcaron" unicode="&#x13e;" horiz-adv-x="872" 
d="M554 985q34 0 60 -26t25 -53q0 -27 -10 -48l-103 -178l-45 27l62 106q-33 4 -55 29q-22 24 -22 58t27 60t61 25zM160 0v983h127v-864h493v-119h-620z" />
    <glyph glyph-name="Ldot" unicode="&#x13f;" horiz-adv-x="872" 
d="M471 618q0 35 26 61q27 26 61 26t60 -26t25 -61q0 -34 -26 -60q-27 -26 -61 -26t-60 26t-25 60zM160 0v983h127v-864h493v-119h-620z" />
    <glyph glyph-name="ldot" unicode="&#x140;" horiz-adv-x="872" 
d="M471 618q0 35 26 61q27 26 61 26t60 -26t25 -61q0 -34 -26 -60q-27 -26 -61 -26t-60 26t-25 60zM160 0v983h127v-864h493v-119h-620z" />
    <glyph glyph-name="Lslash" unicode="&#x141;" horiz-adv-x="872" 
d="M160 0v393l-160 -51v113l160 51v477h127v-436l282 92v-113l-282 -92v-315h493v-119h-620z" />
    <glyph glyph-name="lslash" unicode="&#x142;" horiz-adv-x="872" 
d="M160 0v393l-160 -51v117l160 51v473h127v-432l282 92v-117l-282 -92v-315h493v-119h-620z" />
    <glyph glyph-name="Nacute" unicode="&#x143;" horiz-adv-x="1245" 
d="M831 1278l-362 -152l-43 76l352 182zM1085 983v-983h-118l-680 784v-784h-127v983h102l696 -793v793h127z" />
    <glyph glyph-name="nacute" unicode="&#x144;" horiz-adv-x="1245" 
d="M831 1278l-362 -152l-43 76l352 182zM1085 983v-983h-118l-680 784v-784h-127v983h102l696 -793v793h127z" />
    <glyph glyph-name="uni0145" unicode="&#x145;" horiz-adv-x="1245" 
d="M528 -240q0 34 26 59t60 25t61 -26q43 -42 15 -101l-102 -178l-45 27l61 106q-32 4 -54 29t-22 59zM1085 983v-983h-118l-680 784v-784h-127v983h102l696 -793v793h127z" />
    <glyph glyph-name="uni0146" unicode="&#x146;" horiz-adv-x="1245" 
d="M528 -240q0 34 26 59t60 25t61 -26q43 -42 15 -101l-102 -178l-45 27l61 106q-32 4 -54 29t-22 59zM1085 983v-983h-118l-680 784v-784h-127v983h102l696 -793v793h127z" />
    <glyph glyph-name="Ncaron" unicode="&#x147;" horiz-adv-x="1245" 
d="M625 1190l161 182h132l-226 -246h-133l-225 246h129zM1085 983v-983h-118l-680 784v-784h-127v983h102l696 -793v793h127z" />
    <glyph glyph-name="ncaron" unicode="&#x148;" horiz-adv-x="1245" 
d="M625 1190l161 182h132l-226 -246h-133l-225 246h129zM1085 983v-983h-118l-680 784v-784h-127v983h102l696 -793v793h127z" />
    <glyph glyph-name="napostrophe" unicode="&#x149;" horiz-adv-x="1331" 
d="M0 898q0 34 26 60t60 25q34 0 60 -26t26 -53t-10 -48l-103 -178l-45 27l62 106q-32 4 -54 29q-22 24 -22 58zM1171 983v-983h-118l-680 784v-784h-127v983h102l696 -793v793h127z" />
    <glyph glyph-name="Eng" unicode="&#x14a;" horiz-adv-x="1245" 
d="M963 983h122v-952q-1 -213 -119 -328t-319 -115v117q315 0 316 299l-676 780v-784h-127v983h102l696 -793l5 -6v799z" />
    <glyph glyph-name="eng" unicode="&#x14b;" horiz-adv-x="1245" 
d="M963 983h122v-952q-1 -213 -119 -328t-319 -115v117q315 0 316 299l-676 780v-784h-127v983h102l696 -793l5 -6v799z" />
    <glyph glyph-name="Omacron" unicode="&#x14c;" horiz-adv-x="1247" 
d="M846 1120h-451v103h451v-103zM102 487q0 223 148 375t379 152t373 -150t142 -373t-146 -369q-148 -146 -382 -146t-374 144t-140 367zM229 490q0 -170 110 -286t284 -116q173 0 283 116t110 286t-111 290q-111 119 -283 119t-283 -119q-110 -119 -110 -290z" />
    <glyph glyph-name="omacron" unicode="&#x14d;" horiz-adv-x="1247" 
d="M846 1120h-451v103h451v-103zM102 487q0 223 148 375t379 152t373 -150t142 -373t-146 -369q-148 -146 -382 -146t-374 144t-140 367zM229 490q0 -170 110 -286t284 -116q173 0 283 116t110 286t-111 290q-111 119 -283 119t-283 -119q-110 -119 -110 -290z" />
    <glyph glyph-name="Obreve" unicode="&#x14e;" horiz-adv-x="1247" 
d="M406 1335h90q0 -53 36 -89t88 -36t89 37t36 88h91q0 -88 -64 -151q-64 -64 -151 -64t-151 62t-64 153zM102 487q0 223 148 375t379 152t373 -150t142 -373t-146 -369q-148 -146 -382 -146t-374 144t-140 367zM229 490q0 -170 110 -286t284 -116q173 0 283 116t110 286
t-111 290q-111 119 -283 119t-283 -119q-110 -119 -110 -290z" />
    <glyph glyph-name="obreve" unicode="&#x14f;" horiz-adv-x="1247" 
d="M406 1335h90q0 -53 36 -89t88 -36t89 37t36 88h91q0 -88 -64 -151q-64 -64 -151 -64t-151 62t-64 153zM102 487q0 223 148 375t379 152t373 -150t142 -373t-146 -369q-148 -146 -382 -146t-374 144t-140 367zM229 490q0 -170 110 -286t284 -116q173 0 283 116t110 286
t-111 290q-111 119 -283 119t-283 -119q-110 -119 -110 -290z" />
    <glyph glyph-name="Ohungarumlaut" unicode="&#x150;" horiz-adv-x="1247" 
d="M1016 1278l-363 -152l-43 76l353 182zM647 1278l-362 -152l-43 76l352 182zM102 487q0 223 148 375t379 152t373 -150t142 -373t-146 -369q-148 -146 -382 -146t-374 144t-140 367zM229 490q0 -170 110 -286t284 -116q173 0 283 116t110 286t-111 290q-111 119 -283 119
t-283 -119q-110 -119 -110 -290z" />
    <glyph glyph-name="ohungarumlaut" unicode="&#x151;" horiz-adv-x="1247" 
d="M1016 1278l-363 -152l-43 76l353 182zM647 1278l-362 -152l-43 76l352 182zM102 487q0 223 148 375t379 152t373 -150t142 -373t-146 -369q-148 -146 -382 -146t-374 144t-140 367zM229 490q0 -170 110 -286t284 -116q173 0 283 116t110 286t-111 290q-111 119 -283 119
t-283 -119q-110 -119 -110 -290z" />
    <glyph glyph-name="OE" unicode="&#x152;" horiz-adv-x="1597" 
d="M623 899q-174 0 -284 -119t-110 -290q0 -170 110 -286t284 -116q114 0 190 39v731q-80 41 -190 41zM623 -25q-241 1 -381 145t-140 367t148 375t373 152q94 0 190 -31h668v-117h-541v-329h469v-113h-469v-305h565v-119h-692v12q-119 -37 -190 -37z" />
    <glyph glyph-name="oe" unicode="&#x153;" horiz-adv-x="1597" 
d="M623 899q-174 0 -284 -119t-110 -290q0 -170 110 -286t284 -116q114 0 190 39v731q-80 41 -190 41zM623 -25q-241 1 -381 145t-140 367t148 375t373 152q94 0 190 -31h668v-117h-541v-329h469v-113h-469v-305h565v-119h-692v12q-119 -37 -190 -37z" />
    <glyph glyph-name="Racute" unicode="&#x154;" horiz-adv-x="1075" 
d="M709 1278l-363 -152l-43 76l352 182zM283 244v-244h-123v983h432q166 0 274 -120t107 -265q0 -96 -47 -186t-129 -129l153 -283h-143l-131 244h-393zM283 874v-524h301q132 0 198 73t66 176t-72 182t-201 93h-292z" />
    <glyph glyph-name="racute" unicode="&#x155;" horiz-adv-x="1075" 
d="M709 1278l-363 -152l-43 76l352 182zM283 244v-244h-123v983h432q166 0 274 -120t107 -265q0 -96 -47 -186t-129 -129l153 -283h-143l-131 244h-393zM283 874v-524h301q132 0 198 73t66 176t-72 182t-201 93h-292z" />
    <glyph glyph-name="uni0156" unicode="&#x156;" horiz-adv-x="1075" 
d="M598 -234q0 -28 -10 -49l-103 -178l-45 27l62 106q-33 4 -55 29q-21 25 -21 59t26 59t60 25t60 -26q26 -24 26 -52zM283 244v-244h-123v983h432q166 0 274 -120t107 -265q0 -96 -47 -186t-129 -129l153 -283h-143l-131 244h-393zM283 874v-524h301q132 0 198 73t66 176
t-72 182t-201 93h-292z" />
    <glyph glyph-name="uni0157" unicode="&#x157;" horiz-adv-x="1075" 
d="M598 -234q0 -28 -10 -49l-103 -178l-45 27l62 106q-33 4 -55 29q-21 25 -21 59t26 59t60 25t60 -26q26 -24 26 -52zM283 244v-244h-123v983h432q166 0 274 -120t107 -265q0 -96 -47 -186t-129 -129l153 -283h-143l-131 244h-393zM283 874v-524h301q132 0 198 73t66 176
t-72 182t-201 93h-292z" />
    <glyph glyph-name="Rcaron" unicode="&#x158;" horiz-adv-x="1075" 
d="M492 1190l161 182h131l-225 -246h-133l-225 246h129zM283 244v-244h-123v983h432q166 0 274 -120t107 -265q0 -96 -47 -186t-129 -129l153 -283h-143l-131 244h-393zM283 874v-524h301q132 0 198 73t66 176t-72 182t-201 93h-292z" />
    <glyph glyph-name="rcaron" unicode="&#x159;" horiz-adv-x="1075" 
d="M492 1190l161 182h131l-225 -246h-133l-225 246h129zM283 244v-244h-123v983h432q166 0 274 -120t107 -265q0 -96 -47 -186t-129 -129l153 -283h-143l-131 244h-393zM283 874v-524h301q132 0 198 73t66 176t-72 182t-201 93h-292z" />
    <glyph glyph-name="Sacute" unicode="&#x15a;" 
d="M647 1278l-362 -152l-43 76l352 182zM715 270q0 101 -114 144q-50 18 -155 41t-172 59q-131 72 -131 211q1 139 99 210t238 71t238 -74t103 -211l-119 -25q0 96 -64 147q-65 50 -159 50t-153 -42q-60 -42 -60 -116q-1 -131 203 -172q84 -16 168 -38t143 -82
q60 -61 60 -179t-106 -197t-252 -79q-148 0 -260 68t-120 186l121 32q0 -76 80 -120t173 -45t166 41t73 120z" />
    <glyph glyph-name="sacute" unicode="&#x15b;" 
d="M647 1278l-362 -152l-43 76l352 182zM715 270q0 101 -114 144q-50 18 -155 41t-172 59q-131 72 -131 211q1 139 99 210t238 71t238 -74t103 -211l-119 -25q0 96 -64 147q-65 50 -159 50t-153 -42q-60 -42 -60 -116q-1 -131 203 -172q84 -16 168 -38t143 -82
q60 -61 60 -179t-106 -197t-252 -79q-148 0 -260 68t-120 186l121 32q0 -76 80 -120t173 -45t166 41t73 120z" />
    <glyph glyph-name="Scircumflex" unicode="&#x15c;" 
d="M633 1126l-162 183l-162 -183h-129l226 246h133l225 -246h-131zM715 270q0 101 -114 144q-50 18 -155 41t-172 59q-131 72 -131 211q1 139 99 210t238 71t238 -74t103 -211l-119 -25q0 96 -64 147q-65 50 -159 50t-153 -42q-60 -42 -60 -116q-1 -131 203 -172
q84 -16 168 -38t143 -82q60 -61 60 -179t-106 -197t-252 -79q-148 0 -260 68t-120 186l121 32q0 -76 80 -120t173 -45t166 41t73 120z" />
    <glyph glyph-name="scircumflex" unicode="&#x15d;" 
d="M633 1126l-162 183l-162 -183h-129l226 246h133l225 -246h-131zM715 270q0 101 -114 144q-50 18 -155 41t-172 59q-131 72 -131 211q1 139 99 210t238 71t238 -74t103 -211l-119 -25q0 96 -64 147q-65 50 -159 50t-153 -42q-60 -42 -60 -116q-1 -131 203 -172
q84 -16 168 -38t143 -82q60 -61 60 -179t-106 -197t-252 -79q-148 0 -260 68t-120 186l121 32q0 -76 80 -120t173 -45t166 41t73 120z" />
    <glyph glyph-name="Scedilla" unicode="&#x15e;" 
d="M715 270q0 101 -114 144q-50 18 -155 41t-172 59q-131 72 -131 211q1 139 99 210t238 71t238 -74t103 -211l-119 -25q0 96 -64 147q-65 50 -159 50t-153 -42q-60 -42 -60 -116q-1 -131 203 -172q84 -16 168 -38t143 -82q60 -61 60 -177t-98 -193t-236 -83l-21 -53
q18 6 37 6q57 0 92 -34t35 -87t-44 -96t-107 -43q-106 0 -164 65l26 74q59 -59 127 -60q35 0 55 18t21 42q0 25 -22 41q-23 16 -53 16t-56 -4l-35 47l25 70q-129 12 -220 80t-100 170l121 32q0 -76 80 -120t173 -45t166 41t73 120z" />
    <glyph glyph-name="scedilla" unicode="&#x15f;" 
d="M715 270q0 101 -114 144q-50 18 -155 41t-172 59q-131 72 -131 211q1 139 99 210t238 71t238 -74t103 -211l-119 -25q0 96 -64 147q-65 50 -159 50t-153 -42q-60 -42 -60 -116q-1 -131 203 -172q84 -16 168 -38t143 -82q60 -61 60 -177t-98 -193t-236 -83l-21 -53
q18 6 37 6q57 0 92 -34t35 -87t-44 -96t-107 -43q-106 0 -164 65l26 74q59 -59 127 -60q35 0 55 18t21 42q0 25 -22 41q-23 16 -53 16t-56 -4l-35 47l25 70q-129 12 -220 80t-100 170l121 32q0 -76 80 -120t173 -45t166 41t73 120z" />
    <glyph glyph-name="Scaron" unicode="&#x160;" 
d="M471 1190l162 182h131l-225 -246h-133l-226 246h129zM715 270q0 101 -114 144q-50 18 -155 41t-172 59q-131 72 -131 211q1 139 99 210t238 71t238 -74t103 -211l-119 -25q0 96 -64 147q-65 50 -159 50t-153 -42q-60 -42 -60 -116q-1 -131 203 -172q84 -16 168 -38
t143 -82q60 -61 60 -179t-106 -197t-252 -79q-148 0 -260 68t-120 186l121 32q0 -76 80 -120t173 -45t166 41t73 120z" />
    <glyph glyph-name="scaron" unicode="&#x161;" 
d="M471 1190l162 182h131l-225 -246h-133l-226 246h129zM715 270q0 101 -114 144q-50 18 -155 41t-172 59q-131 72 -131 211q1 139 99 210t238 71t238 -74t103 -211l-119 -25q0 96 -64 147q-65 50 -159 50t-153 -42q-60 -42 -60 -116q-1 -131 203 -172q84 -16 168 -38
t143 -82q60 -61 60 -179t-106 -197t-252 -79q-148 0 -260 68t-120 186l121 32q0 -76 80 -120t173 -45t166 41t73 120z" />
    <glyph glyph-name="Tcedilla" unicode="&#x162;" horiz-adv-x="860" 
d="M365 0v870h-293v113h716v-113h-296v-870l-25 -63q18 6 37 6q57 0 92 -34t35 -87t-44 -96t-108 -43q-106 0 -164 65l27 74q59 -59 127 -60q35 0 55 18t21 42q0 25 -23 41t-53 16t-55 -4l-35 47l29 78h-43z" />
    <glyph glyph-name="tcedilla" unicode="&#x163;" horiz-adv-x="860" 
d="M365 0v870h-293v113h716v-113h-296v-870l-25 -63q18 6 37 6q57 0 92 -34t35 -87t-44 -96t-108 -43q-106 0 -164 65l27 74q59 -59 127 -60q35 0 55 18t21 42q0 25 -23 41t-53 16t-55 -4l-35 47l29 78h-43z" />
    <glyph glyph-name="Tcaron" unicode="&#x164;" horiz-adv-x="860" 
d="M430 1190l162 182h131l-225 -246h-133l-226 246h129zM72 870v113h716v-113h-296v-870h-127v870h-293z" />
    <glyph glyph-name="tcaron" unicode="&#x165;" horiz-adv-x="860" 
d="M430 1190l162 182h131l-225 -246h-133l-226 246h129zM72 870v113h716v-113h-296v-870h-127v870h-293z" />
    <glyph glyph-name="Tbar" unicode="&#x166;" horiz-adv-x="860" 
d="M692 424h-200v-424h-127v424h-205v113h205v333h-293v113h716v-113h-296v-333h200v-113z" />
    <glyph glyph-name="tbar" unicode="&#x167;" horiz-adv-x="860" 
d="M692 424h-200v-424h-127v424h-205v113h205v333h-293v113h716v-113h-296v-333h200v-113z" />
    <glyph glyph-name="Utilde" unicode="&#x168;" horiz-adv-x="1077" 
d="M620 1229q62 0 140 78l55 -80q-115 -100 -188 -101q-45 0 -99 34t-90 34q-35 0 -123 -72l-51 80q117 96 185 96q33 0 90 -34t81 -35zM848 408v575h127v-565q0 -209 -119 -323q-120 -113 -320 -113t-317 114t-117 324v563h127v-577q0 -134 83 -216t225 -81q311 0 311 299z
" />
    <glyph glyph-name="utilde" unicode="&#x169;" horiz-adv-x="1077" 
d="M620 1229q62 0 140 78l55 -80q-115 -100 -188 -101q-45 0 -99 34t-90 34q-35 0 -123 -72l-51 80q117 96 185 96q33 0 90 -34t81 -35zM848 408v575h127v-565q0 -209 -119 -323q-120 -113 -320 -113t-317 114t-117 324v563h127v-577q0 -134 83 -216t225 -81q311 0 311 299z
" />
    <glyph glyph-name="Umacron" unicode="&#x16a;" horiz-adv-x="1077" 
d="M754 1120h-451v103h451v-103zM848 408v575h127v-565q0 -209 -119 -323q-120 -113 -320 -113t-317 114t-117 324v563h127v-577q0 -134 83 -216t225 -81q311 0 311 299z" />
    <glyph glyph-name="umacron" unicode="&#x16b;" horiz-adv-x="1077" 
d="M754 1120h-451v103h451v-103zM848 408v575h127v-565q0 -209 -119 -323q-120 -113 -320 -113t-317 114t-117 324v563h127v-577q0 -134 83 -216t225 -81q311 0 311 299z" />
    <glyph glyph-name="Ubreve" unicode="&#x16c;" horiz-adv-x="1077" 
d="M313 1335h90q0 -53 36 -89t88 -36t89 37t37 88h90q0 -88 -63 -151q-62 -64 -152 -64t-152 62t-63 153zM848 408v575h127v-565q0 -209 -119 -323q-120 -113 -320 -113t-317 114t-117 324v563h127v-577q0 -134 83 -216t225 -81q311 0 311 299z" />
    <glyph glyph-name="ubreve" unicode="&#x16d;" horiz-adv-x="1077" 
d="M313 1335h90q0 -53 36 -89t88 -36t89 37t37 88h90q0 -88 -63 -151q-62 -64 -152 -64t-152 62t-63 153zM848 408v575h127v-565q0 -209 -119 -323q-120 -113 -320 -113t-317 114t-117 324v563h127v-577q0 -134 83 -216t225 -81q311 0 311 299z" />
    <glyph glyph-name="Uring" unicode="&#x16e;" horiz-adv-x="1077" 
d="M531 1112q-67 0 -113 47t-47 114q0 67 47 115q48 48 114 48t114 -48t48 -115t-48 -114t-115 -47zM532 1368q-38 0 -66 -28t-28 -67q0 -40 27 -67q27 -26 67 -26t67 28q28 28 28 66t-28 66t-67 28zM848 408v575h127v-565q0 -209 -119 -323q-120 -113 -320 -113t-317 114
t-117 324v563h127v-577q0 -134 83 -216t225 -81q311 0 311 299z" />
    <glyph glyph-name="uring" unicode="&#x16f;" horiz-adv-x="1077" 
d="M531 1112q-67 0 -113 47t-47 114q0 67 47 115q48 48 114 48t114 -48t48 -115t-48 -114t-115 -47zM532 1368q-38 0 -66 -28t-28 -67q0 -40 27 -67q27 -26 67 -26t67 28q28 28 28 66t-28 66t-67 28zM848 408v575h127v-565q0 -209 -119 -323q-120 -113 -320 -113t-317 114
t-117 324v563h127v-577q0 -134 83 -216t225 -81q311 0 311 299z" />
    <glyph glyph-name="Uhungarumlaut" unicode="&#x170;" horiz-adv-x="1077" 
d="M934 1278l-363 -152l-43 76l353 182zM565 1278l-362 -152l-43 76l352 182zM848 408v575h127v-565q0 -209 -119 -323q-120 -113 -320 -113t-317 114t-117 324v563h127v-577q0 -134 83 -216t225 -81q311 0 311 299z" />
    <glyph glyph-name="uhungarumlaut" unicode="&#x171;" horiz-adv-x="1077" 
d="M934 1278l-363 -152l-43 76l353 182zM565 1278l-362 -152l-43 76l352 182zM848 408v575h127v-565q0 -209 -119 -323q-120 -113 -320 -113t-317 114t-117 324v563h127v-577q0 -134 83 -216t225 -81q311 0 311 299z" />
    <glyph glyph-name="Uogonek" unicode="&#x172;" horiz-adv-x="1077" 
d="M848 408v575h127v-565q-1 -192 -101 -304t-274 -128q-51 -43 -51 -92q0 -57 59 -58q37 0 66 21l41 -64q-45 -41 -111 -41t-104 34q-37 34 -37 92t35 106q-184 10 -290 122q-105 113 -106 314v563h127v-577q0 -134 83 -216t225 -81q311 0 311 299z" />
    <glyph glyph-name="uogonek" unicode="&#x173;" horiz-adv-x="1077" 
d="M848 408v575h127v-565q-1 -192 -101 -304t-274 -128q-51 -43 -51 -92q0 -57 59 -58q37 0 66 21l41 -64q-45 -41 -111 -41t-104 34q-37 34 -37 92t35 106q-184 10 -290 122q-105 113 -106 314v563h127v-577q0 -134 83 -216t225 -81q311 0 311 299z" />
    <glyph glyph-name="Wcircumflex" unicode="&#x174;" horiz-adv-x="1703" 
d="M1018 1126l-162 183l-162 -183h-129l226 246h133l225 -246h-131zM772 983h160l295 -879l278 879h127l-317 -983h-178l-287 858l-275 -858h-182l-321 983h127l288 -879z" />
    <glyph glyph-name="wcircumflex" unicode="&#x175;" horiz-adv-x="1703" 
d="M1018 1126l-162 183l-162 -183h-129l226 246h133l225 -246h-131zM772 983h160l295 -879l278 879h127l-317 -983h-178l-287 858l-275 -858h-182l-321 983h127l288 -879z" />
    <glyph glyph-name="Ycircumflex" unicode="&#x176;" horiz-adv-x="1052" 
d="M684 1126l-162 183l-162 -183h-129l226 246h133l225 -246h-131zM590 0h-127v229l-391 754h143l315 -639l316 639h135l-391 -768v-215z" />
    <glyph glyph-name="ycircumflex" unicode="&#x177;" horiz-adv-x="1052" 
d="M684 1126l-162 183l-162 -183h-129l226 246h133l225 -246h-131zM590 0h-127v229l-391 754h143l315 -639l316 639h135l-391 -768v-215z" />
    <glyph glyph-name="Ydieresis" unicode="&#x178;" horiz-adv-x="1052" 
d="M606 1214q0 35 26 61q26 25 60 25t61 -26q25 -26 25 -60t-26 -60t-60 -26t-60 26t-26 60zM279 1214q0 35 25 61q26 25 61 25t61 -26t25 -60q0 -34 -26 -60q-27 -26 -61 -26t-60 26t-25 60zM590 0h-127v229l-391 754h143l315 -639l316 639h135l-391 -768v-215z" />
    <glyph glyph-name="Zacute" unicode="&#x179;" horiz-adv-x="999" 
d="M684 1278l-362 -152l-43 76l352 182zM131 866v117h715v-123l-565 -741h591v-119h-745v104l584 762h-580z" />
    <glyph glyph-name="zacute" unicode="&#x17a;" horiz-adv-x="999" 
d="M684 1278l-362 -152l-43 76l352 182zM131 866v117h715v-123l-565 -741h591v-119h-745v104l584 762h-580z" />
    <glyph glyph-name="Zdotaccent" unicode="&#x17b;" horiz-adv-x="999" 
d="M389 1192q0 34 26 60q27 26 61 26t60 -26t26 -60t-26 -60t-61 -26t-61 26t-25 60zM131 866v117h715v-123l-565 -741h591v-119h-745v104l584 762h-580z" />
    <glyph glyph-name="zdotaccent" unicode="&#x17c;" horiz-adv-x="999" 
d="M389 1192q0 34 26 60q27 26 61 26t60 -26t26 -60t-26 -60t-61 -26t-61 26t-25 60zM131 866v117h715v-123l-565 -741h591v-119h-745v104l584 762h-580z" />
    <glyph glyph-name="Zcaron" unicode="&#x17d;" horiz-adv-x="999" 
d="M492 1190l161 182h131l-225 -246h-133l-225 246h129zM131 866v117h715v-123l-565 -741h591v-119h-745v104l584 762h-580z" />
    <glyph glyph-name="zcaron" unicode="&#x17e;" horiz-adv-x="999" 
d="M492 1190l161 182h131l-225 -246h-133l-225 246h129zM131 866v117h715v-123l-565 -741h591v-119h-745v104l584 762h-580z" />
    <glyph glyph-name="longs" unicode="&#x17f;" horiz-adv-x="874" 
d="M20 442v111h140v184q0 131 89 200t219 69t217 -64t87 -160l-125 -32q0 61 -49 102t-131 41t-131 -41t-49 -115v-737h-127v442h-140z" />
    <glyph glyph-name="Schwa" unicode="&#x18f;" 
d="M657 537v329h-540v117h667v-983h-692v119h565v305h-469v113h469z" />
    <glyph glyph-name="florin" unicode="&#x192;" horiz-adv-x="927" 
d="M244 0v442h-140v111h140v184q0 131 89 200t219 69t217 -64t87 -160l-125 -32q0 61 -49 102t-131 41t-131 -41t-49 -115v-184h204v-111h-204v-442q0 -120 -74 -186t-195 -78v112q68 8 105 50t37 102z" />
    <glyph glyph-name="Nhookleft" unicode="&#x19d;" horiz-adv-x="1245" 
d="M1085 983v-983h-118l-680 784v-753q0 -213 -120 -328t-323 -115v117q143 0 230 79q86 79 86 222v977h102l696 -793v793h127z" />
    <glyph glyph-name="Gcaron" unicode="&#x1e6;" horiz-adv-x="1214" 
d="M606 1190l162 182h131l-225 -246h-133l-226 246h129zM596 -20q-226 0 -360 136t-134 366t136 377q136 146 362 147q143 0 253 -56t151 -157q41 -102 12 -222l-121 -14q12 37 12 92t-24 101q-70 143 -283 143q-178 0 -275 -109t-97 -295t102 -287t270 -102q225 0 363 228
h-275v104h424v-430h-111v209q-67 -127 -183 -179t-222 -52z" />
    <glyph glyph-name="gcaron" unicode="&#x1e7;" horiz-adv-x="1214" 
d="M606 1190l162 182h131l-225 -246h-133l-226 246h129zM596 -20q-226 0 -360 136t-134 366t136 377q136 146 362 147q143 0 253 -56t151 -157q41 -102 12 -222l-121 -14q12 37 12 92t-24 101q-70 143 -283 143q-178 0 -275 -109t-97 -295t102 -287t270 -102q225 0 363 228
h-275v104h424v-430h-111v209q-67 -127 -183 -179t-222 -52z" />
    <glyph glyph-name="Oogonek" unicode="&#x1ea;" horiz-adv-x="1247" 
d="M229 490q0 -170 110 -286t284 -116q173 0 283 116t110 286t-111 290q-111 119 -283 119t-283 -119q-110 -119 -110 -290zM102 493q0 217 148 369t379 152t373 -150t142 -367t-132 -361q-133 -144 -344 -159q-43 -35 -43 -83q0 -57 59 -58q37 0 66 21l41 -64
q-45 -41 -111 -41t-105 34q-37 34 -37 91t33 100q-217 15 -343 157t-126 359z" />
    <glyph glyph-name="oogonek" unicode="&#x1eb;" horiz-adv-x="1247" 
d="M229 490q0 -170 110 -286t284 -116q173 0 283 116t110 286t-111 290q-111 119 -283 119t-283 -119q-110 -119 -110 -290zM102 493q0 217 148 369t379 152t373 -150t142 -367t-132 -361q-133 -144 -344 -159q-43 -35 -43 -83q0 -57 59 -58q37 0 66 21l41 -64
q-45 -41 -111 -41t-105 34q-37 34 -37 91t33 100q-217 15 -343 157t-126 359z" />
    <glyph glyph-name="Aringacute" unicode="&#x1fa;" horiz-adv-x="1140" 
d="M481 1109q0 -40 28 -67q29 -26 67 -26t66 28t28 66q0 39 -28 67q-28 27 -67 27t-67 -28t-27 -67zM741 1483l-362 -152l-43 76l352 182zM575 899l-258 -612h506zM414 1100q0 76 47 124t113 48t115 -48q48 -48 48 -122t-67 -125l399 -977h-135l-78 180h-577l-76 -180h-131
l409 977q-67 47 -67 123z" />
    <glyph glyph-name="aringacute" unicode="&#x1fb;" horiz-adv-x="1140" 
d="M481 1109q0 -40 28 -67q29 -26 67 -26t66 28t28 66q0 39 -28 67q-28 27 -67 27t-67 -28t-27 -67zM741 1483l-362 -152l-43 76l352 182zM575 899l-258 -612h506zM414 1100q0 76 47 124t113 48t115 -48q48 -48 48 -122t-67 -125l399 -977h-135l-78 180h-577l-76 -180h-131
l409 977q-67 47 -67 123z" />
    <glyph glyph-name="AEacute" unicode="&#x1fc;" horiz-adv-x="1693" 
d="M1159 1278l-362 -152l-43 76l352 182zM909 326v458l-397 -458h397zM1577 983v-117h-541v-329h469v-113h-469v-305h566v-119h-693v219h-489l-191 -219h-147l862 983h633z" />
    <glyph glyph-name="aeacute" unicode="&#x1fd;" horiz-adv-x="1693" 
d="M1159 1278l-362 -152l-43 76l352 182zM909 326v458l-397 -458h397zM1577 983v-117h-541v-329h469v-113h-469v-305h566v-119h-693v219h-489l-191 -219h-147l862 983h633z" />
    <glyph glyph-name="Oslashacute" unicode="&#x1fe;" horiz-adv-x="1247" 
d="M791 1278l-363 -152l-43 76l352 182zM1016 489q0 115 -54 211t-149 150l-266 -756q37 -6 76 -6q173 0 283 116t110 285zM229 489q1 -119 57 -216t154 -146l271 762q-47 10 -88 10q-174 0 -284 -119t-110 -291zM102 489q0 221 148 373t373 152q55 0 127 -15l45 127h116
l-57 -159q137 -61 214 -189t77 -289q1 -221 -147 -367t-375 -147q-57 0 -115 11l-68 -191h-116l77 219q-141 58 -220 184t-79 291z" />
    <glyph glyph-name="oslashacute" unicode="&#x1ff;" horiz-adv-x="1247" 
d="M791 1278l-363 -152l-43 76l352 182zM1016 489q0 115 -54 211t-149 150l-266 -756q37 -6 76 -6q173 0 283 116t110 285zM229 489q1 -119 57 -216t154 -146l271 762q-47 10 -88 10q-174 0 -284 -119t-110 -291zM102 489q0 221 148 373t373 152q55 0 127 -15l45 127h116
l-57 -159q137 -61 214 -189t77 -289q1 -221 -147 -367t-375 -147q-57 0 -115 11l-68 -191h-116l77 219q-141 58 -220 184t-79 291z" />
    <glyph glyph-name="uni0218" unicode="&#x218;" 
d="M385 -240q0 34 26 59q27 25 61 25t60 -26t25 -52q0 -28 -10 -49l-103 -178l-45 27l62 106q-33 4 -55 29t-21 59zM715 270q0 101 -114 144q-50 18 -155 41t-172 59q-131 72 -131 211q1 139 99 210t238 71t238 -74t103 -211l-119 -25q0 96 -64 147q-65 50 -159 50t-153 -42
q-60 -42 -60 -116q-1 -131 203 -172q84 -16 168 -38t143 -82q60 -61 60 -179t-106 -197t-252 -79q-148 0 -260 68t-120 186l121 32q0 -76 80 -120t173 -45t166 41t73 120z" />
    <glyph glyph-name="uni0219" unicode="&#x219;" 
d="M385 -240q0 34 26 59q27 25 61 25t60 -26t25 -52q0 -28 -10 -49l-103 -178l-45 27l62 106q-33 4 -55 29t-21 59zM715 270q0 101 -114 144q-50 18 -155 41t-172 59q-131 72 -131 211q1 139 99 210t238 71t238 -74t103 -211l-119 -25q0 96 -64 147q-65 50 -159 50t-153 -42
q-60 -42 -60 -116q-1 -131 203 -172q84 -16 168 -38t143 -82q60 -61 60 -179t-106 -197t-252 -79q-148 0 -260 68t-120 186l121 32q0 -76 80 -120t173 -45t166 41t73 120z" />
    <glyph glyph-name="uni021A" unicode="&#x21a;" horiz-adv-x="860" 
d="M342 -240q0 34 26 59t60 25t60 -26t26 -52q0 -28 -10 -49l-103 -178l-45 27l62 106q-32 4 -54 29t-22 59zM72 870v113h716v-113h-296v-870h-127v870h-293z" />
    <glyph glyph-name="uni021B" unicode="&#x21b;" horiz-adv-x="860" 
d="M342 -240q0 34 26 59t60 25t60 -26t26 -52q0 -28 -10 -49l-103 -178l-45 27l62 106q-32 4 -54 29t-22 59zM72 870v113h716v-113h-296v-870h-127v870h-293z" />
    <glyph glyph-name="dotlessj" unicode="&#x237;" horiz-adv-x="669" 
d="M387 399v584h123v-559q0 -213 -119 -328t-319 -114v116q315 0 315 301z" />
    <glyph glyph-name="schwa" unicode="&#x259;" 
d="M657 537v329h-540v117h667v-983h-692v119h565v305h-469v113h469z" />
    <glyph glyph-name="nhookleft" unicode="&#x272;" horiz-adv-x="1245" 
d="M1085 983v-983h-118l-680 784v-753q0 -213 -120 -328t-323 -115v117q143 0 230 79q86 79 86 222v977h102l696 -793v793h127z" />
    <glyph glyph-name="circumflex" unicode="&#x2c6;" horiz-adv-x="903" 
d="M612 1126l-161 183l-162 -183h-129l225 246h133l225 -246h-131z" />
    <glyph glyph-name="caron" unicode="&#x2c7;" horiz-adv-x="903" 
d="M451 1190l161 182h131l-225 -246h-133l-225 246h129z" />
    <glyph glyph-name="uni02C9" unicode="&#x2c9;" horiz-adv-x="851" 
d="M651 1120h-450v103h450v-103z" />
    <glyph glyph-name="breve" unicode="&#x2d8;" horiz-adv-x="749" 
d="M160 1335h90q0 -53 37 -89t88 -36t88 37t37 88h90q0 -88 -64 -151q-64 -64 -151 -64t-151 62t-64 153z" />
    <glyph glyph-name="dotaccent" unicode="&#x2d9;" horiz-adv-x="491" 
d="M160 1192q0 34 26 60t60 26t60 -26t26 -60t-26 -60t-60 -26t-60 26t-26 60z" />
    <glyph glyph-name="ring" unicode="&#x2da;" horiz-adv-x="565" 
d="M121 1273q0 67 47 115t114 48q66 0 114 -48t48 -115t-48 -114t-114 -47t-114 47q-47 47 -47 114zM377 1274q0 38 -28 66q-29 28 -67 28t-66 -28t-28 -67q0 -40 27 -67q27 -26 67 -26t68 28t27 66z" />
    <glyph glyph-name="ogonek" unicode="&#x2db;" horiz-adv-x="593" 
d="M304 -248q-140 0 -140 138q0 70 74 130l84 -22q-72 -41 -72 -101t59 -61q37 0 66 21l41 -64q-46 -41 -112 -41z" />
    <glyph glyph-name="tilde" unicode="&#x2dc;" horiz-adv-x="851" 
d="M326 1298q33 0 90 -34q58 -34 82 -35q24 0 36 4t27 14q14 10 33 23t43 37l55 -80q-115 -100 -188 -101q-46 0 -100 34t-88 34t-123 -72l-52 80q117 96 185 96z" />
    <glyph glyph-name="hungarumlaut" unicode="&#x2dd;" horiz-adv-x="1099" 
d="M934 1278l-363 -152l-43 76l353 182zM565 1278l-362 -152l-43 76l352 182z" />
    <glyph glyph-name="gravecomb" unicode="&#x300;" horiz-adv-x="690" 
d="M487 1126l-362 152l53 106l352 -182z" />
    <glyph glyph-name="acutecomb" unicode="&#x301;" horiz-adv-x="690" 
d="M524 1278l-362 -152l-43 76l352 182z" />
    <glyph glyph-name="uni0302" unicode="&#x302;" horiz-adv-x="903" 
d="M612 1126l-161 183l-162 -183h-129l225 246h133l225 -246h-131z" />
    <glyph glyph-name="tildecomb" unicode="&#x303;" horiz-adv-x="851" 
d="M326 1298q33 0 90 -34q58 -34 82 -35q24 0 36 4t27 14q14 10 33 23t43 37l55 -80q-115 -100 -188 -101q-46 0 -100 34t-88 34t-123 -72l-52 80q117 96 185 96z" />
    <glyph glyph-name="uni0304" unicode="&#x304;" horiz-adv-x="851" 
d="M651 1120h-450v103h450v-103z" />
    <glyph glyph-name="uni0306" unicode="&#x306;" horiz-adv-x="749" 
d="M160 1335h90q0 -53 37 -89t88 -36t88 37t37 88h90q0 -88 -64 -151q-64 -64 -151 -64t-151 62t-64 153z" />
    <glyph glyph-name="uni0307" unicode="&#x307;" horiz-adv-x="491" 
d="M160 1192q0 34 26 60t60 26t60 -26t26 -60t-26 -60t-60 -26t-60 26t-26 60z" />
    <glyph glyph-name="uni0308" unicode="&#x308;" horiz-adv-x="819" 
d="M487 1214q0 35 26 61q27 25 61 25t60 -26t26 -60t-26 -60t-61 -26t-61 26t-25 60zM160 1214q0 35 25 61q26 25 61 25q34 0 60 -26t26 -60t-26 -60t-60 -26t-60 26t-26 60z" />
    <glyph glyph-name="uni030A" unicode="&#x30a;" horiz-adv-x="565" 
d="M121 1273q0 67 47 115t114 48q66 0 114 -48t48 -115t-48 -114t-114 -47t-114 47q-47 47 -47 114zM377 1274q0 38 -28 66q-29 28 -67 28t-66 -28t-28 -67q0 -40 27 -67q27 -26 67 -26t68 28t27 66z" />
    <glyph glyph-name="uni030B" unicode="&#x30b;" horiz-adv-x="1099" 
d="M940 1274l-369 -148l-43 76l344 191zM571 1274l-368 -148l-43 76l344 191z" />
    <glyph glyph-name="uni030C" unicode="&#x30c;" horiz-adv-x="903" 
d="M451 1190l161 182h131l-225 -246h-133l-225 246h129z" />
    <glyph glyph-name="uni0312" unicode="&#x312;" horiz-adv-x="491" 
d="M332 1201q0 -33 -26 -59t-60 -26t-61 26q-43 43 -15 101l102 178l45 -26l-61 -107q32 -4 54 -28t22 -59z" />
    <glyph glyph-name="uni0315" unicode="&#x315;" horiz-adv-x="491" 
d="M332 1336q0 -28 -10 -48l-103 -178l-45 27l62 106q-33 4 -55 29q-21 24 -21 58t25 60q26 26 61 26q34 0 60 -26t26 -54z" />
    <glyph glyph-name="uni0326" unicode="&#x326;" horiz-adv-x="491" 
d="M332 -234q0 -28 -10 -49l-103 -178l-45 27l62 106q-33 4 -55 29q-21 25 -21 59t25 59q26 25 61 25q34 0 60 -26q26 -24 26 -52z" />
    <glyph glyph-name="uni0327" unicode="&#x327;" horiz-adv-x="634" 
d="M348 -57q57 0 92 -34t35 -87t-44 -96t-107 -43q-106 0 -164 65l26 74q59 -59 127 -60q35 0 55 18t21 42q0 25 -22 41q-23 16 -53 16t-56 -4l-35 47l29 78h84l-25 -63q18 6 37 6z" />
    <glyph glyph-name="uni0328" unicode="&#x328;" horiz-adv-x="593" 
d="M304 -248q-140 0 -140 138q0 70 74 130l84 -22q-72 -41 -72 -101t59 -61q37 0 66 21l41 -64q-46 -41 -112 -41z" />
    <glyph glyph-name="uni0344" unicode="&#x344;" horiz-adv-x="819" 
d="M365 1126l-19 369h135l-30 -369h-86zM569 1214q0 35 26 61q27 25 61 25t60 -26t26 -60t-26 -60t-61 -26t-61 26t-25 60zM78 1214q0 35 25 61q26 25 61 25q34 0 60 -26t26 -60t-26 -60t-60 -26t-60 26t-26 60z" />
    <glyph glyph-name="uni037E" unicode="&#x37e;" horiz-adv-x="491" 
d="M160 528q0 35 25 61q26 25 61 25q34 0 60 -26t26 -60t-26 -60t-60 -26t-60 26t-26 60zM246 172q34 0 60 -26t26 -53t-10 -48l-103 -178l-45 27l62 106q-33 4 -55 29q-21 25 -21 59t26 58q26 26 60 26z" />
    <glyph glyph-name="tonos" unicode="&#x384;" horiz-adv-x="466" 
d="M184 614l-18 369h135l-31 -369h-86z" />
    <glyph glyph-name="dieresistonos" unicode="&#x385;" horiz-adv-x="819" 
d="M365 1126l-19 369h135l-30 -369h-86zM569 1214q0 35 26 61q27 25 61 25t60 -26t26 -60t-26 -60t-61 -26t-61 26t-25 60zM78 1214q0 35 25 61q26 25 61 25q34 0 60 -26t26 -60t-26 -60t-60 -26t-60 26t-26 60z" />
    <glyph glyph-name="Alphatonos" unicode="&#x386;" horiz-adv-x="1140" 
d="M82 614l-19 369h136l-31 -369h-86zM668 983l401 -983h-135l-78 180h-577l-76 -180h-131l411 983h185zM575 899l-258 -612h506z" />
    <glyph glyph-name="anoteleia" unicode="&#x387;" horiz-adv-x="491" 
d="M160 528q0 35 25 61q26 25 61 25q34 0 60 -26t26 -60t-26 -60t-60 -26t-60 26t-26 60z" />
    <glyph glyph-name="Epsilontonos" unicode="&#x388;" horiz-adv-x="1230" 
d="M184 614l-18 369h135l-31 -369h-86zM573 866v-329h469v-113h-469v-305h566v-119h-693v983h668v-117h-541z" />
    <glyph glyph-name="Etatonos" unicode="&#x389;" horiz-adv-x="1499" 
d="M184 614l-18 369h135l-31 -369h-86zM573 424v-424h-127v983h127v-446h639v446h127v-983h-127v424h-639z" />
    <glyph glyph-name="Iotatonos" unicode="&#x38a;" horiz-adv-x="733" 
d="M184 614l-18 369h135l-31 -369h-86zM446 0v983h127v-983h-127z" />
    <glyph glyph-name="Omicrontonos" unicode="&#x38c;" horiz-adv-x="1476" 
d="M127 614l-18 369h135l-31 -369h-86zM332 487q0 223 147 375t379 152t374 -150t142 -373t-147 -369t-381 -146t-374 144t-140 367zM851 899q-173 0 -283 -119t-109 -290q-1 -170 109 -286t284 -116t284 116t110 286t-111 290q-111 119 -284 119z" />
    <glyph glyph-name="Upsilontonos" unicode="&#x38e;" horiz-adv-x="1323" 
d="M127 614l-18 369h135l-31 -369h-86zM860 0h-127v229l-391 754h143l316 -639l315 639h135l-391 -768v-215z" />
    <glyph glyph-name="Omegatonos" unicode="&#x38f;" horiz-adv-x="1456" 
d="M127 614l-18 369h135l-31 -369h-86zM440 487q0 -102 56 -211t153 -194v-82h-338v100h168q-164 199 -164 408q-1 209 143 357q144 149 375 149t375 -144t144 -354q0 -209 -185 -416h187v-100h-336v82q94 90 152 198t59 207q0 172 -112 293t-287 121q-174 0 -282 -120
t-108 -294z" />
    <glyph glyph-name="iotadieresistonos" unicode="&#x390;" horiz-adv-x="442" 
d="M160 0v983h127v-983h-127zM299 1214q0 35 26 61q27 25 61 25t60 -26t25 -60q0 -34 -26 -60q-27 -26 -61 -26t-60 26t-25 60zM-29 1214q0 35 26 61q27 25 61 25t60 -26t26 -60t-26 -60t-61 -26t-61 26t-25 60z" />
    <glyph glyph-name="Alpha" unicode="&#x391;" horiz-adv-x="1140" 
d="M668 983l401 -983h-135l-78 180h-577l-76 -180h-131l411 983h185zM575 899l-258 -612h506z" />
    <glyph glyph-name="Beta" unicode="&#x392;" horiz-adv-x="1067" 
d="M160 0v983h434q150 0 236 -78t85 -182q1 -68 -39 -126t-110 -87q100 -29 149 -91t50 -140q0 -119 -79 -199t-265 -80h-461zM287 440v-334h334q102 0 160 52t59 121q0 69 -58 115t-161 46h-334zM287 874v-333h284q106 0 164 45q57 45 57 118q0 74 -58 122t-161 48h-286z
" />
    <glyph glyph-name="Gamma" unicode="&#x393;" horiz-adv-x="851" 
d="M160 0v983h620v-119h-493v-864h-127z" />
    <glyph glyph-name="uni0394" unicode="&#x394;" horiz-adv-x="1134" 
d="M569 899l-325 -786h639zM1063 0h-991l411 983h179z" />
    <glyph glyph-name="Epsilon" unicode="&#x395;" 
d="M287 866v-329h469v-113h-469v-305h565v-119h-692v983h667v-117h-540z" />
    <glyph glyph-name="Zeta" unicode="&#x396;" horiz-adv-x="983" 
d="M123 866v117h715v-123l-566 -741h592v-119h-745v104l583 762h-579z" />
    <glyph glyph-name="Eta" unicode="&#x397;" horiz-adv-x="1212" 
d="M287 424v-424h-127v983h127v-446h639v446h127v-983h-127v424h-639z" />
    <glyph glyph-name="Theta" unicode="&#x398;" horiz-adv-x="1247" 
d="M102 487q0 223 148 375t379 152t373 -150t142 -373t-146 -369q-148 -146 -382 -146t-374 144t-140 367zM229 490q0 -170 110 -286t284 -116q173 0 283 116t110 286t-111 290q-111 119 -283 119t-283 -119q-110 -119 -110 -290zM494 489l141 142l141 -142l-141 -141z" />
    <glyph glyph-name="Iota" unicode="&#x399;" horiz-adv-x="446" 
d="M160 0v983h127v-983h-127z" />
    <glyph glyph-name="Kappa" unicode="&#x39a;" horiz-adv-x="1091" 
d="M287 432v-432h-127v983h127v-436h266q291 432 293 436h145l-329 -483l337 -500h-157l-289 432h-266z" />
    <glyph glyph-name="Lambda" unicode="&#x39b;" horiz-adv-x="1134" 
d="M569 899l-372 -899h-125l411 983h179l401 -983h-135z" />
    <glyph glyph-name="Mu" unicode="&#x39c;" horiz-adv-x="1497" 
d="M287 0h-127v983h215l381 -829l364 829h217v-983h-127v887l-395 -887h-125l-403 868v-868z" />
    <glyph glyph-name="Nu" unicode="&#x39d;" horiz-adv-x="1245" 
d="M1085 983v-983h-118l-680 784v-784h-127v983h102l696 -793v793h127z" />
    <glyph glyph-name="Xi" unicode="&#x39e;" horiz-adv-x="866" 
d="M764 0h-662v119h662v-119zM764 866h-662v117h662v-117zM659 438h-448v115h448v-115z" />
    <glyph glyph-name="Omicron" unicode="&#x39f;" horiz-adv-x="1247" 
d="M102 487q0 223 148 375t379 152t373 -150t142 -373t-146 -369q-148 -146 -382 -146t-374 144t-140 367zM229 490q0 -170 110 -286t284 -116q173 0 283 116t110 286t-111 290q-111 119 -283 119t-283 -119q-110 -119 -110 -290z" />
    <glyph glyph-name="Pi" unicode="&#x3a0;" horiz-adv-x="1220" 
d="M287 866v-866h-127v983h901v-983h-127v866h-647z" />
    <glyph glyph-name="Rho" unicode="&#x3a1;" horiz-adv-x="1079" 
d="M160 0v983h456q154 0 257 -112q103 -113 103 -259t-102 -258q-104 -112 -278 -110h-309v-244h-127zM287 874v-516h278q135 0 210 71t75 176t-73 183t-208 86h-282z" />
    <glyph glyph-name="Sigma" unicode="&#x3a3;" horiz-adv-x="1050" 
d="M891 119v-119h-731v102l299 375l-299 414v92h710v-117h-548l282 -389l-285 -358h572z" />
    <glyph glyph-name="Tau" unicode="&#x3a4;" horiz-adv-x="860" 
d="M72 870v113h716v-113h-296v-870h-127v870h-293z" />
    <glyph glyph-name="Upsilon" unicode="&#x3a5;" horiz-adv-x="1052" 
d="M590 0h-127v229l-391 754h143l315 -639l316 639h135l-391 -768v-215z" />
    <glyph glyph-name="Phi" unicode="&#x3a6;" horiz-adv-x="1343" 
d="M735 983v-106q225 -1 365 -97t141 -279q0 -183 -136 -273t-370 -91v-137h-127v137q-506 0 -506 365q0 182 140 278t366 97v106h127zM735 762v-510q180 0 280 55q99 55 99 193q0 262 -379 262zM608 252v510q-379 0 -379 -262q0 -248 379 -248z" />
    <glyph glyph-name="Chi" unicode="&#x3a7;" horiz-adv-x="1044" 
d="M801 0l-279 416l-278 -416h-152l338 492l-330 491h150l276 -408l273 408h145l-330 -491l338 -492h-151z" />
    <glyph glyph-name="Psi" unicode="&#x3a8;" horiz-adv-x="1333" 
d="M725 197v-197h-119v197q-221 1 -362 115t-142 323v348h117v-362q1 -123 105 -213t282 -91v666h119v-666q184 0 287 81q102 81 102 227v358h117v-352q0 -211 -130 -323t-376 -111z" />
    <glyph glyph-name="uni03A9" unicode="&#x3a9;" horiz-adv-x="1247" 
d="M231 487q1 -102 57 -211t152 -194v-82h-338v100h168q-164 199 -164 408t144 357q144 149 374 149q232 0 375 -144t143 -354q0 -209 -184 -416h187v-100h-336v82q94 90 153 198q58 108 58 207q0 172 -112 293t-286 121t-283 -120q-108 -120 -108 -294z" />
    <glyph glyph-name="Iotadieresis" unicode="&#x3aa;" horiz-adv-x="442" 
d="M160 0v983h127v-983h-127zM299 1214q0 35 26 61q27 25 61 25t60 -26t25 -60q0 -34 -26 -60q-27 -26 -61 -26t-60 26t-25 60zM-29 1214q0 35 26 61q27 25 61 25t60 -26t26 -60t-26 -60t-61 -26t-61 26t-25 60z" />
    <glyph glyph-name="Upsilondieresis" unicode="&#x3ab;" horiz-adv-x="1052" 
d="M604 1214q0 35 26 61q26 25 60 25t61 -26q25 -26 25 -60t-26 -60t-60 -26t-60 26t-26 60zM276 1214q0 35 26 61q26 25 60 25t61 -26q26 -26 26 -60t-26 -60t-61 -26q-34 0 -60 26t-26 60zM590 0h-127v229l-391 754h143l315 -639l316 639h135l-391 -768v-215z" />
    <glyph glyph-name="alphatonos" unicode="&#x3ac;" horiz-adv-x="1140" 
d="M82 614l-19 369h136l-31 -369h-86zM668 983l401 -983h-135l-78 180h-577l-76 -180h-131l411 983h185zM575 899l-258 -612h506z" />
    <glyph glyph-name="epsilontonos" unicode="&#x3ad;" horiz-adv-x="1230" 
d="M184 614l-18 369h135l-31 -369h-86zM573 866v-329h469v-113h-469v-305h566v-119h-693v983h668v-117h-541z" />
    <glyph glyph-name="etatonos" unicode="&#x3ae;" horiz-adv-x="1499" 
d="M184 614l-18 369h135l-31 -369h-86zM573 424v-424h-127v983h127v-446h639v446h127v-983h-127v424h-639z" />
    <glyph glyph-name="iotatonos" unicode="&#x3af;" horiz-adv-x="733" 
d="M184 614l-18 369h135l-31 -369h-86zM446 0v983h127v-983h-127z" />
    <glyph glyph-name="upsilondieresistonos" unicode="&#x3b0;" horiz-adv-x="1052" 
d="M604 1214q0 35 26 61q26 25 60 25t61 -26q25 -26 25 -60t-26 -60t-60 -26t-60 26t-26 60zM276 1214q0 35 26 61q26 25 60 25t61 -26q26 -26 26 -60t-26 -60t-61 -26q-34 0 -60 26t-26 60zM590 0h-127v229l-391 754h143l315 -639l316 639h135l-391 -768v-215z" />
    <glyph glyph-name="alpha" unicode="&#x3b1;" horiz-adv-x="1140" 
d="M668 983l401 -983h-135l-78 180h-577l-76 -180h-131l411 983h185zM575 899l-258 -612h506z" />
    <glyph glyph-name="beta" unicode="&#x3b2;" horiz-adv-x="1067" 
d="M160 0v983h434q150 0 236 -78t85 -182q1 -68 -39 -126t-110 -87q100 -29 149 -91t50 -140q0 -119 -79 -199t-265 -80h-461zM287 440v-334h334q102 0 160 52t59 121q0 69 -58 115t-161 46h-334zM287 874v-333h284q106 0 164 45q57 45 57 118q0 74 -58 122t-161 48h-286z
" />
    <glyph glyph-name="gamma" unicode="&#x3b3;" horiz-adv-x="851" 
d="M160 0v983h620v-119h-493v-864h-127z" />
    <glyph glyph-name="delta" unicode="&#x3b4;" horiz-adv-x="1134" 
d="M569 899l-325 -786h639zM1063 0h-991l411 983h179z" />
    <glyph glyph-name="epsilon" unicode="&#x3b5;" 
d="M287 866v-329h469v-113h-469v-305h565v-119h-692v983h667v-117h-540z" />
    <glyph glyph-name="zeta" unicode="&#x3b6;" horiz-adv-x="983" 
d="M123 866v117h715v-123l-566 -741h592v-119h-745v104l583 762h-579z" />
    <glyph glyph-name="eta" unicode="&#x3b7;" horiz-adv-x="1212" 
d="M287 424v-424h-127v983h127v-446h639v446h127v-983h-127v424h-639z" />
    <glyph glyph-name="theta" unicode="&#x3b8;" horiz-adv-x="1247" 
d="M102 487q0 223 148 375t379 152t373 -150t142 -373t-146 -369q-148 -146 -382 -146t-374 144t-140 367zM229 490q0 -170 110 -286t284 -116q173 0 283 116t110 286t-111 290q-111 119 -283 119t-283 -119q-110 -119 -110 -290zM494 489l141 142l141 -142l-141 -141z" />
    <glyph glyph-name="iota" unicode="&#x3b9;" horiz-adv-x="446" 
d="M160 0v983h127v-983h-127z" />
    <glyph glyph-name="kappa" unicode="&#x3ba;" horiz-adv-x="1091" 
d="M287 432v-432h-127v983h127v-436h266q291 432 293 436h145l-329 -483l337 -500h-157l-289 432h-266z" />
    <glyph glyph-name="lambda" unicode="&#x3bb;" horiz-adv-x="1134" 
d="M569 899l-372 -899h-125l411 983h179l401 -983h-135z" />
    <glyph glyph-name="uni03BC" unicode="&#x3bc;" horiz-adv-x="1497" 
d="M287 0h-127v983h215l381 -829l364 829h217v-983h-127v887l-395 -887h-125l-403 868v-868z" />
    <glyph glyph-name="nu" unicode="&#x3bd;" horiz-adv-x="1245" 
d="M1085 983v-983h-118l-680 784v-784h-127v983h102l696 -793v793h127z" />
    <glyph glyph-name="xi" unicode="&#x3be;" horiz-adv-x="866" 
d="M764 0h-662v119h662v-119zM764 866h-662v117h662v-117zM659 438h-448v115h448v-115z" />
    <glyph glyph-name="omicron" unicode="&#x3bf;" horiz-adv-x="1247" 
d="M102 487q0 223 148 375t379 152t373 -150t142 -373t-146 -369q-148 -146 -382 -146t-374 144t-140 367zM229 490q0 -170 110 -286t284 -116q173 0 283 116t110 286t-111 290q-111 119 -283 119t-283 -119q-110 -119 -110 -290z" />
    <glyph glyph-name="pi" unicode="&#x3c0;" horiz-adv-x="1220" 
d="M287 866v-866h-127v983h901v-983h-127v866h-647z" />
    <glyph glyph-name="rho" unicode="&#x3c1;" horiz-adv-x="1079" 
d="M160 0v983h456q154 0 257 -112q103 -113 103 -259t-102 -258q-104 -112 -278 -110h-309v-244h-127zM287 874v-516h278q135 0 210 71t75 176t-73 183t-208 86h-282z" />
    <glyph glyph-name="sigma1" unicode="&#x3c2;" horiz-adv-x="1050" 
d="M891 119v-119h-731v102l299 375l-299 414v92h710v-117h-548l282 -389l-285 -358h572z" />
    <glyph glyph-name="sigma" unicode="&#x3c3;" horiz-adv-x="1050" 
d="M891 119v-119h-731v102l299 375l-299 414v92h710v-117h-548l282 -389l-285 -358h572z" />
    <glyph glyph-name="tau" unicode="&#x3c4;" horiz-adv-x="860" 
d="M72 870v113h716v-113h-296v-870h-127v870h-293z" />
    <glyph glyph-name="upsilon" unicode="&#x3c5;" horiz-adv-x="1052" 
d="M590 0h-127v229l-391 754h143l315 -639l316 639h135l-391 -768v-215z" />
    <glyph glyph-name="phi" unicode="&#x3c6;" horiz-adv-x="1343" 
d="M735 983v-106q225 -1 365 -97t141 -279q0 -183 -136 -273t-370 -91v-137h-127v137q-506 0 -506 365q0 182 140 278t366 97v106h127zM735 762v-510q180 0 280 55q99 55 99 193q0 262 -379 262zM608 252v510q-379 0 -379 -262q0 -248 379 -248z" />
    <glyph glyph-name="chi" unicode="&#x3c7;" horiz-adv-x="1044" 
d="M801 0l-279 416l-278 -416h-152l338 492l-330 491h150l276 -408l273 408h145l-330 -491l338 -492h-151z" />
    <glyph glyph-name="psi" unicode="&#x3c8;" horiz-adv-x="1333" 
d="M725 197v-197h-119v197q-221 1 -362 115t-142 323v348h117v-362q1 -123 105 -213t282 -91v666h119v-666q184 0 287 81q102 81 102 227v358h117v-352q0 -211 -130 -323t-376 -111z" />
    <glyph glyph-name="omega" unicode="&#x3c9;" horiz-adv-x="1247" 
d="M231 487q1 -102 57 -211t152 -194v-82h-338v100h168q-164 199 -164 408t144 357q144 149 374 149q232 0 375 -144t143 -354q0 -209 -184 -416h187v-100h-336v82q94 90 153 198q58 108 58 207q0 172 -112 293t-286 121t-283 -120q-108 -120 -108 -294z" />
    <glyph glyph-name="iotadieresis" unicode="&#x3ca;" horiz-adv-x="442" 
d="M160 0v983h127v-983h-127zM299 1214q0 35 26 61q27 25 61 25t60 -26t25 -60q0 -34 -26 -60q-27 -26 -61 -26t-60 26t-25 60zM-29 1214q0 35 26 61q27 25 61 25t60 -26t26 -60t-26 -60t-61 -26t-61 26t-25 60z" />
    <glyph glyph-name="upsilondieresis" unicode="&#x3cb;" horiz-adv-x="1052" 
d="M604 1214q0 35 26 61q26 25 60 25t61 -26q25 -26 25 -60t-26 -60t-60 -26t-60 26t-26 60zM276 1214q0 35 26 61q26 25 60 25t61 -26q26 -26 26 -60t-26 -60t-61 -26q-34 0 -60 26t-26 60zM590 0h-127v229l-391 754h143l315 -639l316 639h135l-391 -768v-215z" />
    <glyph glyph-name="omicrontonos" unicode="&#x3cc;" horiz-adv-x="1476" 
d="M127 614l-18 369h135l-31 -369h-86zM332 487q0 223 147 375t379 152t374 -150t142 -373t-147 -369t-381 -146t-374 144t-140 367zM851 899q-173 0 -283 -119t-109 -290q-1 -170 109 -286t284 -116t284 116t110 286t-111 290q-111 119 -284 119z" />
    <glyph glyph-name="upsilontonos" unicode="&#x3cd;" horiz-adv-x="1323" 
d="M127 614l-18 369h135l-31 -369h-86zM860 0h-127v229l-391 754h143l316 -639l315 639h135l-391 -768v-215z" />
    <glyph glyph-name="omegatonos" unicode="&#x3ce;" horiz-adv-x="1456" 
d="M127 614l-18 369h135l-31 -369h-86zM440 487q0 -102 56 -211t153 -194v-82h-338v100h168q-164 199 -164 408q-1 209 143 357q144 149 375 149t375 -144t144 -354q0 -209 -185 -416h187v-100h-336v82q94 90 152 198t59 207q0 172 -112 293t-287 121q-174 0 -282 -120
t-108 -294z" />
    <glyph glyph-name="Wgrave" unicode="&#x1e80;" horiz-adv-x="1703" 
d="M1020 1126l-363 152l54 106l352 -182zM772 983h160l295 -879l278 879h127l-317 -983h-178l-287 858l-275 -858h-182l-321 983h127l288 -879z" />
    <glyph glyph-name="wgrave" unicode="&#x1e81;" horiz-adv-x="1703" 
d="M1020 1126l-363 152l54 106l352 -182zM772 983h160l295 -879l278 879h127l-317 -983h-178l-287 858l-275 -858h-182l-321 983h127l288 -879z" />
    <glyph glyph-name="Wacute" unicode="&#x1e82;" horiz-adv-x="1703" 
d="M1057 1278l-363 -152l-43 76l353 182zM772 983h160l295 -879l278 879h127l-317 -983h-178l-287 858l-275 -858h-182l-321 983h127l288 -879z" />
    <glyph glyph-name="wacute" unicode="&#x1e83;" horiz-adv-x="1703" 
d="M1057 1278l-363 -152l-43 76l353 182zM772 983h160l295 -879l278 879h127l-317 -983h-178l-287 858l-275 -858h-182l-321 983h127l288 -879z" />
    <glyph glyph-name="Wdieresis" unicode="&#x1e84;" horiz-adv-x="1703" 
d="M924 1214q0 35 25 61q26 25 61 25q34 0 60 -26t26 -60t-26 -60t-60 -26t-60 26t-26 60zM596 1214q0 35 26 61q26 25 60 25t60 -26t26 -60t-26 -60t-60 -26t-60 26t-26 60zM772 983h160l295 -879l278 879h127l-317 -983h-178l-287 858l-275 -858h-182l-321 983h127
l288 -879z" />
    <glyph glyph-name="wdieresis" unicode="&#x1e85;" horiz-adv-x="1703" 
d="M924 1214q0 35 25 61q26 25 61 25q34 0 60 -26t26 -60t-26 -60t-60 -26t-60 26t-26 60zM596 1214q0 35 26 61q26 25 60 25t60 -26t26 -60t-26 -60t-60 -26t-60 26t-26 60zM772 983h160l295 -879l278 879h127l-317 -983h-178l-287 858l-275 -858h-182l-321 983h127
l288 -879z" />
    <glyph glyph-name="uni1E9E" unicode="&#x1e9e;" horiz-adv-x="1218" 
d="M772 782q0 -22 -12 -68t-12 -87t40 -72t100 -46q58 -15 118 -35t100 -74q41 -54 41 -142q1 -131 -103 -201q-104 -69 -252 -69t-262 68q-113 68 -120 186l120 32q0 -76 80 -120t176 -45q96 1 166 33t70 100t-41 105q-41 36 -99 52q-58 17 -118 35t-100 60q-41 42 -41 112
q0 25 12 70t12 74q0 61 -49 102t-131 41t-131 -41t-49 -115v-737h-127v737q0 131 89 200t219 69t217 -64t87 -160z" />
    <glyph glyph-name="Adotbelow" unicode="&#x1ea0;" horiz-adv-x="1140" 
d="M483 -201q0 35 26 61q27 26 61 26t60 -26t26 -61t-26 -61t-61 -25q-35 -1 -61 25t-25 61zM668 983l401 -983h-135l-78 180h-577l-76 -180h-131l411 983h185zM575 899l-258 -612h506z" />
    <glyph glyph-name="adotbelow" unicode="&#x1ea1;" horiz-adv-x="1140" 
d="M483 -201q0 35 26 61q27 26 61 26t60 -26t26 -61t-26 -61t-61 -25q-35 -1 -61 25t-25 61zM668 983l401 -983h-135l-78 180h-577l-76 -180h-131l411 983h185zM575 899l-258 -612h506z" />
    <glyph glyph-name="Edotbelow" unicode="&#x1eb8;" 
d="M385 -201q0 35 26 61q27 26 61 26t60 -26t25 -61q0 -35 -26 -61q-27 -26 -61 -25q-34 -1 -60 25t-25 61zM287 866v-329h469v-113h-469v-305h565v-119h-692v983h667v-117h-540z" />
    <glyph glyph-name="edotbelow" unicode="&#x1eb9;" 
d="M385 -201q0 35 26 61q27 26 61 26t60 -26t25 -61q0 -35 -26 -61q-27 -26 -61 -25q-34 -1 -60 25t-25 61zM287 866v-329h469v-113h-469v-305h565v-119h-692v983h667v-117h-540z" />
    <glyph glyph-name="Etilde" unicode="&#x1ebc;" 
d="M381 1298q33 0 90 -34t81 -35q24 0 38 4q12 4 26 14t37 26t39 34l56 -80q-115 -100 -189 -101q-45 0 -99 34t-89 34t-123 -72l-51 80q117 96 184 96zM287 866v-329h469v-113h-469v-305h565v-119h-692v983h667v-117h-540z" />
    <glyph glyph-name="etilde" unicode="&#x1ebd;" 
d="M381 1298q33 0 90 -34t81 -35q24 0 38 4q12 4 26 14t37 26t39 34l56 -80q-115 -100 -189 -101q-45 0 -99 34t-89 34t-123 -72l-51 80q117 96 184 96zM287 866v-329h469v-113h-469v-305h565v-119h-692v983h667v-117h-540z" />
    <glyph glyph-name="Idotbelow" unicode="&#x1eca;" horiz-adv-x="446" 
d="M137 -201q0 35 26 61q27 26 61 26t60 -26t26 -61t-26 -61t-61 -25q-35 -1 -61 25t-25 61zM160 0v983h127v-983h-127z" />
    <glyph glyph-name="idotbelow" unicode="&#x1ecb;" horiz-adv-x="446" 
d="M137 -201q0 35 26 61q27 26 61 26t60 -26t26 -61t-26 -61t-61 -25q-35 -1 -61 25t-25 61zM160 0v983h127v-983h-127z" />
    <glyph glyph-name="Odotbelow" unicode="&#x1ecc;" horiz-adv-x="1247" 
d="M537 -201q0 35 25 61q26 26 61 26t61 -26t25 -61q0 -35 -26 -61q-27 -26 -61 -25q-34 -1 -60 25t-25 61zM102 487q0 223 148 375t379 152t373 -150t142 -373t-146 -369q-148 -146 -382 -146t-374 144t-140 367zM229 490q0 -170 110 -286t284 -116q173 0 283 116t110 286
t-111 290q-111 119 -283 119t-283 -119q-110 -119 -110 -290z" />
    <glyph glyph-name="odotbelow" unicode="&#x1ecd;" horiz-adv-x="1247" 
d="M537 -201q0 35 25 61q26 26 61 26t61 -26t25 -61q0 -35 -26 -61q-27 -26 -61 -25q-34 -1 -60 25t-25 61zM102 487q0 223 148 375t379 152t373 -150t142 -373t-146 -369q-148 -146 -382 -146t-374 144t-140 367zM229 490q0 -170 110 -286t284 -116q173 0 283 116t110 286
t-111 290q-111 119 -283 119t-283 -119q-110 -119 -110 -290z" />
    <glyph glyph-name="Udotbelow" unicode="&#x1ee4;" horiz-adv-x="1077" 
d="M453 -201q0 35 25 61q26 26 61 26t61 -26t25 -61q0 -35 -26 -61q-27 -26 -61 -25q-34 -1 -60 25t-25 61zM848 408v575h127v-565q0 -209 -119 -323q-120 -113 -320 -113t-317 114t-117 324v563h127v-577q0 -134 83 -216t225 -81q311 0 311 299z" />
    <glyph glyph-name="udotbelow" unicode="&#x1ee5;" horiz-adv-x="1077" 
d="M453 -201q0 35 25 61q26 26 61 26t61 -26t25 -61q0 -35 -26 -61q-27 -26 -61 -25q-34 -1 -60 25t-25 61zM848 408v575h127v-565q0 -209 -119 -323q-120 -113 -320 -113t-317 114t-117 324v563h127v-577q0 -134 83 -216t225 -81q311 0 311 299z" />
    <glyph glyph-name="Ygrave" unicode="&#x1ef2;" horiz-adv-x="1052" 
d="M684 1126l-362 152l53 106l352 -182zM590 0h-127v229l-391 754h143l315 -639l316 639h135l-391 -768v-215z" />
    <glyph glyph-name="ygrave" unicode="&#x1ef3;" horiz-adv-x="1052" 
d="M684 1126l-362 152l53 106l352 -182zM590 0h-127v229l-391 754h143l315 -639l316 639h135l-391 -768v-215z" />
    <glyph glyph-name="Ytilde" unicode="&#x1ef8;" horiz-adv-x="1052" 
d="M436 1298q33 0 90 -34t88 -35q31 0 70 27t64 51l55 -80q-115 -100 -189 -101q-45 0 -99 34t-89 34t-123 -72l-51 80q117 96 184 96zM590 0h-127v229l-391 754h143l315 -639l316 639h135l-391 -768v-215z" />
    <glyph glyph-name="ytilde" unicode="&#x1ef9;" horiz-adv-x="1052" 
d="M436 1298q33 0 90 -34t88 -35q31 0 70 27t64 51l55 -80q-115 -100 -189 -101q-45 0 -99 34t-89 34t-123 -72l-51 80q117 96 184 96zM590 0h-127v229l-391 754h143l315 -639l316 639h135l-391 -768v-215z" />
    <glyph glyph-name="endash" unicode="&#x2013;" horiz-adv-x="1245" 
d="M1085 424h-925v113h925v-113z" />
    <glyph glyph-name="emdash" unicode="&#x2014;" horiz-adv-x="1497" 
d="M1337 424h-1177v113h1177v-113z" />
    <glyph glyph-name="uni2015" unicode="&#x2015;" horiz-adv-x="851" 
d="M692 424h-532v113h532v-113z" />
    <glyph glyph-name="quoteleft" unicode="&#x2018;" horiz-adv-x="491" 
d="M332 770q0 -34 -26 -58q-26 -26 -60 -26t-61 26q-43 43 -15 101l102 178l45 -26l-61 -107q32 -4 54 -29t22 -59z" />
    <glyph glyph-name="quoteright" unicode="&#x2019;" horiz-adv-x="491" 
d="M332 912q0 -28 -10 -48l-103 -178l-45 27l62 106q-33 4 -55 29q-21 24 -21 58t25 60q26 26 61 26q34 0 60 -26t26 -54z" />
    <glyph glyph-name="quotesinglbase" unicode="&#x201a;" horiz-adv-x="491" 
d="M246 172q34 0 60 -26t26 -53t-10 -48l-103 -178l-45 27l62 106q-33 4 -55 29q-21 25 -21 59t26 58q26 26 60 26z" />
    <glyph glyph-name="quotedblleft" unicode="&#x201c;" horiz-adv-x="716" 
d="M470 686q-34 0 -60 26t-25 53q0 27 10 48l103 178l45 -26l-62 -107q33 -4 55 -29t22 -59t-27 -58q-27 -26 -61 -26zM332 770q0 -34 -26 -58q-26 -26 -60 -26t-61 26q-43 43 -15 101l102 178l45 -26l-61 -107q32 -4 54 -29t22 -59z" />
    <glyph glyph-name="quotedblright" unicode="&#x201d;" horiz-adv-x="716" 
d="M385 906q0 34 26 60q27 26 61 26t60 -26t25 -54q0 -28 -10 -48l-103 -178l-45 27l62 106q-33 4 -55 29q-22 24 -21 58zM332 912q0 -28 -10 -48l-103 -178l-45 27l62 106q-33 4 -55 29q-21 24 -21 58t25 60q26 26 61 26q34 0 60 -26t26 -54z" />
    <glyph glyph-name="quotedblbase" unicode="&#x201e;" horiz-adv-x="716" 
d="M385 88q0 34 26 58q27 26 61 26t60 -26t25 -53q0 -27 -10 -48l-103 -178l-45 27l62 106q-33 4 -55 29t-21 59zM246 172q34 0 60 -26t26 -53t-10 -48l-103 -178l-45 27l62 106q-33 4 -55 29q-21 25 -21 59t26 58q26 26 60 26z" />
    <glyph glyph-name="dagger" unicode="&#x2020;" horiz-adv-x="851" 
d="M692 608h-211v-813h-116v813h-205v113h205v405h116v-405h211v-113z" />
    <glyph glyph-name="daggerdbl" unicode="&#x2021;" horiz-adv-x="851" 
d="M692 233h-211v-438h-116v438h-205v113h205v262h-205v113h205v405h116v-405h211v-113h-211v-262h211v-113z" />
    <glyph glyph-name="bullet" unicode="&#x2022;" horiz-adv-x="663" 
d="M160 528q0 70 51 121t121 51t121 -51t51 -121t-51 -120t-121 -52q-70 0 -121 51t-51 121z" />
    <glyph glyph-name="ellipsis" unicode="&#x2026;" horiz-adv-x="1064" 
d="M733 86q0 34 26 60q27 26 61 26t60 -26t26 -60t-26 -60t-61 -26t-61 26t-25 60zM446 86q0 34 26 60t60 26t61 -26q25 -26 25 -60t-26 -60t-60 -26t-60 26t-26 60zM160 86q0 34 26 60t60 26t60 -26t26 -60t-26 -60t-60 -26t-60 26t-26 60z" />
    <glyph glyph-name="perthousand" unicode="&#x2030;" horiz-adv-x="1622" 
d="M1106 197q0 84 61 145t145 61t146 -61t62 -145q0 -83 -62 -145t-145 -62q-84 0 -146 61q-61 62 -61 146zM1312 309q-44 -1 -78 -35t-34 -78t34 -78t78 -34t79 34t35 78t-36 78q-34 34 -78 35zM352 0l346 983h105l-346 -983h-105zM635 197q0 84 61 145q62 61 146 61
t145 -61t61 -145q0 -83 -60 -145q-62 -62 -146 -62t-146 61q-61 62 -61 146zM841 309q-44 -1 -78 -35t-34 -78t34 -78t78 -34t79 34q34 34 34 78t-34 78t-79 35zM102 782q0 84 62 146t145 61q83 0 145 -61q62 -62 62 -146t-61 -145t-145 -61t-146 60q-62 62 -62 146z
M308 895q-44 0 -78 -35t-33 -79q-1 -44 33 -78q34 -33 78 -33t79 34t35 77q0 44 -35 79t-79 35z" />
    <glyph glyph-name="guilsinglleft" unicode="&#x2039;" horiz-adv-x="696" 
d="M102 475l375 352l60 -75l-295 -273l295 -270l-60 -76z" />
    <glyph glyph-name="guilsinglright" unicode="&#x203a;" horiz-adv-x="696" 
d="M594 481l-375 -352l-59 76l295 272l-295 271l59 75z" />
    <glyph glyph-name="uni203D" unicode="&#x203d;" horiz-adv-x="851" 
d="M319 86q0 34 26 60t61 26q34 0 60 -26t26 -60t-26 -60t-60 -26t-61 26q-26 26 -26 60zM606 700q0 74 -38 123t-101 66l-6 -440q145 118 145 251zM418 1012q144 0 226 -85q83 -85 83 -214t-93 -240t-228 -174l-54 49l-8 541q-135 -37 -137 -217l-107 28q2 144 88 228
t230 84z" />
    <glyph glyph-name="fraction" unicode="&#x2044;" horiz-adv-x="907" 
d="M160 -205l471 1331h117l-472 -1331h-116z" />
    <glyph glyph-name="uni2070" unicode="&#x2070;" horiz-adv-x="509" 
d="M250 557q36 0 68 44t32 127t-26 130q-27 47 -73 47t-73 -47q-26 -47 -26 -130t30 -127t68 -44zM247 465q-93 1 -143 71t-51 191q0 121 52 198q53 77 147 77t146 -78q52 -76 52 -195t-54 -191q-56 -72 -149 -73z" />
    <glyph glyph-name="uni2074" unicode="&#x2074;" horiz-adv-x="450" 
d="M338 989v-338h53v-94h-53v-82h-96v84h-228v66l207 364h117zM242 651v197l-115 -197h115z" />
    <glyph glyph-name="uni2075" unicode="&#x2075;" horiz-adv-x="466" 
d="M217 465q-119 0 -188 90l63 80q20 -31 58 -53t70 -23q34 0 62 23q28 24 28 56t-29 51q-72 47 -160 -11l-74 43l37 268h295v-92h-211l-14 -109q43 14 75 15q76 0 127 -43q52 -43 52 -119t-54 -126t-137 -50z" />
    <glyph glyph-name="uni2076" unicode="&#x2076;" horiz-adv-x="460" 
d="M322 623q0 67 -69 67t-110 -45q8 -45 35 -70t62 -25q34 0 58 22t24 51zM231 901q-94 0 -100 -162q61 45 130 45t115 -41t46 -111t-52 -122t-140 -51q-88 0 -142 69q-53 70 -53 193t51 199t133 76t128 -41q46 -40 65 -95l-90 -41q-32 82 -91 82z" />
    <glyph glyph-name="uni2077" unicode="&#x2077;" horiz-adv-x="389" 
d="M12 897v92h338v-67l-149 -447h-105l142 422h-226z" />
    <glyph glyph-name="uni2078" unicode="&#x2078;" horiz-adv-x="454" 
d="M145 838q0 -62 80 -62t80 62q0 31 -24 47q-25 16 -59 16t-56 -18t-21 -45zM133 604q0 -31 26 -51q25 -21 63 -21t66 20t28 52q0 31 -23 51q-23 21 -68 21t-69 -20t-23 -52zM416 608q0 -76 -56 -121t-137 -45q-80 0 -135 43t-55 122t76 122q-63 35 -63 108t51 113
q52 40 129 41q77 0 126 -38q49 -37 49 -109t-65 -115q80 -45 80 -121z" />
    <glyph glyph-name="uni2079" unicode="&#x2079;" horiz-adv-x="462" 
d="M123 811q0 -76 79 -76t113 58q-3 47 -31 79t-69 31q-41 0 -67 -26q-25 -27 -25 -66zM217 545q39 0 75 40t34 109q-47 -49 -119 -49t-122 44t-50 122t49 130t142 52q94 0 144 -78q50 -79 50 -193t-58 -188t-136 -75q-79 0 -130 40t-65 107l78 29q13 -39 41 -65t67 -25z
" />
    <glyph glyph-name="uni2080" unicode="&#x2080;" horiz-adv-x="509" 
d="M250 -119q36 0 68 44t32 127t-26 130q-27 47 -73 47t-73 -47q-26 -47 -26 -130t30 -127t68 -44zM247 -211q-93 1 -143 71t-51 191q0 121 52 198q53 77 147 77t146 -77t52 -196t-54 -191q-56 -72 -149 -73z" />
    <glyph glyph-name="uni2081" unicode="&#x2081;" horiz-adv-x="256" 
d="M51 213v92h150v-516h-95v424h-55z" />
    <glyph glyph-name="uni2082" unicode="&#x2082;" horiz-adv-x="473" 
d="M401 160q0 -137 -186 -275h199v-92h-363v68q254 174 254 291q0 37 -22 57q-23 20 -57 20q-72 0 -76 -114l-95 20q2 88 49 138q47 51 126 51t125 -47t46 -117z" />
    <glyph glyph-name="uni2083" unicode="&#x2083;" horiz-adv-x="475" 
d="M229 -119q39 -1 64 19t25 52t-26 58q-24 26 -85 27q-16 0 -27 -2l-20 55l125 150h-209v86h323v-66l-129 -156q76 -4 111 -52t35 -110t-56 -106q-56 -45 -133 -45q-110 0 -178 92l68 68q43 -70 112 -70z" />
    <glyph glyph-name="uni2084" unicode="&#x2084;" horiz-adv-x="450" 
d="M338 307v-338h53v-94h-53v-82h-96v84h-228v66l207 364h117zM242 -31v197l-115 -197h115z" />
    <glyph glyph-name="uni2085" unicode="&#x2085;" horiz-adv-x="466" 
d="M229 127q76 0 127 -43q52 -43 52 -119t-54 -126t-137 -50q-119 0 -188 90l63 80q20 -31 58 -53t70 -23q34 0 62 23q28 24 28 56t-29 51q-72 47 -160 -11l-74 43l37 268h295v-92h-211l-14 -108q43 14 75 14z" />
    <glyph glyph-name="uni2086" unicode="&#x2086;" horiz-adv-x="460" 
d="M322 -41q0 68 -69 68t-110 -45q8 -45 35 -70t62 -25q34 -1 58 21t24 51zM231 238q-94 0 -100 -162q61 45 130 45t115 -41q46 -42 46 -112t-52 -122t-140 -51q-88 0 -142 70q-53 71 -53 193t51 198t133 76t128 -40t65 -95l-90 -41q-32 82 -91 82z" />
    <glyph glyph-name="uni2087" unicode="&#x2087;" horiz-adv-x="389" 
d="M12 211v92h338v-67l-149 -447h-105l142 422h-226z" />
    <glyph glyph-name="uni2088" unicode="&#x2088;" horiz-adv-x="454" 
d="M145 184q0 -61 80 -61t80 61t-84 64q-33 0 -55 -18t-21 -46zM133 -49q0 -31 26 -51q25 -20 63 -20t66 20t28 51t-23 51t-68 20t-69 -20t-23 -51zM416 -45q0 -76 -56 -121t-137 -45q-80 0 -135 43t-55 122t76 122q-63 36 -63 108t51 113q52 41 129 41t126 -38t49 -110
t-65 -114q80 -45 80 -121z" />
    <glyph glyph-name="uni2089" unicode="&#x2089;" horiz-adv-x="462" 
d="M123 145q0 -75 79 -75t113 57q-2 47 -30 79q-29 32 -70 32t-67 -27t-25 -66zM217 -121q39 0 75 40t34 110q-47 -49 -119 -49t-122 44t-50 122t49 129q49 53 142 53q94 0 144 -78t50 -193t-58 -189t-136 -75q-79 0 -130 40t-65 108l78 28q13 -39 41 -65t67 -25z" />
    <glyph glyph-name="lira" unicode="&#x20a4;" horiz-adv-x="851" 
d="M92 465v106h72q-49 84 -49 148q0 123 83 208t226 85t229 -84t88 -228q-50 -12 -74 -20t-32 -8q-2 109 -55 167q-52 58 -142 58t-145 -52t-55 -145q0 -47 47 -129h346v-106h-287q16 -41 23 -78h264v-106h-273q-33 -125 -125 -170h496v-111h-637v111q117 66 146 170h-146
v106h152q-6 43 -21 78h-131z" />
    <glyph glyph-name="Euro" unicode="&#x20ac;" horiz-adv-x="1120" 
d="M634 -20q-202 0 -333 90t-176 256h-125v106h104q-2 20 -2 64v32h-102v107h119q39 166 166 268q127 103 293 103t275 -56q110 -56 151 -157q41 -102 12 -222l-121 -14q12 37 12 92t-24 101q-70 143 -283 143q-141 0 -232 -69t-124 -189h485l-41 -107h-461v-30q0 -25 4 -66
h420l-41 -106h-354q87 -224 387 -226q150 0 309 109l64 -92q-180 -137 -382 -137z" />
    <glyph glyph-name="trademark" unicode="&#x2122;" horiz-adv-x="1155" 
d="M51 901v94h387v-94h-143v-422h-100v422h-144zM575 479h-100v516h131l176 -381l168 381h133v-516h-100v352l-156 -352h-92l-160 342v-342z" />
    <glyph glyph-name="Omega" unicode="&#x2126;" horiz-adv-x="1247" 
d="M231 487q1 -102 57 -211t152 -194v-82h-338v100h168q-164 199 -164 408t144 357q144 149 374 149q232 0 375 -144t143 -354q0 -209 -184 -416h187v-100h-336v82q94 90 153 198q58 108 58 207q0 172 -112 293t-286 121t-283 -120q-108 -120 -108 -294z" />
    <glyph glyph-name="Delta" unicode="&#x2206;" horiz-adv-x="1134" 
d="M569 899l-325 -786h639zM1063 0h-991l411 983h179z" />
    <glyph glyph-name="minus" unicode="&#x2212;" horiz-adv-x="851" 
d="M692 424h-532v113h532v-113z" />
    <glyph glyph-name="uni2215" unicode="&#x2215;" horiz-adv-x="907" 
d="M160 -205l471 1331h117l-472 -1331h-116z" />
    <glyph glyph-name="uni2219" unicode="&#x2219;" horiz-adv-x="491" 
d="M160 528q0 35 25 61q26 25 61 25q34 0 60 -26t26 -60t-26 -60t-60 -26t-60 26t-26 60z" />
    <glyph glyph-name="approxequal" unicode="&#x2248;" horiz-adv-x="970" 
d="M596 332q68 0 162 82l53 -90q-117 -102 -213 -103q-53 0 -139 34q-87 34 -137 34t-109 -51l-53 90q88 74 176 73q57 -1 138 -35t122 -34zM336 668q57 0 138 -35t122 -35q68 0 162 82l53 -90q-117 -102 -213 -103q-53 0 -139 34q-87 34 -137 34t-109 -51l-53 90
q88 74 176 74z" />
    <glyph glyph-name="notequal" unicode="&#x2260;" horiz-adv-x="907" 
d="M201 281v112h170l61 174h-231v113h272l158 446h117l-158 -446h143v-113h-184l-62 -174h246v-112h-284l-173 -486h-116l172 486h-131z" />
    <glyph glyph-name="lessequal" unicode="&#x2264;" horiz-adv-x="851" 
d="M160 537l532 286v-112l-428 -232l428 -229v-117l-532 287v117zM692 0h-532v102h532v-102z" />
    <glyph glyph-name="greaterequal" unicode="&#x2265;" horiz-adv-x="851" 
d="M692 420l-532 -287v113l428 231l-428 230v116l532 -286v-117zM692 0h-532v102h532v-102z" />
    <glyph glyph-name="dotbelow" horiz-adv-x="491" 
d="M160 -201q0 35 25 61q26 26 61 26q34 0 60 -26t26 -61t-26 -61t-60 -25q-34 -1 -60 25t-26 61z" />
    <glyph glyph-name="IJacute" horiz-adv-x="761" 
d="M745 1257l-362 -151l-43 76l354 176zM428 1298l-362 -151l-43 76l354 176zM160 0v983h127v-983h-127zM479 154v829h127v-805q0 -213 -120 -328t-322 -114v117q315 0 315 301z" />
    <glyph glyph-name="ijacute" horiz-adv-x="761" 
d="M745 1257l-362 -151l-43 76l354 176zM428 1298l-362 -151l-43 76l354 176zM160 0v983h127v-983h-127zM479 154v829h123v-805q0 -213 -119 -328t-319 -114v117q315 0 315 301z" />
    <glyph glyph-name="Ymacron" horiz-adv-x="1052" 
d="M752 1120h-451v103h451v-103zM590 0h-127v229l-391 754h143l315 -639l316 639h135l-391 -768v-215z" />
    <glyph glyph-name="ymacron" horiz-adv-x="1052" 
d="M752 1120h-451v103h451v-103zM590 0h-127v229l-391 754h143l315 -639l316 639h135l-391 -768v-215z" />
    <glyph glyph-name="ampersand.ss01" horiz-adv-x="1218" 
d="M248 261q0 -69 61 -122t138 -53t129 28t73 74q-240 61 -364 197q-37 -55 -37 -124zM984 150q-110 0 -226 16q-33 -90 -118 -140t-181 -51q-145 0 -232 79q-86 79 -86 192t80 223q-59 109 -59 223q0 150 93 233t214 83t206 -74t85 -205q0 -16 -4 -53l-117 -21q4 33 4 50
q0 92 -53 145t-126 53t-129 -54t-56 -155q0 -154 105 -256t282 -147q0 70 -39 155q96 23 179 23t187 -14l-10 -97q-139 17 -235 9q16 -33 20 -99q125 -18 226 -18t186 14l-6 -98q-80 -16 -190 -16z" />
    </font>
</defs>
</svg>
